<svg xmlns="http://www.w3.org/2000/svg" width="50" height="50" viewBox="0 0 50 50"><defs><style>.a,.b,.c{fill:none;}.b,.c{stroke:#4d3b40;stroke-linejoin:round;}.c{stroke-width:2px;}</style></defs><rect class="a" width="50" height="50"/><path class="b" d="M51.509,13.618v5.289l12.365,1.839Z" transform="translate(-25.754 -6.809)"/><path class="b" d="M63.854,13.217l-7.769,9.768,12.338-7.127Z" transform="translate(-28.043 18.892)"/><path class="b" d="M65.691,9.416,61.1,21.016,65.7,23.667Z" transform="translate(-24.552 9.792)"/><path class="b" d="M61.109,9.416l4.587,11.6L61.1,23.667Z" transform="translate(-52.254 9.792)"/><path class="b" d="M60.656,13.217l7.769,9.768L56.086,15.858Z" transform="translate(-46.461 18.892)"/><path class="b" d="M63.874,13.618v5.289L51.509,20.746Z" transform="translate(-39.634 -6.809)"/><path class="b" d="M67.488,11.415,58.424,27.121,53.072,13.563Z" transform="translate(-43.916 2.292)"/><path class="b" d="M53.071,11.41,62.14,27.121l5.354-13.565Z" transform="translate(-26.646 2.295)"/><path class="b" d="M58.905,3.516,49.586,19.639H68.221Z" transform="translate(-33.904 10.742)"/><path class="b" d="M59.172,21.959,50.129,10.553h18.1Z" transform="translate(-34.176 21.344)"/><path class="c" d="M31.868,0,42.491,18.4,31.868,36.8H10.623L0,18.4,10.623,0Z" transform="translate(43.401 3.755) rotate(90)"/></svg>