<svg xmlns="http://www.w3.org/2000/svg" width="45.362" height="45.349" viewBox="0 0 45.362 45.349"><defs><style>.a{fill:#fff;}.b,.c{fill:none;stroke:#4d3b40;}.c{stroke-linejoin:round;}.d{fill:#4d3b40;}.e,.f{stroke:none;}.f{fill:#4d3b40;}</style></defs><g transform="translate(0.501)"><g class="a" transform="matrix(0.719, 0.695, -0.695, 0.719, 14.697, 20.892)"><path class="e" d="M 4.894065380096436 18.36135482788086 C 4.618772029876709 14.39349842071533 3.340229272842407 12.03416347503662 2.293499946594238 10.1026611328125 C 1.570819973945618 8.769110679626465 1 7.715800762176514 1 6.500000953674316 C 1 3.467290639877319 3.467289924621582 1.000000715255737 6.5 1.000000715255737 C 9.532710075378418 1.000000715255737 12 3.467290639877319 12 6.500000953674316 C 12 8.02163028717041 11.31744956970215 10.87184047698975 9.818860054016113 13.53400039672852 C 9.044039726257324 14.91043090820312 8.159350395202637 16.04718017578125 7.189380168914795 16.91267013549805 C 6.458384037017822 17.56492805480957 5.689918041229248 18.04956436157227 4.894065380096436 18.36135482788086 Z"/><path class="f" d="M 6.5 2 C 4.01869010925293 2 2 4.018691062927246 2 6.500000953674316 C 2 7.462250709533691 2.491889953613281 8.369930267333984 3.172699928283691 9.626200675964355 C 4.079748153686523 11.29996871948242 5.252443790435791 13.46383476257324 5.730524063110352 16.78499603271484 C 7.249823093414307 15.74631881713867 8.341266632080078 14.12028980255127 8.947440147399902 13.04346084594727 C 10.29496002197266 10.64967060089111 11 7.939730644226074 11 6.500000953674316 C 11 4.018691062927246 8.98130989074707 2 6.5 2 M 6.5 0 C 10.0898494720459 0 13 2.910150527954102 13 6.500000953674316 C 13 10.08985042572021 9.858710289001465 18.5864200592041 3.946109771728516 19.66750144958496 C 3.852490425109863 12.01798057556152 0 10.08985042572021 0 6.500000953674316 C 0 2.910150527954102 2.910149574279785 0 6.5 0 Z"/></g><path class="b" d="M14740,4014c-1.326-3.546-4.989-4.01-6.055-1.86s.956,5.825-.788,6.416-1.521-1.578-3.518-1.169" transform="translate(-11813.747 -9628.579) rotate(24)"/><path class="c" d="M14724.117,4021.243H14720c-2.977,0-2.84,2.757,0,2.757s5,0,5,1.487c0,1.536-1,1.513-3,1.513s-1.977,2,0,2h23c4.982,0,4.988-5,0-5s0-.013,0-2.757h-13.55" transform="translate(-14717.818 -3984.151)"/><path class="d" d="M-14690.7-3942.333v0a5.452,5.452,0,0,0-.64-2.13l22.317-20.37a3.01,3.01,0,0,0-.025-4.215,2.994,2.994,0,0,0-2.125-.877,2.98,2.98,0,0,0-2.09.848l-20.4,22.343a5.458,5.458,0,0,0-2.175-.595l.063-.066.146-.148,20.922-22.919a4.966,4.966,0,0,1,3.536-1.464,4.966,4.966,0,0,1,3.535,1.464,4.968,4.968,0,0,1,1.462,3.536,4.968,4.968,0,0,1-1.462,3.536l-22.922,20.918-.12.118-.021.021Z" transform="translate(14711.036 3971.928)"/></g></svg>