<svg xmlns="http://www.w3.org/2000/svg" width="38.597" height="46" viewBox="0 0 38.597 46"><defs><style>.a{fill:none;}.b,.c{stroke:none;}.c{fill:#4d3b40;}</style></defs><g class="a" transform="translate(14588.299 3974)"><path class="b" d="M-14572.533-3928c-.863,0-1.468-.9-1.468-2v-19.621l-13.968-21.283a2,2,0,0,1,1.673-3.1h34.593a2,2,0,0,1,1.669,3.1l-13.968,21.287V-3936c0,1.1-.515,1.315-1.375,2.176,0,0-1.466,1.421-3.216,3.1C-14569.885-3929.489-14571.3-3928-14572.533-3928Z"/><path class="c" d="M -14572.0009765625 -3930.33544921875 C -14571.9423828125 -3930.3779296875 -14571.8798828125 -3930.425537109375 -14571.8125 -3930.479248046875 C -14571.34765625 -3930.84619140625 -14570.8349609375 -3931.341796875 -14570.3388671875 -3931.821044921875 C -14570.216796875 -3931.93896484375 -14570.095703125 -3932.055908203125 -14569.9755859375 -3932.17138671875 C -14568.3291015625 -3933.7470703125 -14566.9169921875 -3935.11474609375 -14566.7802734375 -3935.24755859375 C -14566.591796875 -3935.435302734375 -14566.4248046875 -3935.589599609375 -14566.2783203125 -3935.72607421875 C -14566.1845703125 -3935.81298828125 -14566.07421875 -3935.9150390625 -14566.001953125 -3935.988037109375 C -14566.001953125 -3935.9912109375 -14566.001953125 -3935.99462890625 -14566.001953125 -3935.998291015625 L -14566.001953125 -3950.212646484375 L -14565.673828125 -3950.712158203125 L -14551.7060546875 -3972 L -14586.294921875 -3972 C -14586.294921875 -3971.999267578125 -14586.294921875 -3971.998779296875 -14586.2958984375 -3971.998046875 L -14572.0009765625 -3950.217041015625 L -14572.0009765625 -3930.33544921875 M -14572.533203125 -3928 C -14573.396484375 -3928 -14574.0009765625 -3928.896240234375 -14574.0009765625 -3929.998291015625 L -14574.0009765625 -3949.619384765625 L -14587.96875 -3970.90234375 C -14588.83984375 -3972.2314453125 -14587.884765625 -3974 -14586.2958984375 -3974 L -14551.703125 -3974 C -14550.1142578125 -3974 -14549.1591796875 -3972.2314453125 -14550.0341796875 -3970.90234375 L -14564.001953125 -3949.614990234375 L -14564.001953125 -3935.998291015625 C -14564.001953125 -3934.896240234375 -14564.5166015625 -3934.682861328125 -14565.376953125 -3933.822021484375 C -14565.376953125 -3933.822021484375 -14566.8427734375 -3932.40087890625 -14568.5927734375 -3930.726318359375 C -14569.884765625 -3929.4892578125 -14571.3017578125 -3928 -14572.533203125 -3928 Z"/></g></svg>