<svg xmlns="http://www.w3.org/2000/svg" width="40.527" height="47" viewBox="0 0 40.527 47"><defs><style>.a{fill:#4d3b40;}.b{fill:none;stroke:#4d3b40;stroke-linejoin:round;}</style></defs><g transform="translate(0 0.5)"><path class="a" d="M-14826-3931.345a3.96,3.96,0,0,1-2.828-1.172,3.972,3.972,0,0,1-1.173-2.831,3.962,3.962,0,0,1,1.173-2.823,4.023,4.023,0,0,1,2.836-1.171c.109,0,.222,0,.331.014l5.215-6.022-3.432-3.432a.994.994,0,0,1-.294-.708.992.992,0,0,1,.294-.707l2.117-2.122a.991.991,0,0,1,.706-.293,1,1,0,0,1,.53.152l3.74,2.326a.053.053,0,0,0,.015.011l.767-.92-9.952-8.3a1,1,0,0,1-.32-.495l-2.807-9.885a1,1,0,0,1,.254-.983.991.991,0,0,1,.707-.29.98.98,0,0,1,.275.037l9.882,2.806a1.027,1.027,0,0,1,.491.32l5.281,6.306v3.118l-6.617-7.9-7.861-2.237,2.233,7.865,9.714,8.106-.965,1.158,3.5-4.193v3.116l-3.733,4.474a.987.987,0,0,1-.722.357h-.051a1,1,0,0,1-.7-.292l-.54-.536-2.97-1.85-.853.852,3.387,3.383a.991.991,0,0,1,.049,1.362l-6.189,7.139a.991.991,0,0,1-.754.347,1,1,0,0,1-.244-.031,2.186,2.186,0,0,0-.491-.06,1.983,1.983,0,0,0-1.41.588,1.983,1.983,0,0,0-.586,1.411,1.989,1.989,0,0,0,.586,1.418,1.992,1.992,0,0,0,1.418.587,1.992,1.992,0,0,0,1.414-.583,2.009,2.009,0,0,0,.521-1.906,1,1,0,0,1,.316-1l7.143-6.189a.993.993,0,0,1,.651-.243,1,1,0,0,1,.711.295l3.048,3.048v2.687a.99.99,0,0,1-.368-.234l-3.436-3.428-6.019,5.211a3.991,3.991,0,0,1-1.157,3.175A3.976,3.976,0,0,1-14826-3931.345Zm32.53,0a3.963,3.963,0,0,1-2.829-1.169,3.99,3.99,0,0,1-1.157-3.167l-6.015-5.218-3.439,3.432a.976.976,0,0,1-.283.2v-2.741l2.967-2.963a.977.977,0,0,1,.7-.294,1,1,0,0,1,.655.246l7.143,6.189a1,1,0,0,1,.316,1,1.977,1.977,0,0,0,.524,1.906,1.975,1.975,0,0,0,1.415.584,1.988,1.988,0,0,0,1.414-.584,2.017,2.017,0,0,0,0-2.833,2,2,0,0,0-1.407-.588,2.063,2.063,0,0,0-.5.063,1.109,1.109,0,0,1-.245.03.972.972,0,0,1-.752-.346l-6.193-7.139a1,1,0,0,1,.049-1.362l3.387-3.383-.853-.852-3,1.872-.477.48a1,1,0,0,1-.711.29h-.041a.983.983,0,0,1-.718-.357l-1.437-1.712.878-.741-3.123,2.615v-2.606l12.156-10.185,2.237-7.861-7.865,2.233-6.528,7.824v-3.117l5.192-6.226a.977.977,0,0,1,.5-.32l9.882-2.806a1.006,1.006,0,0,1,.269-.037,1.01,1.01,0,0,1,.71.294.993.993,0,0,1,.253.979l-2.806,9.882a1,1,0,0,1-.32.491l-9.9,8.3.763.912,3.7-2.319a.988.988,0,0,1,.528-.153,1,1,0,0,1,.711.294l2.121,2.122a1.006,1.006,0,0,1,.294.707,1.007,1.007,0,0,1-.294.707l-3.436,3.432,5.215,6.018c.129-.012.256-.019.364-.019a3.949,3.949,0,0,1,2.807,1.176,3.96,3.96,0,0,1,1.168,2.826,3.987,3.987,0,0,1-1.172,2.832A3.968,3.968,0,0,1-14793.469-3931.348Zm-18.722-10.987,0,0-.687-1.1-.48-.477a1.038,1.038,0,0,1-.294-.752,1.03,1.03,0,0,1,.365-.726l1.1-.92v3.976Zm5-.153v-3.807l1.046.871a1.014,1.014,0,0,1,.361.722,1,1,0,0,1-.294.752l-.54.543-.571.916Z" transform="translate(14830 3974)"/><path class="b" d="M-2,4.438,2.5-3,7,4.438l-3-1V36.724l3-1L2.5,43-2,35.724l3,1V3.438Z" transform="translate(17.809 3)"/></g></svg>