<svg xmlns="http://www.w3.org/2000/svg" width="43.889" height="45.463" viewBox="0 0 43.889 45.463"><defs><style>.a{fill:#4d3b40;}.b,.c,.d,.f{fill:none;}.b,.c,.d{stroke:#4d3b40;}.b,.c{stroke-linecap:round;}.b{stroke-linejoin:round;}.e{stroke:none;}</style></defs><path class="a" d="M-14876.02-3928.537a.721.721,0,0,1-.266-.049l-13.236-5.06a.75.75,0,0,1-.463-.859l4.38-20.366a.744.744,0,0,1,.239-.411.621.621,0,0,1,.138-.093.736.736,0,0,1,.354-.091.729.729,0,0,1,.266.05l9.452,3.618,1.5,2.178-10.673-4.081-4.058,18.883,11.793,4.51a.757.757,0,0,1,.714-.509.76.76,0,0,1,.153.016.738.738,0,0,1,.389.217l12.187-7.436.306-1.424a.758.758,0,0,1,.734-.59.757.757,0,0,1,.163.018.733.733,0,0,1,.467.32.753.753,0,0,1,.1.57l-.284,1.319,9.9,5.849,4.039-18.823-9.742-5.758c.266-.383.537-.775.854-1.237l10.122,5.978a.754.754,0,0,1,.352.8l-4.38,20.37a.72.72,0,0,1-.239.4.7.7,0,0,1-.19.12.716.716,0,0,1-.3.065.775.775,0,0,1-.382-.1l-10.9-6.442h-.011a.354.354,0,0,1-.083-.008l-13,7.945A.8.8,0,0,1-14876.02-3928.537Zm.553-2.735a1.065,1.065,0,0,1-.149-.015.75.75,0,0,1-.579-.893l.415-1.958a.74.74,0,0,1,.73-.592.783.783,0,0,1,.159.017.734.734,0,0,1,.472.32.746.746,0,0,1,.107.569l-.423,1.958a.669.669,0,0,1-.235.407A.759.759,0,0,1-14875.467-3931.273Zm.83-3.916a.65.65,0,0,1-.149-.015.747.747,0,0,1-.475-.325.742.742,0,0,1-.1-.564l.414-1.958a.745.745,0,0,1,.729-.592.758.758,0,0,1,.157.017.737.737,0,0,1,.473.319.752.752,0,0,1,.106.57l-.414,1.954a.729.729,0,0,1-.239.407A.761.761,0,0,1-14874.637-3935.189Zm.829-3.913a.739.739,0,0,1-.153-.015.747.747,0,0,1-.475-.325.742.742,0,0,1-.1-.564l.423-1.958a.745.745,0,0,1,.729-.594.768.768,0,0,1,.152.015.753.753,0,0,1,.479.328.745.745,0,0,1,.1.562l-.419,1.958a.724.724,0,0,1-.243.411A.738.738,0,0,1-14873.808-3939.1Zm12.123-1.39a.729.729,0,0,1-.157-.015.749.749,0,0,1-.471-.329.741.741,0,0,1-.1-.564l.426-1.958a.747.747,0,0,1,.727-.586.737.737,0,0,1,.163.018.745.745,0,0,1,.571.889l-.426,1.955a.754.754,0,0,1-.235.407A.777.777,0,0,1-14861.685-3940.492Zm-11.293-2.522a.674.674,0,0,1-.149-.015.761.761,0,0,1-.583-.889l.418-1.958a.752.752,0,0,1,.737-.595.783.783,0,0,1,.152.015.753.753,0,0,1,.575.893l-.414,1.955a.751.751,0,0,1-.243.407A.74.74,0,0,1-14872.978-3943.014Zm12.141-1.386a.725.725,0,0,1-.156-.015.757.757,0,0,1-.576-.893l.427-1.954a.747.747,0,0,1,.728-.59.746.746,0,0,1,.161.018.734.734,0,0,1,.47.319.754.754,0,0,1,.106.571l-.427,1.954a.728.728,0,0,1-.238.407A.752.752,0,0,1-14860.837-3944.4Zm-11.3-2.527a.77.77,0,0,1-.162-.018.747.747,0,0,1-.476-.326.736.736,0,0,1-.1-.56l.108-.513.934,1.352A.735.735,0,0,1-14872.136-3946.928Zm12.147-1.382a.8.8,0,0,1-.16-.019.754.754,0,0,1-.576-.893l.426-1.951a.752.752,0,0,1,.733-.592.755.755,0,0,1,.156.017.752.752,0,0,1,.576.893l-.423,1.955a.745.745,0,0,1-.239.4A.74.74,0,0,1-14859.988-3948.309Zm-10.944-.9h0l-.915-1.324.13.05,2.665-1.627v1.756l-1.878,1.146Zm3.874-2.365v-1.756l8.461-5.166a.909.909,0,0,1,.09-.046c-.669.971-1.34,1.935-2.108,3.036l-6.44,3.931Zm7.923-.644a.864.864,0,0,1-.165-.019.755.755,0,0,1-.588-.814c.6-.856,1.17-1.669,1.688-2.416a.738.738,0,0,1,.215.7l-.422,1.958a.773.773,0,0,1-.243.407A.731.731,0,0,1-14859.136-3952.218Zm6.076-6.779a5.935,5.935,0,0,1-2.374-.491c.446-.659.811-1.2,1.146-1.706a3.966,3.966,0,0,0,1.229.194,4,4,0,0,0,4-4,4.006,4.006,0,0,0-4-4,4.005,4.005,0,0,0-4,4,3.982,3.982,0,0,0,1.082,2.731c-.333.5-.705,1.053-1.136,1.688a6.018,6.018,0,0,1-1.945-4.418,6,6,0,0,1,6-6,6.006,6.006,0,0,1,6,6A6.008,6.008,0,0,1-14853.06-3959Zm-30,0a6.008,6.008,0,0,1-6-6,6.007,6.007,0,0,1,6-6,6,6,0,0,1,6,6,5.956,5.956,0,0,1-1.814,4.3l-1.162-1.681a3.992,3.992,0,0,0,.978-2.615,4,4,0,0,0-4-4,4.007,4.007,0,0,0-4,4,4.005,4.005,0,0,0,4,4,3.956,3.956,0,0,0,1.377-.245l1.162,1.683A5.924,5.924,0,0,1-14883.056-3959Zm14-3.086h0a6.018,6.018,0,0,1-3.563-2.024,6,6,0,0,1-1.436-3.892,6.006,6.006,0,0,1,6-6,6.006,6.006,0,0,1,6,6,6,6,0,0,1-1.437,3.891,6.006,6.006,0,0,1-3.562,2.023v-2.039a4,4,0,0,0,3-3.876,4,4,0,0,0-4-4,4,4,0,0,0-4,4,4,4,0,0,0,3,3.876v2.039Z" transform="translate(14890 3974)"/><path class="b" d="M14932.906,3993.357,14920,4011.7v-20.753" transform="translate(-14898.057 -3981)"/><path class="c" d="M14907.22,3993.252l12.78,18.468" transform="translate(-14898.057 -3981)"/><g class="d" transform="translate(17.727 31.284) rotate(-31)"><ellipse class="e" cx="4" cy="2" rx="4" ry="2"/><ellipse class="f" cx="4" cy="2" rx="3.5" ry="1.5"/></g></svg>