<svg xmlns="http://www.w3.org/2000/svg" width="27.602" height="46.5" viewBox="0 0 27.602 46.5"><defs><style>.a{fill:#4d3b40;stroke:#4d3b40;stroke-linecap:round;stroke-linejoin:round;stroke-width:0.5px;}</style></defs><g transform="translate(0.25 0.25)"><path class="a" d="M-14789.568-3938a.433.433,0,0,1-.434-.434v-3.7a.433.433,0,0,1,.434-.434h7.092a5.142,5.142,0,0,1,.49-2.462,4.361,4.361,0,0,0,.023-1.873c-.1-.9-.273-1.917-.43-2.818-.123-.708-.215-1.242-.262-1.636q-.357.01-.686.01a14.289,14.289,0,0,1-2.018-.119,2.052,2.052,0,0,1-1.279-.5,2.015,2.015,0,0,1-.3-1.265,13.8,13.8,0,0,1,.137-1.952,27.523,27.523,0,0,1,.523-2.8,26.413,26.413,0,0,1,.891-2.98,15.491,15.491,0,0,1,1.244-2.663,6.253,6.253,0,0,1,1.48-1.747,4.486,4.486,0,0,1-.576-.893,2.047,2.047,0,0,1-.154-1.373,5.533,5.533,0,0,0,.055-1.294,5.871,5.871,0,0,1,.066-1.371,5.727,5.727,0,0,1,1.395-2.513,2.716,2.716,0,0,1,.537-.421,4.443,4.443,0,0,1,.564-1.08,2.789,2.789,0,0,1,1.389-.912,5.6,5.6,0,0,1,1.189-.247,2.385,2.385,0,0,1-.145-.3,3.59,3.59,0,0,1-.187-1.651c.014-.176.021-.353.029-.5a5.431,5.431,0,0,1,.215-1.525,2.2,2.2,0,0,1,1.115-1.285,4.279,4.279,0,0,1,1.979-.482,4.076,4.076,0,0,1,1.951.486,3.7,3.7,0,0,1,1.684,1.759,6.29,6.29,0,0,1,.441,1.853v0a4.079,4.079,0,0,0,.246,1.149,2.316,2.316,0,0,1,.084,1.364,4.546,4.546,0,0,1-.512,1.392,2.367,2.367,0,0,1-.654.761,12.159,12.159,0,0,1,.572,1.813c.037.141.066.282.09.424.432-.938.961-2.076,1.508-3.251l.02-.042.014-.025,0-.008c1.545-3.313,3.293-7.071,3.592-7.9a.429.429,0,0,1,.109-.165c.734-.705,2.41-2.258,2.416-2.265a.434.434,0,0,1,.295-.115.434.434,0,0,1,.178.037.435.435,0,0,1,.256.4v.021c-.01.387-.053,1.766-.184,3.246a.476.476,0,0,1-.035.134c-.477,1.106-3.482,6.89-5.348,10.45.855.086,1.453.136,1.482.139h0a.436.436,0,0,1,.4.4c0,.014.107,1.664.371,3.6a18.971,18.971,0,0,0,1.289,5.361.439.439,0,0,1,.008.386.442.442,0,0,1-.3.237c-.756.155-2.27,1.506-3.736,2.811l0,0-.006.006,0,0,0,0h0l-.01.009,0,0,0,0c-.6.536-1.271,1.133-1.951,1.7a6.071,6.071,0,0,1,.262,1.612,1.144,1.144,0,0,1,.139.144,1.827,1.827,0,0,1,.3,1.493c-.066.333-.346,1.456-.707,2.888l-.031.132,0,.007c-.342,1.366-.729,2.914-.908,3.714a3.584,3.584,0,0,1,1.049.365,2.572,2.572,0,0,1,.908.826,2.871,2.871,0,0,1,.455,1.283h6.143a.433.433,0,0,1,.434.434v3.7a.433.433,0,0,1-.434.434Zm.434-.867h25.367v-2.837h-25.367Zm18.783-3.7a2.012,2.012,0,0,0-.3-.8,2.285,2.285,0,0,0-1.795-.877.438.438,0,0,1-.3-.166.437.437,0,0,1-.084-.335c.08-.5.551-2.383,1.008-4.209l.008-.027.031-.123.008-.035,0,0c.32-1.278.623-2.486.686-2.8a.972.972,0,0,0-.123-.774.164.164,0,0,0-.1-.071h-.012a1.244,1.244,0,0,0-.3.126c-.15.08-.328.185-.516.295l-.043.025a4.307,4.307,0,0,1-1.635.717h-.051a1.961,1.961,0,0,1-.727-.183,1.5,1.5,0,0,0-.49-.138c-.062,0-.205,0-.418.232-.02.08-.053.209-.1.376-.1.4-.209.825-.32,1.257a16.234,16.234,0,0,0,.113,1.95c.078.711.238,1.9.566,3.508a6.721,6.721,0,0,1,.1.98v.019a3.294,3.294,0,0,0,.115.889.217.217,0,0,0,.234.17Zm-9.125-10.812a3.141,3.141,0,0,1-1.514.51,1.055,1.055,0,0,0-.836.947,15.55,15.55,0,0,0,.287,2.054c.158.914.338,1.95.439,2.872a5.109,5.109,0,0,1-.088,2.306,4.289,4.289,0,0,0-.42,2.123h5.459a1.608,1.608,0,0,0-.57-.888,2.567,2.567,0,0,0-1.268-.527h-.006a2.5,2.5,0,0,0-.314-.021,1.668,1.668,0,0,0-.861.212.435.435,0,0,1-.576-.143.433.433,0,0,1,.1-.583,2.07,2.07,0,0,1,1.244-.379c.057,0,.115,0,.172.006.277-.853.875-3.088,1.785-6.666.055-.212.092-.366.111-.434a2.95,2.95,0,0,0,.039-.9,1.238,1.238,0,0,0-.406-.89,1.583,1.583,0,0,0-.92-.281A3.573,3.573,0,0,0-14779.477-3953.38Zm2.113,8.643a3.366,3.366,0,0,1,1.191.608q.073.059.141.122a3.538,3.538,0,0,0-.059-.447c-.26-1.273-.416-2.285-.51-3.013C-14776.9-3946.338-14777.174-3945.341-14777.363-3944.737Zm-5.652-19.019a9.811,9.811,0,0,0-.912,1.557,21.656,21.656,0,0,0-1.393,3.959,25.712,25.712,0,0,0-.691,3.792,4.457,4.457,0,0,0,.035,1.917c.076.052.564.315,2.637.315.229,0,.457,0,.684-.01a1.906,1.906,0,0,1,.7-1.126,25.591,25.591,0,0,1-1.344-4.375,8.99,8.99,0,0,1-.018-4.359l.006-.021.041-.125c.01-.034.02-.06.027-.083l.01-.031.053-.163s0-.006,0-.01,0-.006,0-.009l0-.006a.114.114,0,0,0,.008-.024l.012-.041c.008-.02.014-.04.02-.058l0,0,.008-.024.014-.04.012-.04,0,0,0-.014,0-.008,0,0c.146-.453.307-.937.457-1.433A5.568,5.568,0,0,0-14783.016-3963.756Zm8.74,11.137.014.005a1.33,1.33,0,0,0,.393.116h.01a4.529,4.529,0,0,0,1.225-.591l.01-.005a4.835,4.835,0,0,1,1.063-.536,4.85,4.85,0,0,0-.369-1.576,7.878,7.878,0,0,0-1.436-1.873h0l-.012-.011h0v0a6.441,6.441,0,0,1-1.5-2.059c-.023-.074-.045-.146-.061-.217a2.091,2.091,0,0,1-.383-.219,1.947,1.947,0,0,1-.77-1.152,1.745,1.745,0,0,1,.385-1.526,2.357,2.357,0,0,1,.652-.53c-.061-.063-.117-.128-.17-.195-.135-.024-.309-.065-.543-.121a10.012,10.012,0,0,0-2.207-.345c-.064,0-.125,0-.186,0s-.107,0-.162,0a7.11,7.11,0,0,1-3.338-1.02c-.187.647-.4,1.291-.6,1.917l-.018.053,0,.007c-.057.17-.125.384-.219.675a5.432,5.432,0,0,0-.213,1.732,12.174,12.174,0,0,0,.256,2.191,24.685,24.685,0,0,0,1.279,4.175c.033-.006.066-.01.1-.014a2.287,2.287,0,0,0,1.119-.369l.006,0a4.4,4.4,0,0,1,2.336-.825,2.471,2.471,0,0,1,.98.2c-.217-1.025-.537-2.087-.682-2.544-.2-.6-.393-1.136-.5-1.4a.433.433,0,0,1,.229-.562.408.408,0,0,1,.172-.037.44.44,0,0,1,.4.253c.123.273.322.825.529,1.478a19.22,19.22,0,0,1,.916,3.9,2.755,2.755,0,0,1,.148.659c.008.07.014.14.016.207a1.261,1.261,0,0,1,.324-.04A2.151,2.151,0,0,1-14774.275-3952.619Zm3.48-10.912a1.951,1.951,0,0,1-.676,1.5,2.126,2.126,0,0,1-.85.449l.049.009h.01a3.848,3.848,0,0,1,1.451.454,1.482,1.482,0,0,1,.508.58,2.515,2.515,0,0,1,.236.854,2.4,2.4,0,0,1-.186,1.188,3.6,3.6,0,0,1-.639,1.021,2.9,2.9,0,0,1-1,.759,6.036,6.036,0,0,1,.592.851c.613-.519,1.219-1.06,1.721-1.508l.014-.011.008-.008,0,0,.014-.013c.811-.722,1.576-1.4,2.266-1.942a7.5,7.5,0,0,1,1.371-.9,22.788,22.788,0,0,1-1.174-5.2c-.186-1.374-.3-2.649-.35-3.287-.465-.042-.969-.092-1.477-.145-.385.737-.693,1.32-.875,1.665.258.147.525.306.775.456l.02.012c.182.109.389.232.588.348a1.356,1.356,0,0,1,.16-.01,1.125,1.125,0,0,1,.977.551,1.643,1.643,0,0,1-.025,1.6,1.415,1.415,0,0,1-1.205.858,1.228,1.228,0,0,1-1.078-.749c-.346-.144-.727-.335-1.094-.519l-.006,0-.172-.084-.111-.057A4.848,4.848,0,0,1-14770.795-3963.531Zm-1.771,3.356a1.557,1.557,0,0,1-1.387.983,8.143,8.143,0,0,0,1.209,1.508h0v0h0l.219.236a1.614,1.614,0,0,0,.982-.609,2.152,2.152,0,0,0,.611-1.529c-.066-.549-.223-.721-.365-.818a3.291,3.291,0,0,0-1.092-.316A4.453,4.453,0,0,1-14772.566-3960.175Zm-2.676-.752a1.178,1.178,0,0,0,1.154.874.726.726,0,0,0,.717-.444,1.9,1.9,0,0,0,.193-.911.422.422,0,0,0-.055-.156,1.413,1.413,0,0,1-.486-.22l-.367-.258-.211-.148C-14775.129-3961.9-14775.332-3961.342-14775.242-3960.928Zm1.084-3.5a.435.435,0,0,1,.172.572,1.511,1.511,0,0,1-.121.2,1.79,1.79,0,0,1-.252.322,7.668,7.668,0,0,0,.77.579l.375.263a.667.667,0,0,0,.385.105,1.242,1.242,0,0,0,.791-.3,1.081,1.081,0,0,0,.377-.842,2.3,2.3,0,0,0-.621-1.88,3.021,3.021,0,0,0-1.43-.464l-.1-.015a17.1,17.1,0,0,1-2.85-.952,13.49,13.49,0,0,0-1.529-.549h0a6.814,6.814,0,0,0-.951-.083,1.185,1.185,0,0,0-.248.017.433.433,0,0,1-.533-.292.433.433,0,0,1,.285-.538,1.886,1.886,0,0,1,.557-.065c.143,0,.295.008.441.021a2.484,2.484,0,0,1,.129-.463c.125-.347.492-.587.957-.892.225-.146.475-.31.7-.492a2.333,2.333,0,0,0-.32-1.247,3.835,3.835,0,0,0-1.176-1.158,1.922,1.922,0,0,0-1.105-.321,2.674,2.674,0,0,0-1.8.693,4.866,4.866,0,0,0-1.17,2.107,5.244,5.244,0,0,0-.043,1.149,6.191,6.191,0,0,1-.08,1.517,1.2,1.2,0,0,0,.1.811,4.345,4.345,0,0,0,.684.974,4.162,4.162,0,0,0,1.473.9,5.681,5.681,0,0,0,1.975.442c.041,0,.082,0,.121,0,.074,0,.148,0,.227,0a10.825,10.825,0,0,1,2.406.368c.154.037.334.079.459.1a2.028,2.028,0,0,0,.279-.286.431.431,0,0,0,.025-.043c.02-.032.041-.066.064-.1a.434.434,0,0,1,.367-.2A.429.429,0,0,1-14774.158-3964.428Zm3.117-1.4c.234.113.477.232.764.376l.037.019h0c.436.218.813.405,1.15.537a.428.428,0,0,1,.242.236c.1.244.236.387.359.387s.295-.119.432-.387a.791.791,0,0,0,.059-.751.267.267,0,0,0-.236-.137.457.457,0,0,0-.115.018.426.426,0,0,1-.119.017.426.426,0,0,1-.215-.057c-.248-.142-.5-.293-.764-.449l-.031-.019c-.385-.23-.748-.447-1.084-.625a.425.425,0,0,1-.213-.257.43.43,0,0,1,.033-.333c.4-.744,6.012-11.427,6.8-13.189.059-.649.1-1.354.139-2.1-.443.414-1.121,1.048-1.568,1.474-.4,1.038-2.1,4.688-3.6,7.909-1.146,2.46-2.332,5-2.506,5.468a.426.426,0,0,1-.26.258.436.436,0,0,1-.146.025.429.429,0,0,1-.219-.061c-.5-.291-1.691-.87-2.072-1.05a.432.432,0,0,1-.242-.328c-.033-.22-.137-.327-.32-.327a.626.626,0,0,0-.555.412.74.74,0,0,0,.029.671.4.4,0,0,0,.35.172.6.6,0,0,0,.1-.008c.023,0,.045,0,.063,0a.421.421,0,0,1,.193.046,15.213,15.213,0,0,1,1.4.862l.016.012.045.03.008.006c.229.151.443.293.617.4a.43.43,0,0,1,.141.136,2.415,2.415,0,0,1,.588.344,2.046,2.046,0,0,1,.289.281.433.433,0,0,1,.223-.061A.438.438,0,0,1-14771.041-3965.825Zm-6.82-7.476a4.686,4.686,0,0,1,1.432,1.431,3.241,3.241,0,0,1,.434,1.924.424.424,0,0,1-.146.3,8.058,8.058,0,0,1-.939.684c-.168.11-.328.215-.447.307a.794.794,0,0,0-.172.16,1.43,1.43,0,0,0-.086.311c.322.1.791.278,1.443.534l.457.178a1.075,1.075,0,0,1-.1-.124,1.587,1.587,0,0,1-.119-1.478,1.5,1.5,0,0,1,1.361-.96,1.154,1.154,0,0,1,.762.273,1.2,1.2,0,0,1,.361.555c.4.194.963.467,1.42.706a4.247,4.247,0,0,0-.021-1.933,7.1,7.1,0,0,0-.85-2.273,4.511,4.511,0,0,0-1.777-1.358,5.861,5.861,0,0,0-2.629-.583,5.307,5.307,0,0,0-1.639.239,1.915,1.915,0,0,0-.963.6c-.023.032-.049.066-.072.1a3.5,3.5,0,0,1,.691-.07A2.8,2.8,0,0,1-14777.861-3973.3Zm1.1-6.676a1.331,1.331,0,0,0-.7.8,4.942,4.942,0,0,0-.17,1.285v0l0,.091v0c-.008.14-.016.284-.025.43a2.807,2.807,0,0,0,.127,1.264,2.082,2.082,0,0,0,.379.595,6.589,6.589,0,0,1,2.709.673,8.36,8.36,0,0,1,1.246.761,3.908,3.908,0,0,1,.826.844,1.821,1.821,0,0,0,.33-.428,3.678,3.678,0,0,0,.41-1.117,1.532,1.532,0,0,0-.016-.83,4.685,4.685,0,0,1-.324-1.413,3.3,3.3,0,0,0-1.68-2.961,3.192,3.192,0,0,0-1.535-.379A3.39,3.39,0,0,0-14776.766-3979.976Z" transform="translate(14790.002 3983.998)"/></g></svg>