<svg xmlns="http://www.w3.org/2000/svg" width="46.113" height="46.114" viewBox="0 0 46.113 46.114"><defs><style>.a,.b,.e{fill:none;}.a{stroke-linejoin:round;}.b{stroke:#4d3b40;}.c,.d{stroke:none;}.d{fill:#4d3b40;}</style></defs><g class="a" transform="translate(14290.001 3974)"><path class="c" d="M-14266.944-3927.887a.989.989,0,0,1-.857-.488l-4.231-7.054a.99.99,0,0,1-.014-1.009.989.989,0,0,1,.871-.508h1.731v-9.667a5,5,0,0,0,2.5.669,5,5,0,0,0,2.5-.669v9.667h1.735a.989.989,0,0,1,.871.508.99.99,0,0,1-.014,1.009l-4.235,7.054A.987.987,0,0,1-14266.944-3927.887Zm15-17.819a1,1,0,0,1-1-1v-1.736h-9.67a5.007,5.007,0,0,0,.668-2.5,5,5,0,0,0-.668-2.5h9.67v-1.732a1,1,0,0,1,1-1,1,1,0,0,1,.515.145l7.054,4.232a.992.992,0,0,1,.484.857.991.991,0,0,1-.484.857l-7.054,4.236A1,1,0,0,1-14251.94-3945.706Zm-30,0a.991.991,0,0,1-.514-.145l-7.058-4.236a.991.991,0,0,1-.484-.857.992.992,0,0,1,.484-.857l7.058-4.232a1,1,0,0,1,.514-.145,1,1,0,0,1,1,1v1.732h9.671a4.992,4.992,0,0,0-.669,2.5,5,5,0,0,0,.669,2.5h-9.671v1.736A1,1,0,0,1-14281.945-3945.706Zm17.5-9.567h0a4.979,4.979,0,0,0-2.5-.67,5,5,0,0,0-2.5.668l0-9.67h-1.731a.99.99,0,0,1-.872-.508.987.987,0,0,1,.015-1.006l4.231-7.058a1,1,0,0,1,.859-.484.989.989,0,0,1,.855.484l4.235,7.058a.987.987,0,0,1,.015,1.006.99.99,0,0,1-.872.508h-1.735v9.672Z"/><path class="d" d="M -14266.9443359375 -3928.88916015625 C -14266.9443359375 -3928.88916015625 -14266.9443359375 -3928.88916015625 -14266.9443359375 -3928.88916015625 L -14262.708984375 -3935.943603515625 C -14262.7080078125 -3935.943603515625 -14262.7060546875 -3935.943115234375 -14262.708984375 -3935.946044921875 C -14262.708984375 -3935.946044921875 -14262.708984375 -3935.946044921875 -14262.708984375 -3935.946044921875 L -14264.4443359375 -3935.946044921875 C -14264.9970703125 -3935.946044921875 -14265.4443359375 -3936.393798828125 -14265.4443359375 -3936.946044921875 L -14265.4443359375 -3945.134033203125 C -14265.931640625 -3945.008544921875 -14266.435546875 -3944.944091796875 -14266.9443359375 -3944.944091796875 C -14267.4521484375 -3944.944091796875 -14267.95703125 -3945.008544921875 -14268.4443359375 -3945.134033203125 L -14268.4443359375 -3936.946044921875 C -14268.4443359375 -3936.393798828125 -14268.8916015625 -3935.946044921875 -14269.4443359375 -3935.946044921875 L -14271.17578125 -3935.946044921875 C -14271.17578125 -3935.946044921875 -14271.17578125 -3935.946044921875 -14271.17578125 -3935.946044921875 C -14271.1767578125 -3935.944580078125 -14271.177734375 -3935.943603515625 -14271.177734375 -3935.942626953125 L -14271.17578125 -3935.943359375 L -14266.9443359375 -3928.88916015625 M -14251.94140625 -3946.707763671875 C -14251.94140625 -3946.7080078125 -14251.9404296875 -3946.708251953125 -14251.9404296875 -3946.708251953125 L -14244.8876953125 -3950.943603515625 L -14251.9404296875 -3955.175048828125 C -14251.9404296875 -3955.17529296875 -14251.943359375 -3955.176513671875 -14251.9453125 -3955.17724609375 C -14251.9443359375 -3955.177001953125 -14251.943359375 -3955.17626953125 -14251.943359375 -3955.17529296875 L -14251.943359375 -3953.443115234375 C -14251.943359375 -3952.890869140625 -14252.390625 -3952.443115234375 -14252.943359375 -3952.443115234375 L -14261.134765625 -3952.443115234375 C -14261.009765625 -3951.95556640625 -14260.9453125 -3951.451416015625 -14260.9453125 -3950.943359375 C -14260.9453125 -3950.435546875 -14261.009765625 -3949.931640625 -14261.1357421875 -3949.44384765625 L -14252.943359375 -3949.44384765625 C -14252.390625 -3949.44384765625 -14251.943359375 -3948.99609375 -14251.943359375 -3948.44384765625 L -14251.94140625 -3946.707763671875 M -14281.9453125 -3946.708740234375 L -14281.9453125 -3948.44384765625 C -14281.9453125 -3948.99609375 -14281.498046875 -3949.44384765625 -14280.9453125 -3949.44384765625 L -14272.7529296875 -3949.44384765625 C -14272.87890625 -3949.931396484375 -14272.943359375 -3950.435302734375 -14272.943359375 -3950.943359375 C -14272.943359375 -3951.45166015625 -14272.87890625 -3951.95556640625 -14272.75390625 -3952.443115234375 L -14280.9453125 -3952.443115234375 C -14281.498046875 -3952.443115234375 -14281.9453125 -3952.890869140625 -14281.9453125 -3953.443115234375 L -14281.9453125 -3955.174560546875 L -14289.0009765625 -3950.94384765625 C -14289.0009765625 -3950.943603515625 -14289.0009765625 -3950.943359375 -14289.0009765625 -3950.943115234375 L -14281.9462890625 -3946.70947265625 C -14281.9462890625 -3946.709228515625 -14281.9453125 -3946.708984375 -14281.9453125 -3946.708740234375 M -14265.4443359375 -3956.752685546875 L -14265.4443359375 -3964.944580078125 C -14265.4443359375 -3965.496826171875 -14264.9970703125 -3965.944580078125 -14264.4443359375 -3965.944580078125 L -14262.7099609375 -3965.944580078125 L -14266.9443359375 -3973.00146484375 L -14271.1748046875 -3965.944580078125 L -14269.4443359375 -3965.944580078125 C -14268.892578125 -3965.944580078125 -14268.4443359375 -3965.4970703125 -14268.4443359375 -3964.94482421875 L -14268.4423828125 -3956.753173828125 C -14267.9560546875 -3956.87841796875 -14267.4521484375 -3956.94287109375 -14266.9443359375 -3956.94287109375 C -14266.435546875 -3956.94287109375 -14265.931640625 -3956.87841796875 -14265.4443359375 -3956.752685546875 M -14266.9443359375 -3927.88671875 C -14267.2998046875 -3927.88671875 -14267.6201171875 -3928.069091796875 -14267.8017578125 -3928.37451171875 L -14272.033203125 -3935.428955078125 C -14272.2216796875 -3935.741943359375 -14272.2265625 -3936.119140625 -14272.046875 -3936.437744140625 C -14271.8671875 -3936.756103515625 -14271.541015625 -3936.946044921875 -14271.17578125 -3936.946044921875 L -14269.4443359375 -3936.946044921875 L -14269.4443359375 -3946.61279296875 C -14268.6884765625 -3946.175537109375 -14267.8251953125 -3945.944091796875 -14266.9443359375 -3945.944091796875 C -14266.0654296875 -3945.944091796875 -14265.2001953125 -3946.17529296875 -14264.4443359375 -3946.61279296875 L -14264.4443359375 -3936.946044921875 L -14262.708984375 -3936.946044921875 C -14262.34375 -3936.946044921875 -14262.017578125 -3936.756103515625 -14261.837890625 -3936.437744140625 C -14261.658203125 -3936.119140625 -14261.6630859375 -3935.741943359375 -14261.8515625 -3935.428955078125 L -14266.0869140625 -3928.37451171875 C -14266.267578125 -3928.069091796875 -14266.587890625 -3927.88671875 -14266.9443359375 -3927.88671875 Z M -14251.9404296875 -3945.705810546875 C -14252.4931640625 -3945.705810546875 -14252.943359375 -3946.1552734375 -14252.943359375 -3946.7080078125 L -14252.943359375 -3948.44384765625 L -14262.61328125 -3948.44384765625 C -14262.1767578125 -3949.200439453125 -14261.9453125 -3950.064208984375 -14261.9453125 -3950.943359375 C -14261.9453125 -3951.821533203125 -14262.17578125 -3952.685791015625 -14262.61328125 -3953.443115234375 L -14252.943359375 -3953.443115234375 L -14252.943359375 -3955.17529296875 C -14252.943359375 -3955.72802734375 -14252.4931640625 -3956.177490234375 -14251.9404296875 -3956.177490234375 C -14251.76171875 -3956.177490234375 -14251.5830078125 -3956.127197265625 -14251.42578125 -3956.032470703125 L -14244.3720703125 -3951.800537109375 C -14244.0693359375 -3951.618896484375 -14243.8876953125 -3951.29833984375 -14243.8876953125 -3950.943359375 C -14243.8876953125 -3950.58837890625 -14244.0693359375 -3950.26806640625 -14244.3720703125 -3950.08642578125 L -14251.42578125 -3945.850830078125 C -14251.5830078125 -3945.756103515625 -14251.76171875 -3945.705810546875 -14251.9404296875 -3945.705810546875 Z M -14281.9453125 -3945.705810546875 C -14282.125 -3945.705810546875 -14282.2978515625 -3945.754638671875 -14282.458984375 -3945.850830078125 L -14289.5166015625 -3950.08642578125 C -14289.8193359375 -3950.26806640625 -14290.0009765625 -3950.58837890625 -14290.0009765625 -3950.943359375 C -14290.0009765625 -3951.29833984375 -14289.8193359375 -3951.618896484375 -14289.5166015625 -3951.800537109375 L -14282.458984375 -3956.032470703125 C -14282.3017578125 -3956.127197265625 -14282.1240234375 -3956.177490234375 -14281.9453125 -3956.177490234375 C -14281.3935546875 -3956.177490234375 -14280.9453125 -3955.72802734375 -14280.9453125 -3955.17529296875 L -14280.9453125 -3953.443115234375 L -14271.2744140625 -3953.443115234375 C -14271.7119140625 -3952.687744140625 -14271.943359375 -3951.82373046875 -14271.943359375 -3950.943359375 C -14271.943359375 -3950.064208984375 -14271.7119140625 -3949.19970703125 -14271.2744140625 -3948.44384765625 L -14280.9453125 -3948.44384765625 L -14280.9453125 -3946.7080078125 C -14280.9453125 -3946.1552734375 -14281.3935546875 -3945.705810546875 -14281.9453125 -3945.705810546875 Z M -14264.4443359375 -3955.2724609375 L -14264.4462890625 -3955.273193359375 C -14265.201171875 -3955.71142578125 -14266.064453125 -3955.94287109375 -14266.9443359375 -3955.94287109375 C -14267.822265625 -3955.94287109375 -14268.6865234375 -3955.7119140625 -14269.4423828125 -3955.274658203125 L -14269.4443359375 -3964.944580078125 L -14271.17578125 -3964.944580078125 C -14271.5419921875 -3964.944580078125 -14271.8681640625 -3965.13427734375 -14272.0478515625 -3965.4521484375 C -14272.2265625 -3965.769775390625 -14272.2216796875 -3966.145751953125 -14272.033203125 -3966.4580078125 L -14267.8017578125 -3973.51611328125 C -14267.6181640625 -3973.8193359375 -14267.296875 -3974.000244140625 -14266.9423828125 -3974.000244140625 C -14266.5888671875 -3974.000244140625 -14266.2685546875 -3973.8193359375 -14266.0869140625 -3973.51611328125 L -14261.8515625 -3966.4580078125 C -14261.6630859375 -3966.145751953125 -14261.658203125 -3965.769775390625 -14261.8369140625 -3965.4521484375 C -14262.0166015625 -3965.13427734375 -14262.3427734375 -3964.944580078125 -14262.708984375 -3964.944580078125 L -14264.4443359375 -3964.944580078125 L -14264.4443359375 -3955.2724609375 Z"/></g><g class="b" transform="translate(19.058 19.056)"><circle class="c" cx="4" cy="4" r="4"/><circle class="e" cx="4" cy="4" r="3.5"/></g></svg>