<svg xmlns="http://www.w3.org/2000/svg" width="43.171" height="46.001" viewBox="0 0 43.171 46.001"><defs><style>.a{fill:none;stroke:#4d3b40;}.b{fill:#4d3b40;}</style></defs><path class="a" d="M-14405-3954c-1.584,0-2.9-4.051-3.538-6.465A44.072,44.072,0,0,1-14410-3969a5.008,5.008,0,0,1,5-5,5,5,0,0,1,5,5,43.93,43.93,0,0,1-1.464,8.535C-14402.107-3958.05-14403.42-3954-14405-3954Zm0-18a3.005,3.005,0,0,0-3,3,3,3,0,0,0,3,3,3,3,0,0,0,3-3A3,3,0,0,0-14405-3972Z" transform="translate(14426.54 3980.601)"/><path class="b" d="M-14388.194-3928h-.593a.022.022,0,0,0-.015,0h-.174c-.008,0-.016,0-.018,0h-.139l-.01,0h-.1l-.009,0h-.063a.078.078,0,0,1-.029,0h-.09a.089.089,0,0,0-.029,0h-.043l-.017,0-.013,0h-.043l-.017,0-.017,0h-.028a.178.178,0,0,1-.044,0h-.047l-.025,0h-.028a.5.5,0,0,0-.072,0c-.233-.014-.466-.032-.713-.054a.22.22,0,0,0-.047,0,.432.432,0,0,0-.072-.007h-.014l-.088-.009-.028,0h-.006l-.034,0h0l-.016,0-.014,0h-.018a.063.063,0,0,0-.025,0,.1.1,0,0,0-.029,0,.031.031,0,0,1-.018,0h-.025a.036.036,0,0,0-.019,0h-.015a.04.04,0,0,0-.015,0h-.014a.026.026,0,0,1-.015,0h-.015a.028.028,0,0,1-.015,0h-.028s-.008,0-.015,0h-.015s-.007,0-.015,0h-.015a.012.012,0,0,0-.011,0h-.018l-.007,0-.008,0h-.015l-.007,0-.008,0h-.011l-.009,0-.009,0h-.015l0,0h0l-.01,0h-.015l0,0h0l0,0h-.018l0,0h0l-.01,0h-.015l-.015,0h-.011l-.009,0-.009,0h-.015a.022.022,0,0,0-.015,0h-.015a.078.078,0,0,0-.029,0s-.011,0-.014,0h-.015a.022.022,0,0,0-.015,0h-.013l-.017,0-.037-.005c-.173-.025-.369-.054-.556-.085a.739.739,0,0,1-.487-.3.758.758,0,0,1-.131-.561.752.752,0,0,1,.737-.629.751.751,0,0,1,.123.011,21.642,21.642,0,0,0,3.524.283h.214a.75.75,0,0,1,.746.741A.755.755,0,0,1-14388.194-3928Zm-.188-5h-.271l-.009,0-.006,0h-.2a.014.014,0,0,0-.011,0h-.13s-.008,0-.015,0h-.091a.013.013,0,0,1-.011,0h-.091s-.011,0-.014,0h-.065a.013.013,0,0,1-.011,0h-.051a.056.056,0,0,1-.025,0h-.04a.063.063,0,0,1-.025,0h-.05s-.013,0-.015,0h-.051s-.009,0-.011,0h-.059l-.007,0h-.025a.055.055,0,0,1-.025,0h-.025a.058.058,0,0,1-.025,0h-.039l-.014,0-.012,0h-.025a.148.148,0,0,0-.04,0h-.011a.026.026,0,0,0-.015,0h-.025a.03.03,0,0,1-.015,0h-.021l-.014,0-.012,0h-.028a.121.121,0,0,0-.036,0h-.011l0,0h-.011a.121.121,0,0,1-.036,0h-.029a.053.053,0,0,0-.025,0h-.011a.022.022,0,0,0-.015,0l-.023,0-.023,0h-.017c-.033,0-.075-.007-.113-.013h0l-.023,0-.027,0a17.883,17.883,0,0,1-4.357-1.034.744.744,0,0,1-.419-.39.741.741,0,0,1-.02-.572.75.75,0,0,1,.7-.488.746.746,0,0,1,.264.047,16.431,16.431,0,0,0,5.783,1.042c.165,0,.339,0,.506-.007h.026a.743.743,0,0,1,.748.728.743.743,0,0,1-.2.536.744.744,0,0,1-.525.235C-14388.066-3933-14388.228-3933-14388.383-3933Zm6.955-1.49a.747.747,0,0,1-.687-.448.737.737,0,0,1-.017-.571.746.746,0,0,1,.4-.42,16.39,16.39,0,0,0,5.208-3.678.753.753,0,0,1,.542-.231.74.74,0,0,1,.521.21.756.756,0,0,1,.025,1.06.032.032,0,0,1-.011.007c0,.007,0,.007-.011.011l0,0v.007c-.011,0-.011.007-.011.007a.014.014,0,0,1-.007.007l-.007,0,0,.007s0,0,0,0h0l0,0a.012.012,0,0,1-.011.007.015.015,0,0,1,0,.007l0,.005c-.006,0-.007,0-.007.006l0,0a.017.017,0,0,1-.009,0v.008l-.01.007s0,0,0,.007l-.008,0,0,0v.007l-.01,0c0,.008,0,.008-.012.011l0,.011h-.006s0,0-.006,0l0,.007c-.009,0-.01,0-.012.008l0,.007s0,0,0,0l-.007.008c-.006,0-.008,0-.008.007l0,.005a.018.018,0,0,1-.008.005c0,.005,0,.007-.011.007l0,0s0,0,0,.007-.008.007-.008.011a.026.026,0,0,1-.014.007c0,.006,0,.007,0,.008s-.006,0-.007,0,0,.007,0,.011h-.008a.016.016,0,0,0,0,.011l-.006,0s0,0,0,0h0l0,0s-.008.005-.008.008,0,.007-.011.011,0,0-.011.007a.015.015,0,0,0,0,.011h0l0,0s-.008.005-.008.007,0,0-.008,0l-.006,0s0,.007-.008.011l0,.006h0l0,0c-.01,0-.011,0-.011.007a18.658,18.658,0,0,1-2.055,1.747h0l0,0-.008,0-.015.01a.069.069,0,0,0-.018.014l-.006,0-.009,0a.01.01,0,0,1-.006.005h0l0,0-.008.008c-.007,0-.008.005-.008.007h-.007l0,.007s0,0-.008,0a.03.03,0,0,0-.011.007s0,0-.008,0a.007.007,0,0,1,0,.005l-.006,0,0,0c0,.007,0,.007-.012.007l0,0-.008.007a.011.011,0,0,0-.007,0l0,0a.014.014,0,0,1-.007,0l-.008.006-.007,0s0,0-.007,0l0,0s0,0-.008.007,0,0-.011.007l0,0h0s0,0-.007,0l0,0h0l0,0h-.007l-.007,0,0,0a.008.008,0,0,1-.007,0,.007.007,0,0,1-.008,0l0,0s0,0-.008.007l0,0h0s0,0-.007,0l0,0a.016.016,0,0,0-.008,0l-.006,0c-.009,0-.009.008-.009.009l-.006,0s0,0-.008,0l0,.007h-.009l0,0-.009,0-.006.006a.022.022,0,0,1-.011.007l-.008.006c-.006,0-.007,0-.007,0l-.008,0,0,0,0,0-.006,0c-.007,0-.008.005-.008.007l-.009,0,0,0a.028.028,0,0,1-.012.007.016.016,0,0,1-.011.007.007.007,0,0,1,0,.005l-.006,0c-.007,0-.007.007-.007.007l-.008,0s-.007,0-.007.007l-.008,0,0,0-.008,0h0l0,0-.006,0a.015.015,0,0,0-.008,0l-.006,0,0,0s-.008.007-.011.007-.008.007-.011.007a0,0,0,0,0,0,0s0,0-.007,0l0,0s0,0-.008,0-.011.008-.011.011a.022.022,0,0,0-.015.007s0,0-.011.007l0,0-.006,0a.009.009,0,0,1,0,0l-.006,0a.025.025,0,0,0-.01.006l-.01.007a.069.069,0,0,0-.013.009l-.006,0-.009,0-.009.009a.034.034,0,0,0-.013.009s-.007,0-.011.007a.017.017,0,0,0-.008,0l-.006,0-.007,0,0,0,0,0-.006,0,0,0-.006,0a.03.03,0,0,1-.012.007,17.925,17.925,0,0,1-2.491,1.36A.705.705,0,0,1-14381.428-3934.49Zm10.13-1.6a.733.733,0,0,1-.474-.174.749.749,0,0,1-.27-.511.737.737,0,0,1,.168-.544,22.043,22.043,0,0,0,2.119-3.074.753.753,0,0,1,.654-.38.767.767,0,0,1,.369.1.756.756,0,0,1,.282,1.023s-.008.007-.008.011l0,.005s0,.007,0,.009c-.293.512-.61,1.021-.969,1.555l-.012.011,0,.006a.018.018,0,0,1,0,.008.033.033,0,0,0-.008.007l0,.005a.056.056,0,0,0-.007.013l-.009.009,0,.006s0,.007-.007.01-.007.007-.007.011l0,0h0s0,.006-.007.01l0,.006,0,.006,0,0s0,.006-.007.01l0,.005h0l0,.005,0,0s0,.007-.008.01a.025.025,0,0,1,0,.008l0,.006s0,0,0,0a.018.018,0,0,0,0,.006h0l0,0a.011.011,0,0,0,0,0,.015.015,0,0,1,0,.006c0,.006-.007.009-.007.011h0l0,0-.007.01,0,0,0,.007,0,0s0,.007-.008.011l0,0,0,.006,0,0s0,.007-.007.011l0,.006h0l0,0a.033.033,0,0,1-.01.013h0v0l-.007.007,0,0,0,0a.014.014,0,0,0,0,.005h0l0,0,0,0h0l0,0a.039.039,0,0,1-.011.014l0,.005s0,.007,0,.009h0l0,0a.012.012,0,0,0,0,.006h0l0,0-.008.007a.038.038,0,0,1-.011.014.021.021,0,0,1,0,.008l0,.006h0l0,0,0,0-.011.013,0,.007-.008.007,0,.007,0,0,0,.006,0,0h0l0,0,0,.007a.014.014,0,0,0,0,.007l-.011.011c0,.008,0,.011-.007.011l0,.007,0,0,0,.008-.008.008,0,.007-.008.007a.036.036,0,0,1-.007.011l0,.007,0,0-.007.009s0,.006,0,.007a.036.036,0,0,0-.007.009l0,.005a.037.037,0,0,1-.007.011s0,0,0,.007h0l0,0-.006.007a.01.01,0,0,0,0,.007l-.007.007a.009.009,0,0,1,0,.007h0l0,0,0,.006-.008.008a.014.014,0,0,0,0,.007h0l0,0-.007.007s0,0,0,.007l0,0a.01.01,0,0,0,0,.007s0,0,0,.007h0v0h0l0,0c-.007.006-.007.006-.007.01l-.007.007,0,.007,0,0h0l0,0a.03.03,0,0,1-.008.01.01.01,0,0,0,0,.007l-.011.011,0,.007,0,0,0,0,0,0,0,.006a.011.011,0,0,0,0,.008l-.007,0s0,0,0,.006a.01.01,0,0,0,0,.007s0,0,0,.007l0,0-.007.007,0,.006,0,0,0,.005c0,.007,0,.007-.007.01l-.008.007a.033.033,0,0,1-.007.011s0,0,0,.007l0,0h0l0,0,0,0a.017.017,0,0,1,0,.007s0,0,0,.007l-.009,0s0,0,0,.006l-.008.007v0s-.006.007-.006.01h0l0,0-.007.006,0,0s0,.007,0,.007l-.007.008s0,0,0,.007a.014.014,0,0,0,0,.007h0l0,0s0,0-.008,0h0v.005a.012.012,0,0,0,0,.005h0l0,0-.007.006,0,.007,0,0-.007.008s0,0,0,.007a.01.01,0,0,0,0,.007l-.011.011a.014.014,0,0,0,0,.007h0l0,0-.008.007,0,.007-.008.007h0l0,0,0,.007h0l-.006,0,0,.007s0,0,0,.007,0,0,0,.007l-.011.011s0,0,0,.007h0l0,0-.007.007,0,.007,0,0,0,.005,0,.007-.009.011,0,0,0,.007-.007.007,0,0s0,.007,0,.007,0,0,0,.007-.008,0-.008.007,0,.006,0,.007l-.006,0,0,.006a.016.016,0,0,0,0,.008.009.009,0,0,0-.008,0s0,0,0,.007l0,0a.008.008,0,0,1-.007.007l0,0s0,.007-.008.01a.033.033,0,0,1-.007.011l0,0,0,0,0,.006,0,0,0,.007a.005.005,0,0,0,0,0l-.008.007a.037.037,0,0,1-.011.015l0,0s0,.007-.008.007-.007.011-.007.014l-.006,0,0,.01a.018.018,0,0,0-.012.008l0,.006a.021.021,0,0,0,0,.008s-.006,0-.007,0l0,.006,0,0a.017.017,0,0,1-.007.011l0,.005-.006.006s-.008.007-.008.011a.035.035,0,0,1-.011.014l-.011.011a.035.035,0,0,0-.007.015.037.037,0,0,0-.013.011l-.009.011a.053.053,0,0,0-.012.014l0,0,0,.006-.027.031-.007.008-.006.008c-.028.033-.055.066-.079.1A.76.76,0,0,1-14371.3-3936.088Zm-16.973-.911h-.383a.014.014,0,0,0-.011,0h-.175l-.007,0h-.111a.015.015,0,0,0-.011,0h-.08a.013.013,0,0,0-.011,0h-.068a.015.015,0,0,0-.012,0h-.054a.013.013,0,0,1-.011,0h-.058a.015.015,0,0,1-.012,0h-.054l0,0h0l-.006,0h-.047a.014.014,0,0,0-.011,0h-.044a.013.013,0,0,0-.011,0h-.032s-.009,0-.011,0h-.048a.012.012,0,0,0-.011,0h-.032l0,0-.006,0h-.032l-.008,0h-.04a.012.012,0,0,0-.011,0h-.021a.013.013,0,0,1-.011,0h-.032l-.006,0,0,0h-.037s0,0-.011,0h-.021l-.007,0h-.021l-.01,0-.016,0h-.022a.012.012,0,0,0-.011,0h-.021a.013.013,0,0,0-.011,0h-.021a.022.022,0,0,0-.015,0h-.021a.008.008,0,0,0-.008,0h-.025a.012.012,0,0,0-.011,0h-.011a.013.013,0,0,1-.011,0h-.018c-.008,0-.013,0-.015,0h-.022a.014.014,0,0,1-.011,0h-.021l0,0h0l-.006,0h-.021a.015.015,0,0,0-.011,0h-.011s-.009,0-.011,0h-.022a.04.04,0,0,0-.015,0h-.007a.022.022,0,0,1-.015,0h-.021a.009.009,0,0,1-.007,0h-.025a.015.015,0,0,0-.011,0h-.012l-.011,0h-.011s0,0-.007,0h-.021a.022.022,0,0,0-.015,0h-.011l-.006,0,0,0h-.012a.015.015,0,0,1-.011,0h-.021a.013.013,0,0,0-.011,0h-.011a.013.013,0,0,0-.011,0h-.011s-.009,0-.011,0h-.015l-.006,0,0,0h-.011a.015.015,0,0,1-.012,0h-.018a.047.047,0,0,0-.021,0,.053.053,0,0,0-.021,0,.057.057,0,0,0-.022,0,.061.061,0,0,0-.021,0,.068.068,0,0,0-.025,0,.008.008,0,0,1-.007,0h-.021s-.008,0-.015,0a.007.007,0,0,1-.008,0h-.014a.007.007,0,0,1-.008,0h0a.038.038,0,0,1-.02,0h0a.038.038,0,0,1-.018,0h0a.041.041,0,0,1-.019,0h0a.041.041,0,0,1-.019,0h0a.039.039,0,0,1-.019,0h0a.035.035,0,0,1-.018,0h0l-.01,0-.011,0-.011,0-.012,0h-.01a.445.445,0,0,1-.065-.013h0c-.007,0-.013,0-.016,0h0l-.014,0-.012,0h-.008l-.014,0h-.008l-.014,0a.041.041,0,0,0-.019,0,14.66,14.66,0,0,1-1.75-.459l-.043-.016-.044-.016h0a.048.048,0,0,1-.021-.007h0a.041.041,0,0,1-.018-.006.035.035,0,0,1-.016-.006l-.006,0h0a.031.031,0,0,1-.016,0l0,0h0a.038.038,0,0,1-.019-.006l-.012,0-.009,0,0,0h-.007l-.011,0a.007.007,0,0,0-.008,0,.027.027,0,0,0-.014,0,.007.007,0,0,0-.008,0,.013.013,0,0,0-.011,0s0,0-.007,0l-.009,0,0,0h-.009l-.006,0a.017.017,0,0,1-.008,0h-.008l0,0a.011.011,0,0,1-.006,0h-.007l0,0h-.006l-.013,0a.016.016,0,0,0-.009,0l-.013,0a.018.018,0,0,0-.009-.005l-.009,0,0,0a.057.057,0,0,1-.018-.007h-.008l0,0,0,0h-.012l-.006,0a.01.01,0,0,1,0,0h-.008c-.009,0-.011,0-.011-.007a.014.014,0,0,1-.011,0h0l-.006,0s0,0-.007,0h0c-.006,0-.01,0-.01,0h0l-.007,0-.011,0a.014.014,0,0,1-.007,0,.023.023,0,0,0-.011,0l-.006,0,0,0h0l-.006,0,0,0a.007.007,0,0,0-.008,0h0l0,0-.006,0a.013.013,0,0,0-.011,0s0,0-.007,0a.015.015,0,0,0-.012,0,.012.012,0,0,0-.011,0l0,0a.011.011,0,0,1-.006,0h-.007l0,0s-.006,0-.007,0h0a.009.009,0,0,1-.009,0h0a.012.012,0,0,1-.01,0s0,0-.007,0l0,0h0l-.006,0,0,0h0l0,0-.006,0,0,0-.008,0a.012.012,0,0,0-.011,0,.012.012,0,0,0-.011,0s0,0-.007,0a.007.007,0,0,0-.008,0l-.011,0a.013.013,0,0,0-.011,0,.013.013,0,0,0-.007,0l0,0s0,0-.006,0h0a.012.012,0,0,1-.009,0h0l-.007,0-.007,0h-.006l0,0h0l-.006,0,0,0a.013.013,0,0,0-.011,0h0l0,0-.006,0h0s-.006,0-.006,0h0a.011.011,0,0,1-.01,0h0l0,0-.006,0a.014.014,0,0,1-.008,0h-.007l0,0s-.006,0-.01,0a.055.055,0,0,0-.018-.007h0l0,0h0s0,0-.006,0h0a.009.009,0,0,1-.009,0h0a.011.011,0,0,1-.008,0h0l0,0-.006,0a.012.012,0,0,0-.011,0,.012.012,0,0,0-.008,0c-.009,0-.011,0-.011-.007h0c-.006,0-.007,0-.01,0h0l-.007,0,0,0-.006,0-.007,0-.01,0-.013-.006h0a.021.021,0,0,1-.011,0l-.006,0-.007,0-.012,0-.01,0-.012-.006h0a.026.026,0,0,1-.017-.007l-.006,0a.038.038,0,0,0-.017,0l-.009-.006-.009-.005a13.551,13.551,0,0,1-1.516-.781.751.751,0,0,1-.257-1.027.759.759,0,0,1,.646-.365.75.75,0,0,1,.381.1,12.491,12.491,0,0,0,6.391,1.754,12.443,12.443,0,0,0,6.835-2.032,12.566,12.566,0,0,0,4.535-5.266.748.748,0,0,1,.684-.437.725.725,0,0,1,.307.069.742.742,0,0,1,.394.42.743.743,0,0,1-.021.575c-.173.377-.359.739-.554,1.074a.052.052,0,0,1-.015.025.026.026,0,0,1,0,.012.075.075,0,0,0-.009.017l-.012.022-.009.016c-.011.018-.021.037-.03.056-.008,0-.008,0-.008.007a.04.04,0,0,1-.014.018.027.027,0,0,1-.009.017l-.006.008a.021.021,0,0,1,0,.013.025.025,0,0,0-.007.016c-.011.007-.011.011-.011.018l0,.008h-.008l0,.006h0a.037.037,0,0,1-.009.016l-.009.016-.006.01a.1.1,0,0,0-.014.025.114.114,0,0,1-.011.022.029.029,0,0,0-.015.025l-.008.009a.051.051,0,0,1-.014.016.03.03,0,0,1-.012.021s0,0,0,.007,0,0,0,.006a.02.02,0,0,0-.007.012s0,0-.008.007l0,0a.028.028,0,0,0,0,.013.031.031,0,0,0-.011.022h-.009l0,.007,0,.005-.009.012s0,0,0,.007a.012.012,0,0,1,0,.007c0,.005-.007.008-.007.011s0,0-.008.007a.015.015,0,0,0,0,.011l0,.007a.028.028,0,0,0-.011.022h-.008l0,0a.018.018,0,0,1,0,.012.037.037,0,0,0-.007.009s0,0,0,.008,0,0-.006.007l-.006,0h0v.008a.028.028,0,0,0-.011.018c-.008,0-.008.007-.008.007h0l0,0c0,.009-.006.012-.011.014l0,.007a.019.019,0,0,1,0,.013.033.033,0,0,0-.007.009s0,0-.008.008a.013.013,0,0,1,0,.007l0,.011c-.008.007-.011.01-.011.018s-.008,0-.008,0l0,.007,0,.006a.023.023,0,0,1-.008.009l0,0v.007s0,0-.006.007l0,0v.006l-.009,0,0,0a.062.062,0,0,0,0,.01v.007h-.008a.035.035,0,0,1-.011.018s0,0,0,.007a.044.044,0,0,0-.015.018v.007c-.007,0-.011.007-.011.011l-.007.007,0,.007a.031.031,0,0,0,0,.011c-.008,0-.008.007-.008.007a.054.054,0,0,1-.01.015l0,0h0v.007l0,.005c-.006,0-.007,0-.007.005h0l0,0v.006l-.009,0a.033.033,0,0,0,0,.015h-.008l0,.006s0,.007-.01.012l-.006.005h0v.007s0,0-.006.007l-.006,0h0v.007c-.009,0-.009,0-.009.009l-.007.007c0,.007,0,.007-.008.011s0,0,0,.007,0,0,0,.006,0,0,0,.005l0,.008c-.007,0-.011.007-.011.01s0,0,0,.007v.007h-.006l0,0h0s0,0,0,.006-.008.005-.008.007l0,.008c-.008,0-.008.007-.008.01s-.007,0-.007.007v.006c-.007,0-.009,0-.009,0s0,0,0,.007h0l0,0s0,0,0,0a.045.045,0,0,0-.007.01.027.027,0,0,1,0,.009h0l0,0,0,.007s0,0-.008.007l0,.011s-.008,0-.008,0-.007.008-.007.011v.006c-.009,0-.009,0-.009,0l0,.011s-.008,0-.008,0l0,.008c-.008,0-.008.006-.008.007s0,0,0,.007l0,0h0v.006c-.009,0-.009,0-.012,0v.011h-.006l-.009.01,0,.007-.006.007v.007l-.008,0c0,.01,0,.011-.011.011s0,.007,0,.011l0,0a.007.007,0,0,1-.008.007l0,0v.01l-.009,0h0l0,.006,0,.006h0l0,0-.007.007v.006l-.009,0,0,0a.013.013,0,0,1-.007.01h0l0,0,0,0c0,.006,0,.006,0,.01h0l0,0,0,.007s0,0-.008,0l0,0v.007a.03.03,0,0,0-.011.007l0,.007,0,0a.009.009,0,0,0,0,.007l0,.008c-.008,0-.008.006-.008.007l0,.011s-.008,0-.008,0l-.007.007v.007c-.006,0-.008,0-.009,0l0,.01h-.008a.015.015,0,0,1,0,.007l0,0,0,0h0c0,.006,0,.006,0,.01l0,.008-.008,0c0,.011,0,.011-.011.015l-.007.008a.011.011,0,0,0,0,.007h0l0,0s0,0,0,.007-.008.006-.008.007l0,.008s-.007,0-.008.007-.007.007-.007.011l-.007.007,0,.011c-.008,0-.008,0-.011.007h0l0,0,0,0,0,.006,0,0v.006l-.006,0s-.006,0-.006.005,0,.007-.008.007l0,.005-.006.009,0,0,0,.008s0,.007-.008.007a.015.015,0,0,0,0,.011c-.008,0-.008,0-.008.007s-.007.007-.007.007l-.007.007,0,0v.007c-.008,0-.008,0-.011.007a.012.012,0,0,1,0,.006l0,.006-.007.007v.007h-.008l0,.008a.051.051,0,0,0-.015.018s0,0,0,.007-.007.007-.007.007l-.007.007,0,0v.007c-.008,0-.009,0-.011.007l-.008.007a.025.025,0,0,1,0,.008l0,.011h-.008l0,.007h0l0,0s0,.005,0,.006a.02.02,0,0,1-.008.008s0,.007-.007.007,0,.007,0,.011-.008.006-.008.007l-.007.007,0,0a.01.01,0,0,0,0,.007l0,.008a.033.033,0,0,0-.01.008.018.018,0,0,1-.009.006s0,.008-.007.011l-.008.007,0,.007s0,0-.007.007a.014.014,0,0,0-.006.006.014.014,0,0,0,0,.005h0l0,0c-.006.007-.006.007-.006.01s-.008.007-.011.007v.006c-.007,0-.009,0-.009,0l0,0h0s0,.007-.007.009l0,0c0,.008,0,.011-.01.011a.011.011,0,0,0,0,.007s-.007,0-.008.007l-.011.011,0,0,0,0a.014.014,0,0,1,0,.008l0,0a.015.015,0,0,0,0,.005s-.008,0-.008.008a.026.026,0,0,0-.007.007s0,.006-.008.008a.011.011,0,0,0,0,.007l-.007.006a.041.041,0,0,0-.012.012.035.035,0,0,1-.015.014.015.015,0,0,1,0,.007.06.06,0,0,0-.015.018c-.007,0-.008.005-.008.007a.033.033,0,0,1-.008.01l-.007,0h0l0,.006a.037.037,0,0,0-.012.012l-.008.007c0,.008,0,.011-.014.014a.012.012,0,0,1,0,.007h0l0,0a.018.018,0,0,0-.007.014h0s-.006,0-.006.005-.008.006-.008.007l-.007.007a.023.023,0,0,1,0,.007.018.018,0,0,0-.006.011c-.006,0-.008,0-.009,0l-.007.006h0l-.01.01h0l0,0,0,0a.032.032,0,0,1-.011.018.009.009,0,0,0-.006,0,.042.042,0,0,1-.012.011v.007h-.008c0,.009,0,.011-.011.014a.023.023,0,0,1-.008.008c-.007.008-.01.011-.01.018l-.006,0s0,0,0,0l-.007.007-.008.007a.022.022,0,0,1,0,.007.019.019,0,0,0-.006.011c-.006,0-.008,0-.009,0l-.009.01-.008.007,0,0,0,0a.047.047,0,0,1-.014.013.158.158,0,0,1-.022.025c-.006.008-.009.012-.014.014l-.008.007a.029.029,0,0,1-.015.014.094.094,0,0,1-.021.025l-.011.011-.011.011a.043.043,0,0,1-.011.014l-.009.008a.074.074,0,0,0-.017.018l-.007.007,0,.005a.028.028,0,0,1-.008.01.009.009,0,0,0-.006,0,.047.047,0,0,1-.012.011l0,0-.006,0h0c0,.009,0,.012-.014.015a.008.008,0,0,1-.008.007.046.046,0,0,1-.014.017.248.248,0,0,1-.022.023l-.006.006-.006.006-.01.009a.035.035,0,0,1-.011.011l0,0,0,.005-.017.018-.021.023-.01.01-.013.012-.039.036a.5.5,0,0,1-.058.058.072.072,0,0,1-.017.02.564.564,0,0,0-.042.042,14.1,14.1,0,0,1-5.605,3.349l-.017.005-.016.005-.073.021-.093.026a.36.36,0,0,1-.062.018.054.054,0,0,1-.022.007.216.216,0,0,1-.028.011.109.109,0,0,0-.031.007l-.013,0-.011,0a.1.1,0,0,0-.028.007.114.114,0,0,1-.033.007.12.12,0,0,0-.027.011h-.01l-.014,0-.031.01-.012,0-.011,0s0,0-.011,0a.023.023,0,0,1-.01,0l-.009,0h-.011l-.011,0-.01,0-.016,0-.015,0-.013,0a.021.021,0,0,0-.009,0h-.011l-.011,0-.011,0a.012.012,0,0,0-.011,0l-.012,0-.011,0-.011,0-.01,0h-.008l-.013,0-.008,0a.016.016,0,0,0-.013,0h-.008l-.014,0,0,0-.006,0h-.009l-.013,0-.008,0-.013,0h-.009l-.012,0-.009,0h-.012l-.011,0-.01,0c-.006,0-.009,0-.012,0h-.011a.016.016,0,0,1-.012,0l-.011,0-.011,0s0,0-.007,0a.053.053,0,0,1-.021,0,.015.015,0,0,1-.012,0l0,0-.006,0h-.011a.013.013,0,0,1-.011,0l-.006,0,0,0h-.011l-.008,0-.013,0h-.012l-.007,0-.012,0h-.015s-.008,0-.011,0l-.006,0,0,0h-.007l-.011,0a.015.015,0,0,0-.012,0h-.008l-.014,0h-.011l-.01,0-.012,0h-.011a.014.014,0,0,1-.011,0s-.008,0-.008,0h-.015a.012.012,0,0,1-.011,0,.015.015,0,0,0-.011,0c-.009,0-.015,0-.018,0h-.011s-.008,0-.015,0a.012.012,0,0,0-.008,0h-.011l0,0-.006,0h-.011l0,0a.037.037,0,0,0-.017,0h-.012l-.007,0h-.016a.012.012,0,0,1-.011,0,.014.014,0,0,0-.011,0h-.011a.045.045,0,0,1-.021,0,.021.021,0,0,1-.011,0l-.011,0-.008,0c-.008,0-.011,0-.011,0h-.015l-.007,0h-.015a.013.013,0,0,1-.011,0h-.011l-.01,0a.018.018,0,0,0-.009,0h-.011a.034.034,0,0,0-.013,0l-.009,0a.013.013,0,0,0-.011,0h-.011l-.007,0h-.015a.015.015,0,0,1-.011,0h-.012a.043.043,0,0,1-.021,0,.013.013,0,0,1-.011,0h-.011a.013.013,0,0,1-.011,0h-.011a.014.014,0,0,1-.011,0,.012.012,0,0,0-.011,0h-.006a.037.037,0,0,0-.017,0h-.011a.014.014,0,0,0-.011,0h-.011a.013.013,0,0,0-.011,0h-.011l-.007,0h-.015l-.006,0-.006,0h-.011l-.01,0-.012,0a.013.013,0,0,0-.011,0h-.021a.014.014,0,0,1-.011,0h-.011a.015.015,0,0,1-.012,0h-.011a.012.012,0,0,1-.011,0h-.011a.014.014,0,0,1-.011,0h-.011l0,0-.006,0h-.011l-.007,0h-.016a.014.014,0,0,0-.011,0h-.011l-.011,0-.011,0h-.011a.013.013,0,0,1-.011,0h-.015l-.007,0h-.012c-.007,0-.007,0-.011,0h-.025l-.007,0h-.011a.028.028,0,0,0-.015,0h-.021a.012.012,0,0,1-.008,0h-.011l-.01,0h-.016l-.011,0-.011,0h-.011a.018.018,0,0,0-.011,0h-.018a.03.03,0,0,1-.015,0h-.011a.015.015,0,0,0-.012,0h-.021a.047.047,0,0,1-.021,0h-.011a.013.013,0,0,1-.011,0h-.011a.012.012,0,0,0-.011,0h-.022a.014.014,0,0,0-.011,0h-.021l-.006,0,0,0h-.021l-.007,0h-.032l-.008,0h-.022l0,0-.006,0h-.021l-.006,0,0,0h-.021a.012.012,0,0,0-.011,0h-.022a.014.014,0,0,0-.011,0h-.032s-.007,0-.015,0h-.023l-.009,0h-.033a.012.012,0,0,1-.011,0h-.021a.013.013,0,0,0-.011,0h-.032l-.007,0h-.037a.013.013,0,0,1-.011,0h-.032a.025.025,0,0,0-.011,0h-.036l-.007,0h-.037a.014.014,0,0,0-.011,0h-.043a.015.015,0,0,0-.008,0h-.051l0,0-.006,0h-.047s0,0-.007,0h-.047a.012.012,0,0,0-.011,0h-.059s0,0-.007,0h-.069l0,0-.006,0h-.068s-.007,0-.007,0h-.084a.014.014,0,0,0-.007,0h-.115l-.006,0-.006,0h-.17A.018.018,0,0,1-14388.271-3937Zm-11.909-.589a.745.745,0,0,1-.51-.2,19.1,19.1,0,0,1-1.8-1.928c0-.005,0-.006,0-.007l-.006,0s0-.007-.008-.01a.015.015,0,0,1,0-.011.031.031,0,0,1-.015-.011s0-.007-.008-.011a.015.015,0,0,1,0-.011c-.008,0-.011-.007-.011-.011s0-.007-.012-.011a.015.015,0,0,1,0-.011c-.008,0-.011-.007-.011-.011a.016.016,0,0,1-.008-.006c-.007-.008-.007-.008-.007-.012l-.011-.011c0-.005,0-.006,0-.008l-.006,0s0-.007-.008-.01-.007-.008-.007-.011a.021.021,0,0,0-.007-.007l0,0s0-.007-.008-.011a.015.015,0,0,1,0-.011l-.011-.007h0l0,0s0-.007-.008-.01a.053.053,0,0,0-.016-.021l0-.006,0-.006a.015.015,0,0,1,0-.011c-.006,0-.011-.006-.011-.011-.074-.092-.128-.163-.174-.231-.008,0-.011-.007-.011-.011s0,0,0-.006l-.006,0s0-.007-.008-.01l0-.006,0-.005-.015-.019c-.006-.008-.012-.016-.019-.024a.015.015,0,0,1,0-.011c-.008,0-.011-.007-.011-.011a.333.333,0,0,1-.029-.038l-.011-.014-.019-.024a.015.015,0,0,1,0-.011c-.007,0-.011-.007-.011-.011s0,0,0-.005,0,0,0-.006-.007-.008-.007-.011a.212.212,0,0,1-.025-.033s0,0,0-.006l-.006-.005s0-.007-.008-.011a.073.073,0,0,0-.007-.013.117.117,0,0,1-.011-.019l-.014-.02-.05-.07c-.051-.072-.1-.144-.153-.219,0,0,0,0,0-.006s0,0,0-.005-.007-.008-.007-.011,0,0,0-.006l-.006-.005s0-.007-.008-.011l0,0a.015.015,0,0,0,0-.006s0-.007-.008-.011a.015.015,0,0,1,0-.011c-.006,0-.008-.005-.009-.008s0-.01-.01-.013,0-.006,0-.007l0-.008s-.008-.007-.008-.011a.015.015,0,0,1,0-.011c-.008,0-.011-.007-.011-.011a.007.007,0,0,0,0,0s0,0,0-.006a.011.011,0,0,1,0-.006l0-.005s0,0-.006-.007l0,0c-.229-.343-.45-.7-.677-1.1a.017.017,0,0,0-.006-.013v-.013c-.008,0-.011-.007-.011-.011a.006.006,0,0,1,0,0,.041.041,0,0,1,0-.01l0,0a.015.015,0,0,0,0-.006l0-.005,0-.005a.015.015,0,0,1,0-.011.014.014,0,0,0,0-.009l0-.006c0-.006-.007-.008-.007-.011a.036.036,0,0,1-.011-.021.038.038,0,0,1-.009-.012l-.006-.008,0-.005h0l0-.006,0-.008a.022.022,0,0,1,0-.012c0-.005-.007-.008-.007-.011s0-.007-.008-.011l0-.006a.019.019,0,0,0,0-.008.012.012,0,0,0,0-.006l-.007-.01a.032.032,0,0,1,0-.006s-.008-.007-.008-.011a.033.033,0,0,1,0-.015.013.013,0,0,1-.009-.008l-.006-.008,0-.005a.016.016,0,0,0,0-.009v-.006l0-.011c-.006,0-.008-.005-.009-.008a.1.1,0,0,0-.017-.028c-.013-.027-.026-.052-.04-.078l-.014-.026-.019-.033,0,0a.061.061,0,0,1-.009-.021l0-.005,0-.005,0,0a.019.019,0,0,0,0-.006v-.006h0a.012.012,0,0,1,0-.006l0,0v-.006h0l0-.005s0-.007-.008-.011,0-.007-.007-.011a.014.014,0,0,0,0-.009.019.019,0,0,1,0-.006.009.009,0,0,1,0,0,.014.014,0,0,1,0-.006l0-.007,0-.008a.008.008,0,0,1,0-.007.013.013,0,0,0,0-.009s0,0,0-.006l0,0,0-.007a.059.059,0,0,0,0-.01l0-.006h0a.012.012,0,0,1,0-.011l0,0a.012.012,0,0,0,0-.008h0l0,0a.01.01,0,0,0,0-.01c0-.007,0-.008,0-.011s-.007-.01-.007-.011l0-.007h0a.014.014,0,0,1,0-.007l0,0v-.007l-.006-.007,0-.011a.014.014,0,0,1,0-.007l0,0s0,0,0-.008h0l0,0s0-.006,0-.01l0-.008,0-.006v-.008s0,0-.008-.007v-.008c-.007-.007-.007-.007-.007-.01s0,0,0-.007l0,0a.01.01,0,0,0,0-.006s0,0,0-.008V-3943l0,0s0,0,0-.007a.014.014,0,0,1,0-.007l0,0s0-.007,0-.007,0,0,0-.007a.026.026,0,0,1,0-.014c-.007-.007-.007-.007-.007-.011l0,0s0-.007,0-.007,0,0,0-.007a.009.009,0,0,0,0-.007.015.015,0,0,0,0-.011h0l0,0a.032.032,0,0,1,0-.009c0-.007,0-.008,0-.011s-.007-.01-.007-.011v-.007s0,0-.008-.007l0-.007s0,0,0,0a.014.014,0,0,0,0-.009.022.022,0,0,1,0-.006l0,0,0-.006a.029.029,0,0,1,0-.015l0,0a.016.016,0,0,1,0-.007l0,0s0-.007,0-.007a.016.016,0,0,0,0-.009l0-.008a.012.012,0,0,0,0-.008.032.032,0,0,0,0-.008.014.014,0,0,0,0-.007c0-.007,0-.008,0-.011a0,0,0,0,0,0,0h0v0h0v-.006l0-.007,0,0a.016.016,0,0,0,0-.009v-.006h0a.008.008,0,0,0,0-.009l0-.007h0l0,0v-.013l-.011-.011a.026.026,0,0,1,0-.014l0,0a.009.009,0,0,0,0-.008l0-.009,0-.005,0-.005v-.006h0l0,0a.745.745,0,0,1-.023-.573.742.742,0,0,1,.389-.421.757.757,0,0,1,.314-.072.776.776,0,0,1,.688.434,16.323,16.323,0,0,0,3.757,5.154.736.736,0,0,1,.237.522.747.747,0,0,1-.2.538A.742.742,0,0,1-14400.18-3937.589Zm-7.377-1.24a.744.744,0,0,1-.647-.362,23.862,23.862,0,0,1-1.219-2.325.015.015,0,0,0,0-.01l0-.008a.017.017,0,0,0-.008-.014.108.108,0,0,1,0-.01.054.054,0,0,0-.006-.015.032.032,0,0,0-.007-.015.015.015,0,0,0,0-.009.022.022,0,0,1,0-.006l0,0a.009.009,0,0,0,0-.007l0-.008a.04.04,0,0,1,0-.011.035.035,0,0,0,0-.011.047.047,0,0,1,0-.011.027.027,0,0,1,0-.007l0,0a.012.012,0,0,0,0-.005h0v-.005a0,0,0,0,0,0,0,.011.011,0,0,0,0-.011h0l0,0v-.006s0,0,0-.007a.014.014,0,0,1,0-.007s0,0,0-.007l0-.007s0,0,0-.008,0,0,0-.007,0,0,0-.007v-.007s0,0,0-.007l0-.007,0-.007,0-.007a.01.01,0,0,0,0-.008v-.007l-.007-.007v-.007s0,0,0-.007a0,0,0,0,0,0,0h0v-.005h0v-.005a.009.009,0,0,0,0-.007.009.009,0,0,0,0-.007v-.007s0,0,0-.007l0-.009a.019.019,0,0,1,0-.006,0,0,0,0,0,0,0h0v-.005h0v-.005a.045.045,0,0,0,0-.009.012.012,0,0,0,0-.005l0-.01,0,0a.014.014,0,0,0,0-.009.019.019,0,0,1,0-.006l0-.01,0-.005a.025.025,0,0,1,0-.014l0,0a.012.012,0,0,0,0-.005h0v-.005a0,0,0,0,0,0,0h0l0,0a.028.028,0,0,1,0-.01l-.006-.013a.058.058,0,0,0,0-.013.035.035,0,0,1-.007-.018c-.1-.239-.205-.489-.3-.741a.741.741,0,0,1,.017-.574.75.75,0,0,1,.418-.4.761.761,0,0,1,.268-.047.744.744,0,0,1,.7.481,21.515,21.515,0,0,0,1.635,3.356.747.747,0,0,1,.085.567.751.751,0,0,1-.342.464A.737.737,0,0,1-14407.557-3938.829Zm9.073-2.756a.767.767,0,0,1-.571-.257v-.007l-.007-.008c0-.005-.006-.006-.008-.006a.011.011,0,0,0-.011-.007.191.191,0,0,0-.033-.045l-.01-.012,0-.006h0l0,0s0-.007-.01-.007v-.008l-.028-.031,0,0-.019-.022c0-.006,0-.007-.007-.007l0-.007-.016-.018-.021-.024a1.169,1.169,0,0,1-.079-.1l-.008-.007,0-.008h-.007a.175.175,0,0,0-.047-.058v-.007l0-.006,0-.005a.315.315,0,0,1-.038-.046l-.009-.011c-.008,0-.008,0-.008-.008l0-.008c0-.006-.006-.007-.008-.007-.017-.021-.035-.046-.051-.069h0l0,0-.011-.011a.534.534,0,0,0-.047-.062.015.015,0,0,1,0-.007c-.007,0-.008,0-.008-.007l-.007-.008a.5.5,0,0,1-.044-.06l-.011-.007-.025-.038-.007-.01a.228.228,0,0,1-.019-.028l-.006,0h0l0,0-.014-.02a.279.279,0,0,1-.033-.049l-.007-.007s0,0-.008-.007a.184.184,0,0,0-.047-.062v-.007l0-.006,0-.005s-.007,0-.007-.007l-.02-.027a.223.223,0,0,1-.027-.041l-.027-.04-.026-.036-.007,0v-.008a.012.012,0,0,1,0-.007h-.008l-.009-.012-.012-.019-.013-.02-.007-.01s0-.007,0-.007-.008-.007-.008-.007l-.011-.019a.674.674,0,0,1-.04-.06c-.008-.01-.014-.02-.021-.029l-.006-.009c-.011-.014-.02-.028-.031-.042v-.007l-.006-.006a.326.326,0,0,1-.03-.044l-.009-.012-.006-.01,0-.008c-.007,0-.007-.006-.007-.007l-.01-.019a.257.257,0,0,0-.041-.053v-.007s0-.007-.011-.011-.016-.027-.023-.04l0-.005-.01-.017a.011.011,0,0,0,0-.006h0v0h-.008s0,0,0-.007v-.007l-.036-.058,0-.008h-.007v-.008l0-.006c-.008,0-.008-.007-.008-.011a.372.372,0,0,1-.033-.05l-.007-.008v-.007l0-.008c-.007,0-.007,0-.007-.007a.377.377,0,0,0-.022-.036l-.014-.022v-.007l-.011-.007v-.011l-.007-.007a.139.139,0,0,0-.033-.047v-.011s0,0-.01-.007v-.008l0-.007s-.007,0-.008,0v-.007a.112.112,0,0,1-.015-.021l0-.006a.089.089,0,0,0-.011-.019.013.013,0,0,0,0-.006h0l0,0v-.007c0-.005,0-.007-.007-.007l0-.007h0l0,0v-.007l-.013-.016,0-.005a.142.142,0,0,1-.01-.019.013.013,0,0,0,0-.007s0,0-.008,0v-.008l0-.007c-.007,0-.007-.006-.007-.007a.015.015,0,0,0,0-.011c-.012-.018-.022-.032-.033-.047v-.011l0-.008s-.007-.007-.012-.007v-.011l0-.008-.008-.011,0-.008a.08.08,0,0,1-.013-.02.018.018,0,0,0,0-.006h0l0,0v-.007c0-.005,0-.007-.011-.007v-.011l0-.008-.007,0h0l0,0a.105.105,0,0,0-.021-.043v-.007l0-.007-.012-.011v-.007a.014.014,0,0,0,0-.006l-.009,0a.133.133,0,0,0-.025-.047v-.011s0,0,0-.007-.008,0-.008,0v-.007s0,0,0-.008,0,0-.008-.007a.082.082,0,0,0-.007-.018.154.154,0,0,1-.011-.026h-.008v-.008s0-.007,0-.007l0-.006h0l0,0s0,0,0-.007a.015.015,0,0,0,0-.011s0,0,0,0l-.008-.013,0-.007a.058.058,0,0,1-.007-.016s0-.007,0-.007-.008-.007-.008-.011v-.007a.02.02,0,0,0-.011-.011v-.008a.013.013,0,0,0,0-.007l-.012-.023,0-.009-.006-.012a.012.012,0,0,1,0-.007h0s-.008,0-.008,0v-.007s0,0,0-.008l-.009-.007c0-.007,0-.007,0-.01v-.008a.105.105,0,0,1-.013-.019.059.059,0,0,0-.009-.016s0,0,0-.007v-.007l0,0s-.007,0-.007-.007v-.007l0-.007s-.007,0-.008,0v-.007c0-.006,0-.007,0-.007a.16.16,0,0,1-.013-.031l0-.005h-.008v-.008c0-.006,0-.007,0-.007s0-.007,0-.007l0-.007v-.008s0,0,0-.007h-.008v-.006l0-.012a.036.036,0,0,0,0-.008.029.029,0,0,1-.006-.014.015.015,0,0,1,0-.011h-.008v-.008l0,0v-.007s0,0-.008-.007l0-.007v-.011l0-.008-.007,0a.043.043,0,0,0-.014-.033v-.007l0-.008s0,0-.008,0v-.014l0,0s0,0-.007-.007v-.008l0-.008c-.009-.014-.013-.021-.013-.028s0,0,0-.007h0c-.006,0-.007,0-.007,0v-.007s0,0,0-.008l-.009-.007v-.022c-.007,0-.007,0-.007-.007l0,0v-.008a.022.022,0,0,0-.006-.011c0-.005,0-.008,0-.01s0-.007,0-.007,0-.007-.008-.011l0-.007v-.011l0-.007s-.007,0-.008,0v-.018a.022.022,0,0,1-.012-.019l0-.007s0,0-.008-.007a.011.011,0,0,0,0-.007v-.011a.014.014,0,0,0,0-.007s0,0-.009,0v-.015c0-.007,0-.007-.011-.01a.034.034,0,0,0,0-.007.047.047,0,0,0-.008-.017l-.006-.009v-.007c0-.008,0-.008,0-.011l-.009-.007v-.011l0-.007c-.008-.008-.008-.008-.008-.011l0,0v-.007a.028.028,0,0,0-.006-.013.028.028,0,0,1-.006-.013v-.007c-.01-.008-.011-.01-.011-.011v-.015c0-.007,0-.007-.011-.01l0-.007v-.011a.013.013,0,0,0,0-.006h0l0,0a.031.031,0,0,1-.008-.013l0-.005c-.009-.01-.009-.01-.009-.014l0-.007v-.011c-.007,0-.008-.006-.008-.007a0,0,0,0,0,0,0v-.014l0,0s0,0-.007-.007v-.011a.031.031,0,0,0,0-.008v-.007h0c-.006-.005-.008-.007-.008-.008l0,0v-.014s-.007,0-.008,0,0,0,0-.007v-.018c0-.005,0-.006-.007-.007l0-.007v-.008l0-.007a.011.011,0,0,0,0-.01s0,0,0-.005l0-.007v-.011l0,0s0,0-.008,0v-.011c0-.007,0-.007,0-.007v-.008l-.008,0,0-.008v-.018a.019.019,0,0,1-.012-.018v-.008s0,0,0-.007,0,0-.008,0v-.011c0-.006,0-.007,0-.007v-.011h0s-.007,0-.007,0l0,0v-.014s0,0-.008-.007,0,0,0-.006l0-.012c0-.007,0-.007,0-.007v-.008h0s-.007,0-.007,0v-.011l0-.007v-.008s-.008,0-.008,0,0-.007,0-.011v-.007a.014.014,0,0,0,0-.011c-.008-.008-.008-.011-.008-.015v-.007l0-.007s0,0-.008,0V-3946l0-.007v-.011l-.008,0s0,0,0-.008v-.018l0,0s0,0-.008-.008v-.011l0-.008v-.007s0,0,0,0l0-.007,0-.007v-.008a.007.007,0,0,0-.008-.007v-.008l0,0v-.011l0-.008,0-.007c-.007,0-.007,0-.007-.007v-.011l0,0v-.007c-.007,0-.008-.006-.008-.007s0,0,0-.007v-.014c-.007,0-.008-.006-.008-.007s0,0,0,0v-.018a.015.015,0,0,1,0-.011s0,0-.008,0v-.008l0,0v-.021h0c-.006,0-.007,0-.007,0l0,0v-.021l0,0s0,0-.008,0v-.018c0-.007,0-.007,0-.011s-.008-.008-.008-.011l0,0v-.014c-.008-.007-.008-.007-.008-.011s0-.008,0-.011v-.014l0,0c0-.005,0-.006,0-.007l0-.007v-.008a.012.012,0,0,0,0-.006h0v0c0-.006,0-.007,0-.007l0-.007,0-.007v-.019h0s-.008,0-.008,0,0,0,0-.007v-.015l0-.007v-.008h0s-.008,0-.008,0a.017.017,0,0,0,0-.011v-.018s0,0-.008,0v-.008l0-.006v-.011l0-.008,0-.007h0c-.006,0-.006,0-.006-.007v-.007c0-.007,0-.011,0-.011s0-.011-.008-.014l0-.007v-.022l-.008,0v-.008l0-.006v-.011c0-.007,0-.008,0-.011s-.008-.006-.008-.007v-.014a.014.014,0,0,0,0-.006h0v0c0-.007,0-.007-.008-.011l0-.007v-.022l-.008,0v-.008l0,0v-.015l0-.008,0-.007a.009.009,0,0,1-.007-.01.012.012,0,0,0,0-.007v-.022l-.008,0c0-.007,0-.007,0-.011v-.014l0-.008,0-.007s-.007,0-.007-.007v-.011a.017.017,0,0,0,0-.011v-.01s-.008,0-.008,0l0-.008v-.018c0-.008,0-.008-.008-.011a.034.034,0,0,0,0-.007l0-.008v-.014a.026.026,0,0,1,0-.015h-.008v-.011a.012.012,0,0,1,0-.007v-.022c-.007,0-.008,0-.008,0s0-.007,0-.011v-.014c0-.006,0-.007,0-.007l0-.007a.011.011,0,0,0,0-.007v-.022l0,0v-.007l-.008,0v-.008l0-.006v-.022c-.008-.008-.008-.008-.008-.011a.015.015,0,0,1,0-.011.026.026,0,0,0-.008-.022.012.012,0,0,0,0-.011v-.018a.016.016,0,0,0,0-.01v-.011l-.008,0v-.008l0-.01v-.008c0-.007,0-.011-.008-.014a.019.019,0,0,0,0-.011v-.018l0-.008,0-.007s0,0,0,0l0-.007v-.008l0,0v-.018s0-.007-.008-.011a.018.018,0,0,0,0-.011v-.025s0,0-.008,0v-.011l0,0v-.027l0-.01s-.007,0-.008,0v-.011a.015.015,0,0,1,0-.011v-.018c-.008-.007-.008-.01-.008-.011a.031.031,0,0,1,0-.011v-.022a.018.018,0,0,0,0-.006h0l0,0a.011.011,0,0,0,0-.005.012.012,0,0,1,0-.006v-.022a.014.014,0,0,0,0-.006v-.012s0,0,0,0l0-.007h0l0-.005v-.028c-.008,0-.008-.007-.008-.011a.056.056,0,0,1,0-.022v-.011l0-.008,0-.007s0,0-.008-.007v-.008a.03.03,0,0,1,0-.01v-.022c0-.006,0-.007,0-.007l0-.007v-.006h0v-.035h0s-.008,0-.008,0v-.007l0,0v-.029a.011.011,0,0,0,0-.007.036.036,0,0,1-.009-.026.015.015,0,0,1,0-.011v-.018a.014.014,0,0,0-.008-.011V-3948l0-.01v-.022c-.008,0-.008-.007-.008-.011a.013.013,0,0,0,0-.006h0l0,0v-.032l0-.007v-.008s0,0-.008,0v-.011l0,0v-.032a.018.018,0,0,0,0-.006h0l0,0v-.008s0,0,0-.007v-.025l0-.008,0-.007v-.007h0c-.006,0-.007,0-.007,0v-.007a.056.056,0,0,1,0-.022v-.022c-.008-.007-.008-.007-.008-.011a.014.014,0,0,0,0-.011v-.029a.01.01,0,0,0,0-.009s0,0,0-.005a.017.017,0,0,0,0-.011v-.032c0-.006,0-.007,0-.007v-.011c-.008-.007-.008-.01-.008-.011v-.011a.033.033,0,0,1,0-.014v-.032h-.008v-.008c0-.007,0-.011,0-.011v-.032c0-.007,0-.007-.008-.011v-.011c0-.007,0-.007,0-.011v-.032l0-.008v-.014c0-.006,0-.007,0-.007l0-.007v-.008a.016.016,0,0,1,0-.011v-.032c0-.006,0-.007,0-.007l0-.007v-.008l0,0v-.04l0-.006h0l0,0a.04.04,0,0,0,0-.011.04.04,0,0,1,0-.011v-.011l0-.008v-.047l-.008,0v-.008a.014.014,0,0,0,0-.01v-.043c0-.006,0-.007,0-.007l0-.007v-.008a.014.014,0,0,0,0-.006h0v-.048c0-.007,0-.008,0-.011v-.011s0,0-.008,0v-.018c0-.008,0-.008,0-.011v-.047s0-.007-.008-.007v-.022h0l0,0v-.05a.037.037,0,0,1-.008-.025.013.013,0,0,1,0-.011v-.051l0,0v-.021s0-.007-.008-.011v-.022l0,0v-.061c-.008,0-.008-.007-.008-.011v-.011l0-.008v-.068s0,0-.008,0v-.007a.049.049,0,0,0,0-.025v-.03s0,0,0-.007v-.062c0-.008,0-.008-.008-.011v-.022c0-.008,0-.008,0-.011v-.079c-.008,0-.008-.006-.008-.011v-.025l0-.01v-.073c0-.008,0-.008,0-.011v-.032s0,0-.008,0v-.043c0-.007,0-.007,0-.011v-.1s0-.007-.008-.011v-.036c0-.007,0-.007,0-.011v-.116c0-.007,0-.011-.008-.014v-.054l0,0v-.177c0-.007,0-.008,0-.011v-.112c-.008-.007-.008-.01-.008-.011v-.112c0-.007,0-.011,0-.011v-.529a.023.023,0,0,0,0-.006v-.112s0-.007.008-.011v-.112a.012.012,0,0,1,0-.011v-.177l0-.015v-.043c.008,0,.008-.007.008-.011v-.112a.012.012,0,0,1,0-.006.114.114,0,0,0,0-.015v-.032c.008-.007.008-.011.008-.014v-.1a.015.015,0,0,0,0-.011v-.043l.008,0v-.033a.012.012,0,0,0,0-.011v-.076c0-.009,0-.011,0-.011v-.021c0-.008,0-.011.008-.015v-.076a.015.015,0,0,0,0-.011v-.022l.008,0v-.072a.029.029,0,0,0,0-.011v-.021a.017.017,0,0,1,0-.009.013.013,0,0,0,0-.006v-.022h.008v-.065s0,0,0-.005a.012.012,0,0,0,0-.006v-.011s0-.008.008-.011v-.054c0-.007,0-.007,0-.011v-.022c.008-.007.008-.007.008-.011v-.022l0-.011v-.043c0-.008,0-.011,0-.011v-.014s0-.007.008-.007v-.058a.016.016,0,0,0,0-.011v-.011h.008v-.054a.015.015,0,0,0,0-.011v-.011s0-.007.008-.011V-3953a.012.012,0,0,1,0-.011v-.043s0,0,0-.005a.012.012,0,0,0,0-.005v-.011s0,0,0-.005,0,0,0-.005v-.043l0-.011v-.011c.008,0,.008,0,.008,0v-.04h0v0a.014.014,0,0,0,0-.006v-.022l0,0v-.007s0,0,0-.006,0,0,0-.005v-.043l0-.011s0,0,0-.005,0,0,0-.005v-.033a.015.015,0,0,1,0-.011v-.011s0,0,0-.005,0,0,0-.006v-.011h0v0a.014.014,0,0,0,0-.006v-.032a.012.012,0,0,1,0-.011v-.007c.008-.007.008-.011.008-.015v-.032a.017.017,0,0,0,0-.007c0-.007,0-.011.008-.011v-.043l0-.011c0-.007,0-.011.008-.011v-.011c0-.007,0-.007,0-.011v-.033l0-.011,0-.007s0,0,0,0v-.032l0-.011c0-.007,0-.007.008-.011v-.032a.017.017,0,0,0,0-.007v-.007c0-.007,0-.007.008-.011v-.008l0-.007v-.035l0-.009v-.007s.008,0,.008,0v-.029s0,0,0-.005a.013.013,0,0,0,0-.006v-.006c.009,0,.009,0,.009-.009v-.011l0-.011v-.021l0-.007,0-.008c.008-.006.008-.006.008-.01v-.022c0-.007,0-.007,0-.011V-3954l.008,0v-.029a.017.017,0,0,0,0-.007v-.007l0-.007s0,0,0,0,0-.007,0-.011v-.032l0-.008s0-.007.008-.007v-.032l0-.011.008,0v-.033s0-.005,0-.007v-.006c.009,0,.009,0,.009-.009l0-.007,0-.008v-.024l0-.009s0,0,.008,0v-.029l0-.011s0,0,0-.005,0,0,0-.005v-.007l0-.011v-.018l0-.007v-.008s0,0,.008,0v-.029l0-.011c.008,0,.008-.007.008-.011v-.018s0,0,0-.011v-.007s0,0,.008,0,0-.011,0-.011v-.025s0,0,0-.011.008-.01.008-.011v-.018s0-.011,0-.011,0-.007.008-.007v-.022c0-.008,0-.011,0-.011v-.011c.008,0,.008-.006.008-.007l0-.007v-.018a.032.032,0,0,1,0-.014s0,0,.008,0v-.022c0-.01,0-.011,0-.014s.008-.006.008-.007v-.011l0-.011v-.01a.04.04,0,0,1,0-.009s0-.009.009-.009v-.026a.026.026,0,0,0,0-.01c.008,0,.008-.007.008-.007v-.022c0-.011,0-.015.011-.018a.027.027,0,0,1,0-.014v-.018h0l0,0s0-.007.008-.007v-.025l0-.007a.014.014,0,0,1,.008-.008v-.025s0,0,0-.007a.075.075,0,0,0,.008-.015.015.015,0,0,1,0-.006v-.014a.038.038,0,0,0,0-.009.058.058,0,0,0,0-.009h.008v-.022s0,0,0-.007v-.007c.006,0,.007,0,.008-.007l0-.011v-.018c.008,0,.008-.007.008-.007a.036.036,0,0,0,0-.018.016.016,0,0,1,0-.007c0-.007,0-.009,0-.011s.008-.014.008-.018a.015.015,0,0,1,0-.011.02.02,0,0,1,0-.013s0,0,0-.005a.058.058,0,0,0,0-.018v-.007s0-.007,0-.007a.026.026,0,0,0,.008-.022.025.025,0,0,1,0-.014s0,0,.008,0v-.014l0-.018a.007.007,0,0,1,.008-.007.072.072,0,0,0,0-.022h0v-.007a.037.037,0,0,0,0-.007s.008,0,.008,0v-.018a.029.029,0,0,1,.011-.018s0,0,0-.007v-.025l0,0a.014.014,0,0,0,.007-.014v-.011a.073.073,0,0,0,.011-.018v-.014a.058.058,0,0,1,.011-.018.04.04,0,0,0,0-.018c0-.008,0-.011,0-.011s.008-.014.008-.018a.047.047,0,0,1,.007-.018.061.061,0,0,0,.007-.018v-.018c.008,0,.008,0,.011-.01v-.022l0,0a.054.054,0,0,0,.009-.024l0-.007c0-.005.007-.009.007-.011l0-.009h0a.067.067,0,0,1,.009-.023.087.087,0,0,0,0-.015.1.1,0,0,1,0-.014.023.023,0,0,0,.008-.018.081.081,0,0,1,.008-.02.06.06,0,0,0,.006-.013.043.043,0,0,1,0-.022c.028-.078.061-.159.089-.229l.017-.042a.071.071,0,0,1,0-.011l0-.007a.083.083,0,0,0,.008-.028,14.028,14.028,0,0,1,2.507-4.116.068.068,0,0,0,.018-.025l.028-.031.029-.031a.032.032,0,0,1,.009-.009h0l.006-.005,0-.006,0-.005a.033.033,0,0,0,.015-.014.05.05,0,0,1,.01-.012l.012-.013.009-.009a.789.789,0,0,0,.06-.067l0-.006a.071.071,0,0,1,.017-.016.037.037,0,0,1,.011-.011l0,0,0,0a.015.015,0,0,1,0-.006l0,0a.021.021,0,0,0,.01-.011l.008-.007h0l0-.006s0-.006.01-.008a.025.025,0,0,1,.014-.014l0-.005a.017.017,0,0,1,0-.006c.006-.008.009-.012.015-.015l0,0h0a.024.024,0,0,1,.007-.009l.006,0,0,0,0-.006a.016.016,0,0,0,0-.008h.006a.037.037,0,0,1,.009-.01l0,0c0-.006.007-.009.007-.011s.007,0,.007,0,.008-.007.008-.011l.008,0,0,0a.032.032,0,0,1,.011-.014s0,0,.006-.007l0,0h0l0,0,0,0,.006-.005.011-.011c0-.005,0-.006,0-.007l.007,0,0,0h0l.01-.01h0l0,0,0,0s0,0,0-.007.009-.007.011-.007a.031.031,0,0,1,.015-.014s0-.008.008-.011l0,0h0l0,0,.007-.006c.007,0,.008-.005.008-.007l.007-.007s0,0,.008-.007a.051.051,0,0,0,.012-.011l.01-.011,0,0,.011-.011a.02.02,0,0,1,.008-.008l0,0,.007-.007a.007.007,0,0,1,.008-.007l.008-.009.006-.006a.01.01,0,0,0,0-.007l.007,0,0-.01h.008l0,0,.008-.006.011-.011,0,0c.007-.007.007-.007.007-.011l.011-.007s0,0,0-.007l.011-.007s0,0,0-.007l.011-.007.007-.007h0l0,0c.006,0,.007,0,.007-.006l.007-.007s0,0,.008,0l0-.007.007-.008.006,0h0l0,0c.006,0,.006-.006.006-.006h0l0,0a.013.013,0,0,1,.007,0,.014.014,0,0,0,0-.007l.007,0h0l0,0a.011.011,0,0,0,0-.007l.007,0,0-.006.007,0,.008-.008,0,0c0-.007,0-.007.008-.007l0,0,.006,0c.009-.007.009-.01.009-.011h0l0,0,0,0,.007-.006a.005.005,0,0,0,0,0l.007,0a.044.044,0,0,1,.012-.01l0,0,0,0h0a.023.023,0,0,1,.008-.007l0,0,.007-.007,0,0c.007,0,.007-.007.007-.007s.008-.007.008-.007l.007-.006,0,0,.008,0h0l0,0,.007-.007,0,0,0,0,.007-.007,0,0c.007,0,.007-.007.007-.007h0l0,0,.009-.007,0-.006.008,0h0l0,0,.007-.007,0,0,0,0c.006,0,.007,0,.007-.007h0l0,0,0,0,0-.006a.019.019,0,0,0,.008,0l.008-.007,0-.005.006-.006.007,0,0-.006.006,0,.006,0,0-.006.012-.008.007-.007.008-.007.007-.008.007,0,0,0,0,0,.007-.007h0l0,0,.006,0a.01.01,0,0,1,0-.005l0-.005.008,0,.007-.007,0,0,0,0s.008-.007.011-.007a.009.009,0,0,1,.007-.007l0,0,0,0,.007-.007.006,0,0-.007,0,0,.008,0,.007-.006a.041.041,0,0,0,.011-.011h0l.006,0,.006,0,0,0a.007.007,0,0,1,0-.005l.006,0a.016.016,0,0,1,.007-.009l.008-.005.007-.007.008-.007.007-.008.008,0,.01-.01h0l.006,0c.006,0,.009-.007.009-.011l.008,0s.006-.007.011-.007a.008.008,0,0,1,.007-.007h0l0,0,0,0c.006,0,.007-.005.007-.007s.007-.005.007-.007l.008,0,0,0c.009-.006.013-.009.015-.014s.008,0,.008-.007l.006,0,0,0,0,0a.011.011,0,0,0,.006,0l0,0,.007-.007.007-.007a.053.053,0,0,0,.019-.014l.007-.007a.013.013,0,0,0,.008,0,.02.02,0,0,1,.008-.008l0,0a.061.061,0,0,1,.015-.01l.007-.007a.028.028,0,0,0,.015-.014l.033-.025.01-.008.008-.007.007-.005,0,0h0l0,0a.024.024,0,0,1,.009-.009l.008-.005.009-.007.008-.006a.036.036,0,0,1,.009-.009c.276-.227.569-.448.9-.676a.746.746,0,0,1,.427-.134.75.75,0,0,1,.619.322.756.756,0,0,1-.192,1.045,12.509,12.509,0,0,0-5.388,10.282,12.482,12.482,0,0,0,3.045,8.173.753.753,0,0,1-.076,1.06A.752.752,0,0,1-14398.483-3941.585Zm10.025-.416a9.01,9.01,0,0,1-9-9,8.944,8.944,0,0,1,3.525-7.145c.089.517.192,1.074.317,1.7a7.435,7.435,0,0,0-2.342,5.441,7.509,7.509,0,0,0,7.5,7.5,7.507,7.507,0,0,0,7.5-7.5,7.432,7.432,0,0,0-2.344-5.443c.112-.563.219-1.136.317-1.7a8.944,8.944,0,0,1,3.526,7.147A9.008,9.008,0,0,1-14388.458-3942Zm16.061-1.953a.761.761,0,0,1-.268-.051.751.751,0,0,1-.417-.4.741.741,0,0,1-.01-.57,16.418,16.418,0,0,0,1.132-6.021v-.253a.752.752,0,0,1,.737-.763h.012a.756.756,0,0,1,.752.738v.575a.012.012,0,0,0,0,.011v.13l0,.008v.134c0,.007,0,.007,0,.011v.1a.013.013,0,0,0,0,.008v.09a.058.058,0,0,0,0,.025v.036l0,.008v.072l0,0h0v.051a.127.127,0,0,1,0,.018.144.144,0,0,0,0,.018v.036l0,.008v.054c0,.007,0,.007,0,.011v.047a.19.19,0,0,0,0,.047s0,0,0,.007v.032l0,.034c0,.016,0,.031,0,.046v.015a.474.474,0,0,1,0,.071l0,.023v.007c0,.014,0,.027,0,.041s0,.03,0,.042v.014l0,.046-.006.048a17.925,17.925,0,0,1-1.14,4.868l0,.008,0,0h0v.007s0,0,0,.007a.2.2,0,0,1-.011.022A.755.755,0,0,1-14372.4-3943.954Zm-2.886-4.871-.042,0h-.042a.74.74,0,0,1-.5-.274.744.744,0,0,1-.158-.551c.043-.441.064-.893.064-1.345a12.411,12.411,0,0,0-3.659-8.842,12.576,12.576,0,0,0-2.877-2.153c.008-.144.013-.29.013-.437a6,6,0,0,0-.143-1.3,14.073,14.073,0,0,1,5.487,4.49l0,.005,0,.005a.07.07,0,0,1,.014.02l0,.006,0,.006a13.946,13.946,0,0,1,2.535,6.35l0,.04c0,.018,0,.035,0,.054a.114.114,0,0,0,.006.03c0,.007,0,.012,0,.017.019.162.042.376.059.59a.179.179,0,0,1,0,.023c0,.008,0,.015,0,.023v.021c0,.033,0,.067.008.1s0,.072.007.108,0,.083.007.123v.043c0,.052,0,.1.007.155,0,.076.008.163.008.25v.687a.015.015,0,0,1,0,.011.373.373,0,0,1-.008.094v.083c-.013.27-.03.589-.064.9A.752.752,0,0,1-14375.283-3948.825Zm-30.375-.626h-.032a.755.755,0,0,1-.753-.712c-.006-.133-.01-.277-.014-.5v-.1a.026.026,0,0,1,0-.015v-.445c0-.007,0-.011,0-.014v-.2a.015.015,0,0,1,0-.011v-.137a.043.043,0,0,0,0-.022v-.087a.025.025,0,0,0,0-.015v-.036a.136.136,0,0,1,0-.036v-.051a.114.114,0,0,1,0-.036v-.051a.429.429,0,0,0,0-.072,18.06,18.06,0,0,1,1.016-5.063.752.752,0,0,1,.706-.5.782.782,0,0,1,.253.043.748.748,0,0,1,.43.393.733.733,0,0,1,.022.565,16.594,16.594,0,0,0-.951,5.548c0,.23,0,.5.018.767a.744.744,0,0,1-.2.538A.745.745,0,0,1-14405.658-3949.451Zm33.058-7.584a.738.738,0,0,1-.683-.456,16.507,16.507,0,0,0-3.6-5.266.758.758,0,0,1-.011-1.063.755.755,0,0,1,.538-.221.753.753,0,0,1,.524.213l.053.052c.068.067.131.129.19.194l.006.006h0l.007.006a.24.24,0,0,0,.025.029.246.246,0,0,0,.026.029l.01.01,0,0s.006,0,.006.005,0,.007.006.008l.006,0s0,.008.011.011a.012.012,0,0,1,0,.007l.006.006s0,0,0,0l0,0h0s.008,0,.008.007,0,.007.011.007a.032.032,0,0,1,0,.011h0c.006,0,.007,0,.007,0s0,0,0,.007l0,0s.006,0,.006.006,0,.007.011.007a.02.02,0,0,0,.011.011.013.013,0,0,1,0,.011c.007,0,.01,0,.011.005l0,.005s0,0,0,0l.006,0a.012.012,0,0,0,0,.01h.008a.019.019,0,0,0,0,.011.028.028,0,0,1,.011.007c0,.006,0,.007,0,.008s.006,0,.007,0a.015.015,0,0,0,0,.011h.008a.018.018,0,0,0,0,.011l0,0s.006,0,.006.005l.012.011s0,.008.011.011l0,.007s0,0,0,0h0l0,0c0,.007,0,.007.006.007h0l0,0,0,.006s0,0,.011.008l0,.007s0,0,.008,0a.015.015,0,0,1,0,.011l0,0h0s.007,0,.007,0l0,0s0,0,.007.007l0,.008a.023.023,0,0,1,.011.007l0,.008c.008,0,.009.005.009.007s0,.007.011.011l0,.008,0,0s.007,0,.007,0l0,.008.007,0,0,.01s.008,0,.008,0l0,.008.012.007c0,.007,0,.007,0,.011h0l.006,0,0,.009.008,0h0s0,0,0,.007l0,0,.008,0s0,0,0,.007,0,0,.008,0l0,.007c.006,0,.008.006.008.008s0,0,0,.007l0,0s0,0,.007,0,0,0,0,.007,0,0,.008,0l0,.007,0,.008c.008,0,.008,0,.008.007l0,0h0l0,0h0l0,0c0,.007,0,.007.01.01l0,.008,0,0,.008.005,0,.005s0,0,0,0h0l0,0c0,.007,0,.007.01.01h0l0,0v.007l0,0h0s.006,0,.007,0l0,.007.007,0s0,0,0,.007a0,0,0,0,0,0,0,.009.009,0,0,0,.008,0v.008l0,0c.007,0,.007,0,.01.007s0,.007,0,.007h0l0,0c0,.006,0,.008.006.01l.008,0a.015.015,0,0,1,0,.007.018.018,0,0,1,.008.006l0,0s.008.008.012.008,0,.008,0,.011l.006.006s0,0,0,0a.019.019,0,0,0,.006.007l0,0a.014.014,0,0,0,0,.006h0l0,0s0,.007.007.011a.022.022,0,0,1,.011.008c0,.007.009.01.011.01s0,.007,0,.011l.008,0a.016.016,0,0,1,0,.007c.007,0,.008.006.009.009a.025.025,0,0,0,.01.01h0l0,0a.016.016,0,0,0,0,.01.028.028,0,0,1,.011.007.012.012,0,0,0,.011.011c0,.008,0,.008.008.011h0l0,0s0,0,0,.007.008.005.009.009l0,.006h0a.039.039,0,0,1,.01.007.013.013,0,0,0,0,.011h.008a.011.011,0,0,0,0,.007.012.012,0,0,0,.011.011c0,.008,0,.008.008.011s0,.007.007.011.008.006.009.009l0,.006s.007,0,.007.007a.019.019,0,0,0,.011.011.013.013,0,0,1,0,.011l.006,0,0,0h0l0,0s0,.007.008.007,0,.011.007.011l.006.007,0,.007h0l0,0,0,0a.021.021,0,0,0,.011.011.015.015,0,0,1,0,.011l0,0,.01.008s0,.007.008.01a.015.015,0,0,1,0,.011h.008a.013.013,0,0,1,0,.011.023.023,0,0,0,.011.011c0,.006,0,.009.011.011a.012.012,0,0,1,0,.007c.009.009.012.011.012.015s0,0,.011.007a.016.016,0,0,1,0,.011c.006,0,.011.006.011.011s0,.007.012.011a.015.015,0,0,1,0,.011.255.255,0,0,1,.027.03c.011.013.021.024.031.035a.033.033,0,0,0,.007.01.037.037,0,0,1,.007.011s0,0,.006.007l0,0s0,.007,0,.007.011.01.011.014a.034.034,0,0,1,.011.007s0,.007.008.011a.015.015,0,0,1,0,.011l0,0,.01.008s0,.007.008.01a.015.015,0,0,1,0,.011.03.03,0,0,1,.015.011.018.018,0,0,0,.006.01c0,.005,0,.008,0,.011s.011.007.011.011,0,.007.012.011a.015.015,0,0,1,0,.011c.008,0,.011.007.011.011s0,0,0,.006l.006,0a.012.012,0,0,1,0,.011c.006,0,.011.006.011.011s0,0,.007.007h0l0,0s0,.007.008.01.007.008.007.011,0,0,.006.007l0,0s0,.007.008.01a.015.015,0,0,1,0,.011.03.03,0,0,1,.015.011.019.019,0,0,0,.006.01c0,.005,0,.008,0,.011a.04.04,0,0,1,.012.008c0,.008,0,.011.011.014a.015.015,0,0,1,0,.011c.008,0,.011.007.011.011s0,0,0,.006l.006,0,0,.005a.019.019,0,0,1,0,.006c.006,0,.011.006.011.011s0,0,.007.007h0l0,0c0,.005.006.011.011.017.267.349.532.73.814,1.168,0,0,0,.008.007.011s0,.011.008.015h0v.005h0v.005s0,0,.006.007l0,0s0,.007.008.01a.019.019,0,0,0,.007.012c0,.007,0,.011.008.014a.015.015,0,0,1,0,.011s0,0,.006.007l0,0a.015.015,0,0,1,0,.005.012.012,0,0,0,0,.005.008.008,0,0,0,0,.006l0,.007a.016.016,0,0,0,.009.012l0,0a.015.015,0,0,0,0,.006s0,0,0,.006.008.012.008.016,0,0,.006.007l0,0c0,.007,0,.01.008.014a.014.014,0,0,0,.007.011.008.008,0,0,0,0,.006c.008.009.008.012.008.016s0,0,.006.007l0,0c0,.007,0,.01.008.014a.014.014,0,0,0,.007.011s0,.008.008.011h0l0,.006a.019.019,0,0,0,.009.016l.012.018a.249.249,0,0,1,.017.032.063.063,0,0,1,.013.019c.007.008.009.011.009.014a.021.021,0,0,1,0,.015c.006,0,.011.006.011.011s0,.007.008.011.007.008.007.011a.045.045,0,0,0,0,.009.012.012,0,0,0,0,.005.015.015,0,0,1,0,.011.013.013,0,0,1,.009.008l.006.008,0,.005a.011.011,0,0,0,0,.008.021.021,0,0,1,0,.007s0,.007.008.01a.013.013,0,0,0,0,.006v.006a.007.007,0,0,0,0,0s0,0,0,.006l0,0a.01.01,0,0,0,0,.006h0l0,.006v.006h0l0,0v.01c.007,0,.011.007.011.011s0,.011.008.011a.017.017,0,0,0,0,.008.014.014,0,0,0,0,.007l0,.006,0,.005c0,.007,0,.007,0,.01a.032.032,0,0,1,.007.009c.008.009.008.013.008.017h0l.006.006,0,.008a.012.012,0,0,0,0,.008h0l0,.006v.006a.015.015,0,0,0,0,.009s0,0,0,.005l0,.007h0l0,0a.021.021,0,0,0,0,.007h0l0,0a.031.031,0,0,1,0,.014.013.013,0,0,1,.009.008l0,.006v.007h0s.008,0,.008,0a.013.013,0,0,0,0,.005v.006l.006.005a.012.012,0,0,1,0,.006l0,0h0a.012.012,0,0,1,0,.007c0,.007,0,.011.008.011h0v.005a.016.016,0,0,0,0,.009.013.013,0,0,1,0,.011c.007.007.007.007.007.011l0,0a.011.011,0,0,0,0,.007l0,.015.007,0s0,0,0,.007h0l0,0v.005h0a.018.018,0,0,0,0,.008.014.014,0,0,0,0,.006.012.012,0,0,1,0,.011l0,0s0,0,0,.007a.013.013,0,0,0,0,.009s0,0,0,.006l0,0h0a.012.012,0,0,1,0,.007,0,0,0,0,0,0,0s0,0,0,.008h0l0,0v.013c.007,0,.008,0,.009.005l0,.006s0,0,0,.007,0,0,0,.007l0,0,0,.006a.017.017,0,0,1,0,.008,0,0,0,0,0,0,0l0,.007v.008c.008.007.008.007.008.011s0,0,0,.007l0,0s0,0,0,.007l0,.008,0,0,0,.007a.01.01,0,0,0,0,.008l0,.01v.008h0s.008,0,.008,0,0,0,0,.007,0,0,0,.007l0,0,0,.008h0a.012.012,0,0,1,0,.007c0,.008,0,.008.008.011s0,.011.007.011v.008s0,0,0,.007l0,0,0,.007a0,0,0,0,0,0,0h0v0h0v.006l0,0v.007c.008.008.008.008.008.011l0,0a.012.012,0,0,1,0,.01l0,0a.016.016,0,0,1,0,.007l0,0s0,.007,0,.007a.053.053,0,0,0,0,.01l0,0v.011h0s.008,0,.008,0l0,.007a0,0,0,0,0,0,0,.011.011,0,0,0,0,.011h0l0,0a.021.021,0,0,0,0,.006v.011s.007,0,.008,0h0v.005h0v.005l0,.005,0,.005c.2.395.393.793.578,1.219a.753.753,0,0,1-.4.98A.741.741,0,0,1-14372.6-3957.034Zm5.021-.922a.744.744,0,0,1-.7-.488,21.61,21.61,0,0,0-1.595-3.378.737.737,0,0,1-.077-.568.739.739,0,0,1,.349-.456.7.7,0,0,1,.376-.1.747.747,0,0,1,.647.373,23.336,23.336,0,0,1,1.446,2.937.012.012,0,0,0,0,.008.031.031,0,0,1,0,.01.008.008,0,0,1,0,0l0,.01a.13.13,0,0,1,.011.029.014.014,0,0,1,0,.008l0,.007a.012.012,0,0,0,0,.005h0v.005s0,0,0,0a.027.027,0,0,0,0,.014.017.017,0,0,1,0,.009l0,.006a.01.01,0,0,0,0,.005.012.012,0,0,1,0,.006l0,.01,0,0a.014.014,0,0,0,0,.009.019.019,0,0,1,0,.006s0,0,0,.007h0l0,.006c0,.012,0,.012,0,.016l0,.007s0,0,0,.008a.033.033,0,0,1,0,.015s0,0,0,.007a.011.011,0,0,0,0,.007l0,.007s0,0,0,.008v.007s0,0,0,.007a.013.013,0,0,0,0,.007.011.011,0,0,0,0,.007s0,.008,0,.008v.008s0,0,0,.007l0,.007a.013.013,0,0,0,0,.011l0,.01h0l0,.005a.011.011,0,0,0,0,.007.031.031,0,0,1,0,.01c.048.117.091.229.127.333a.748.748,0,0,1-.445.958A.741.741,0,0,1-14367.58-3957.957Zm-40.36-3.045a.767.767,0,0,1-.368-.1.74.74,0,0,1-.356-.445.747.747,0,0,1,.063-.571,22.959,22.959,0,0,1,2.23-3.316.746.746,0,0,1,.586-.278.741.741,0,0,1,.467.166.753.753,0,0,1,.116,1.056,21.737,21.737,0,0,0-2.087,3.1A.738.738,0,0,1-14407.94-3961Zm6.64-.767a.752.752,0,0,1-.5-.2.754.754,0,0,1-.062-1.056,18.265,18.265,0,0,1,4.062-3.37h0a.014.014,0,0,0,.01-.007.016.016,0,0,0,.013-.005.017.017,0,0,1,.008-.005l0,0s.007,0,.011-.007l.006,0,0,0,.008,0,.007-.005.007,0a.036.036,0,0,1,.01-.007l.006,0h0a.008.008,0,0,1,.006-.005l.006,0s.008-.007.011-.007l.007,0h0l0,0,.009,0,0,0a.009.009,0,0,1,0,0l.006,0,.011-.007.008,0s0,0,0,0a.026.026,0,0,1,.011,0l0,0s.007,0,.011,0l0,0a.012.012,0,0,1,.007,0l0,0,.008,0a0,0,0,0,0,0,0l.006,0h0a.009.009,0,0,1,.006-.006h0l0,0a.011.011,0,0,0,.007,0h0l0,0h0s0,0,0,0h0l0,0h0a.008.008,0,0,0,.007,0l.007,0,.009,0,.006-.007.011,0a.007.007,0,0,1,.008,0l0,0a.007.007,0,0,1,.008,0s0,0,.007,0l0,0,.006,0,.007,0,.007-.005a.009.009,0,0,0,.006,0h0l.006,0h.01l0,0,.008,0h0l0,0,.006,0,.008,0s0,0,0,0l.01,0,0,0a.014.014,0,0,1,.011,0l0,0a.013.013,0,0,0,.007,0l.007,0,0,0,.008,0a.012.012,0,0,1,.007,0l0,0h0l.007,0h0l0,0h0l.007,0,.007,0,.007,0a.014.014,0,0,1,.011,0l0,0s0,0,.007,0l0,0h.006l.009-.005a.014.014,0,0,1,.007,0,0,0,0,0,0,0,0l.007,0,.008,0h0l0,0h.007l0,0,.009,0,.006-.007c.008,0,.011,0,.011,0l0,0h0c.008,0,.01,0,.01-.006l.007,0,.008,0h0l0,0,.009,0,0,0c.008,0,.008,0,.011-.007a.022.022,0,0,0,.011,0,.036.036,0,0,1,.01-.007l.006,0,0,0a.014.014,0,0,1,.007,0l.01,0,0,0,.006,0,0,0c.008,0,.008,0,.011-.007a.017.017,0,0,0,.015-.007l.007,0,.012-.006.007,0h0l.006,0,.006,0,.006,0,0,0a.017.017,0,0,0,.015-.007l.007,0,0,0c.006-.006.009-.007.01-.007l.006,0s.008,0,.009-.005l.006,0,0,0s.007,0,.011-.007a.024.024,0,0,0,.011,0l.006,0,.009,0,.006,0,.006,0,.009,0,0,0,.036-.018.036-.018c.173-.092.333-.173.492-.25a.752.752,0,0,1,.325-.076.757.757,0,0,1,.677.423.748.748,0,0,1,.034.573.745.745,0,0,1-.382.429,16.6,16.6,0,0,0-5.1,3.837A.753.753,0,0,1-14401.3-3961.768Zm19.377-4.448a.786.786,0,0,1-.281-.054,16.451,16.451,0,0,0-2.5-.8,5.986,5.986,0,0,0-3.761-1.335,5.953,5.953,0,0,0-1.808.28l0-.044a.751.751,0,0,1,.7-.8c.289-.018.58-.029.864-.032h.579a.012.012,0,0,1,.007,0h.155a.014.014,0,0,1,.008,0h.112l.014,0h.084s0,0,.007,0h.079l0,0h.072a.008.008,0,0,1,.008,0h.068l.007,0h.056l.05,0h.015s0,0,.007,0h.055s0,0,.007,0h.047l.1.007.029,0,.028,0h.008s0,0,.007,0h.011l.133.01.146.011a17.915,17.915,0,0,1,5.176,1.266.738.738,0,0,1,.4.4.746.746,0,0,1,0,.576A.749.749,0,0,1-14381.924-3966.217Zm-2.687-5.949a.786.786,0,0,1-.127-.011,21.687,21.687,0,0,0-3.721-.322c-.159,0-.313,0-.5.007h-.014a.759.759,0,0,1-.753-.734.755.755,0,0,1,.733-.767c.152,0,.311-.007.463-.007h.265a.014.014,0,0,1,.007,0h.253s0,0,.008,0h.13a.036.036,0,0,1,.019,0h.119l.011,0h.043l.06,0h.061a23.388,23.388,0,0,1,3.077.325.755.755,0,0,1,.607.868A.753.753,0,0,1-14384.61-3972.166Z" transform="translate(14410.001 3973.999)"/></svg>