<svg xmlns="http://www.w3.org/2000/svg" width="46.001" height="46" viewBox="0 0 46.001 46"><defs><style>.a{fill:#4d3b40;}.b,.c{fill:none;}.b{stroke:#4d3b40;stroke-linecap:round;stroke-linejoin:round;stroke-width:1.5px;}.d,.e{stroke:none;}.e{fill:#4d3b40;}</style></defs><path class="a" d="M-14338.87-3938.381l-.058,0a6.162,6.162,0,0,0-.687-.688.748.748,0,0,1,.216-.588l1.415-1.415a.74.74,0,0,1,.529-.221.74.74,0,0,1,.529.221.744.744,0,0,1,.219.529.744.744,0,0,1-.219.53l-1.415,1.415A.732.732,0,0,1-14338.87-3938.381Zm2.831-2.827a.759.759,0,0,1-.533-.219.756.756,0,0,1,0-1.062l1.415-1.415a.745.745,0,0,1,.53-.219.754.754,0,0,1,.532.219.756.756,0,0,1,0,1.063l-1.415,1.415A.755.755,0,0,1-14336.039-3941.208Zm2.826-2.831a.745.745,0,0,1-.529-.22.751.751,0,0,1,0-1.059l1.416-1.415a.743.743,0,0,1,.529-.219.743.743,0,0,1,.529.219.755.755,0,0,1,0,1.062l-1.415,1.412A.743.743,0,0,1-14333.213-3944.039Zm2.827-2.827a.755.755,0,0,1-.529-.22.757.757,0,0,1,0-1.062l1.415-1.412a.74.74,0,0,1,.53-.221.74.74,0,0,1,.529.221.738.738,0,0,1,.221.529.739.739,0,0,1-.221.53l-1.412,1.415A.759.759,0,0,1-14330.386-3946.865Zm2.831-2.831a.743.743,0,0,1-.529-.22.738.738,0,0,1-.222-.529.738.738,0,0,1,.222-.53l1.411-1.415a.754.754,0,0,1,.533-.219.743.743,0,0,1,.529.219.759.759,0,0,1,0,1.063l-1.415,1.412A.741.741,0,0,1-14327.555-3949.7Zm2.827-2.827a.741.741,0,0,1-.529-.22.756.756,0,0,1,0-1.062l1.415-1.412a.738.738,0,0,1,.529-.221.738.738,0,0,1,.529.221.738.738,0,0,1,.221.529.739.739,0,0,1-.221.53l-1.412,1.415A.745.745,0,0,1-14324.728-3952.523Zm2.83-2.827a.762.762,0,0,1-.533-.22.757.757,0,0,1,0-1.062l1.416-1.415a.744.744,0,0,1,.529-.219.755.755,0,0,1,.533.219.757.757,0,0,1,0,1.062l-1.416,1.415A.755.755,0,0,1-14321.9-3955.35Zm2.827-2.831a.743.743,0,0,1-.529-.22.737.737,0,0,1-.221-.529.734.734,0,0,1,.221-.53l1.411-1.415a.755.755,0,0,1,.533-.219.743.743,0,0,1,.529.219.755.755,0,0,1,0,1.062l-1.415,1.412A.743.743,0,0,1-14319.07-3958.181Zm2.831-2.827a.759.759,0,0,1-.533-.22.757.757,0,0,1,0-1.062l1.415-1.412a.783.783,0,0,1,.132-.106,6.065,6.065,0,0,0,1.033,1.033.7.7,0,0,1-.106.132l-1.411,1.415A.758.758,0,0,1-14316.239-3961.008Z" transform="translate(14350.001 3974)"/><path class="b" d="M14380,3999l-5-5h-10" transform="translate(-14360.999 -3977.001)"/><g class="c" transform="translate(14350.001 3973.999)"><path class="d" d="M-14350-3934a6,6,0,0,1,6-6,6,6,0,0,1,6,6,6,6,0,0,1-6,6A6,6,0,0,1-14350-3934Zm34-34a6,6,0,0,1,6-6,6,6,0,0,1,6,6,6,6,0,0,1-6,6A6,6,0,0,1-14316-3968Z"/><path class="e" d="M -14344.0009765625 -3928.99853515625 C -14341.244140625 -3928.99853515625 -14339.0009765625 -3931.241455078125 -14339.0009765625 -3933.99853515625 C -14339.0009765625 -3936.75537109375 -14341.244140625 -3938.998291015625 -14344.0009765625 -3938.998291015625 C -14346.7578125 -3938.998291015625 -14349.0009765625 -3936.75537109375 -14349.0009765625 -3933.99853515625 C -14349.0009765625 -3931.241455078125 -14346.7578125 -3928.99853515625 -14344.0009765625 -3928.99853515625 M -14310 -3962.9990234375 C -14307.2431640625 -3962.9990234375 -14305 -3965.241943359375 -14305 -3967.9990234375 C -14305 -3970.756103515625 -14307.2431640625 -3972.9990234375 -14310 -3972.9990234375 C -14312.7568359375 -3972.9990234375 -14315 -3970.756103515625 -14315 -3967.9990234375 C -14315 -3965.241943359375 -14312.7568359375 -3962.9990234375 -14310 -3962.9990234375 M -14344.0009765625 -3927.99853515625 C -14347.314453125 -3927.99853515625 -14350.0009765625 -3930.68505859375 -14350.0009765625 -3933.99853515625 C -14350.0009765625 -3937.315185546875 -14347.314453125 -3939.998291015625 -14344.0009765625 -3939.998291015625 C -14340.6875 -3939.998291015625 -14338.0009765625 -3937.315185546875 -14338.0009765625 -3933.99853515625 C -14338.0009765625 -3930.68505859375 -14340.6875 -3927.99853515625 -14344.0009765625 -3927.99853515625 Z M -14310 -3961.9990234375 C -14313.3134765625 -3961.9990234375 -14316 -3964.685791015625 -14316 -3967.9990234375 C -14316 -3971.312255859375 -14313.3134765625 -3973.9990234375 -14310 -3973.9990234375 C -14306.6875 -3973.9990234375 -14304 -3971.312255859375 -14304 -3967.9990234375 C -14304 -3964.685791015625 -14306.6875 -3961.9990234375 -14310 -3961.9990234375 Z"/></g><path class="a" d="M-5.384-15.134a.334.334,0,0,0,.283.081h.157l.393.016.094.016A.745.745,0,0,0-4.269-15l.3-.016.157-.016a.465.465,0,0,0,.361-.177l.031-.048a.786.786,0,0,0,.063-.419l.031-.161.141-.323.094-.226.3-.323.094-.129.236-.258.11-.113.22-.177.267-.258.2-.177a1.3,1.3,0,0,0,.141-.161l.047-.065.173-.21a1.349,1.349,0,0,0,.126-.194l.031-.065.173-.306a.354.354,0,0,0,.047-.081l.063-.161.094-.306a.281.281,0,0,0,.016-.113l.016-.129.047-.435v-.194l.016-.113a.322.322,0,0,0,.016-.129v-.258a.482.482,0,0,0-.031-.145l-.047-.226c-.016-.032-.016-.1-.031-.129l-.047-.113-.126-.306-.094-.194-.11-.21a1.089,1.089,0,0,0-.11-.177l-.016-.032-.283-.306-.031-.016a.553.553,0,0,0-.22-.21L-1.9-22.86a.722.722,0,0,0-.33-.1l-.346-.161-.047-.032a.726.726,0,0,0-.157-.081l-.33-.1-.031-.016a.6.6,0,0,0-.236-.032l-.283.016-.141-.016c-.031,0-.094-.016-.126-.016l-.094.016-.22.032-.157.016-.346.016h-.094a.3.3,0,0,0-.11.016l-.33.065-.188.048-.361.065-.063.032a.562.562,0,0,0-.11.048l-.236.161-.188.065-.141.129-.016.016a.9.9,0,0,0-.063.532l.016.129-.016.113c0,.048-.016.113-.016.161l.016.242.031.226.016.355-.031.161a.759.759,0,0,0,.424,0l.408-.113.173-.1.361-.145.126-.065.5-.145.031.016a1.026,1.026,0,0,0,.314,0l.047-.016.2.032h.157l.346.161.314.274.126.129.063.371.047.145L-3-20.021l.016.226-.031.161-.11.323-.094.081-.283.274-.126.177-.267.258-.173.177-.267.274-.079.113-.283.242-.126.129c-.031.048-.063.081-.094.129l-.141.242a.426.426,0,0,0-.079.145l-.079.226a.6.6,0,0,0-.047.242v.032l-.063.419-.031.161-.047.21v.177A.707.707,0,0,0-5.384-15.134Zm-.157,1.952-.031.113a1.018,1.018,0,0,0-.016.21v.371a1.253,1.253,0,0,0,.016.242l.079.29a.74.74,0,0,0,.188.306l.016.016a.657.657,0,0,0,.22.145l.031.016.126.032a.761.761,0,0,0,.33.016l.047-.016.173.048h.079a.724.724,0,0,0,.251-.065l.283-.1.079-.048a.478.478,0,0,0,.11-.081l.2-.177a.678.678,0,0,0,.173-.29l.016-.065a.774.774,0,0,0,.031-.258v-.065l-.031-.177V-12.8a1.253,1.253,0,0,0-.016-.242L-3.2-13.1a.933.933,0,0,0-.157-.306l-.236-.258a1.062,1.062,0,0,0-.33-.177l-.094-.032-.079-.016a.584.584,0,0,0-.236-.016l-.094.016-.141.032-.157.016h-.11l-.079.016a.824.824,0,0,0-.33.177l-.079.081A.734.734,0,0,0-5.541-13.182Z" transform="translate(12.657 26.391)"/></svg>