<svg xmlns="http://www.w3.org/2000/svg" width="46.002" height="46" viewBox="0 0 46.002 46"><defs><style>.a{fill:#4d3b40;}.b,.d{fill:none;}.b{stroke:#4d3b40;stroke-width:1.5px;}.c{stroke:none;}</style></defs><path class="a" d="M37.526,46a.727.727,0,0,1-.727-.726V43.337a.729.729,0,0,1,1.457,0v1.937A.729.729,0,0,1,37.526,46ZM8.471,46a.728.728,0,0,1-.727-.726V43.337a.727.727,0,0,1,1.453,0v1.937A.727.727,0,0,1,8.471,46Zm0-3.873a.728.728,0,0,1-.727-.726V39.464a.727.727,0,0,1,1.453,0V41.4A.727.727,0,0,1,8.471,42.127Zm36.8-3.873H43.342a.726.726,0,1,1,0-1.453h1.934a.726.726,0,1,1,0,1.453Zm-12.537,0H31.715a.726.726,0,0,1,0-1.453h1.023a4.842,4.842,0,0,0,0,1.451Zm-2.959,0H27.842a.726.726,0,1,1,0-1.453h1.938a.726.726,0,0,1,0,1.453Zm-3.875,0H23.971a.726.726,0,0,1,0-1.453H25.9a.726.726,0,1,1,0,1.453Zm-3.87,0H20.1a.726.726,0,1,1,0-1.453h1.938a.726.726,0,1,1,0,1.453Zm-3.875,0h-1.94a.726.726,0,1,1,0-1.453h1.94a.726.726,0,1,1,0,1.453Zm-3.878,0H12.345a.726.726,0,1,1,0-1.453h1.937a.726.726,0,1,1,0,1.453Zm-3.873,0H8.471a.728.728,0,0,1-.727-.726V35.59a.727.727,0,0,1,1.453,0V36.8h1.211a.726.726,0,1,1,0,1.453Zm-3.874,0H4.6a.726.726,0,0,1,0-1.453H6.534a.726.726,0,0,1,0,1.453Zm-3.871,0H.727a.726.726,0,1,1,0-1.453H2.663a.726.726,0,1,1,0,1.453ZM8.471,34.38a.728.728,0,0,1-.727-.726V31.717a.727.727,0,0,1,1.453,0v1.937A.727.727,0,0,1,8.471,34.38Zm29.786-1.64h0a4.929,4.929,0,0,0-1.456,0V31.717a.729.729,0,0,1,1.457,0v1.022Zm-.73-2.233a.727.727,0,0,1-.727-.726V27.844a.729.729,0,0,1,1.457,0V29.78A.729.729,0,0,1,37.526,30.506Zm-29.056,0a.728.728,0,0,1-.727-.726V27.844a.727.727,0,0,1,1.453,0V29.78A.727.727,0,0,1,8.471,30.506Zm29.056-3.873a.727.727,0,0,1-.727-.726V23.97a.729.729,0,0,1,1.457,0v1.937A.729.729,0,0,1,37.526,26.633Zm-29.056,0a.728.728,0,0,1-.727-.726V23.97a.727.727,0,0,1,1.453,0v1.937A.727.727,0,0,1,8.471,26.633ZM37.526,22.76a.727.727,0,0,1-.727-.726V20.1a.729.729,0,0,1,1.457,0v1.937A.729.729,0,0,1,37.526,22.76Zm-29.056,0a.728.728,0,0,1-.727-.726V20.1a.727.727,0,0,1,1.453,0v1.937A.727.727,0,0,1,8.471,22.76Zm29.056-3.874a.727.727,0,0,1-.727-.726V16.223a.729.729,0,0,1,1.457,0V18.16A.729.729,0,0,1,37.526,18.886Zm-29.056,0a.728.728,0,0,1-.727-.726V16.223a.727.727,0,0,1,1.453,0V18.16A.727.727,0,0,1,8.471,18.886Zm29.056-3.873a.727.727,0,0,1-.727-.726V12.35a.729.729,0,0,1,1.457,0v1.937A.729.729,0,0,1,37.526,15.013Zm-29.056,0a.728.728,0,0,1-.727-.726V12.35a.727.727,0,0,1,1.453,0v1.937A.727.727,0,0,1,8.471,15.013Zm29.056-3.873a.727.727,0,0,1-.727-.726V9.2H35.59a.726.726,0,1,1,0-1.453h1.937a.729.729,0,0,1,.73.726v1.94A.729.729,0,0,1,37.526,11.139Zm-29.056,0a.728.728,0,0,1-.727-.726V8.473a.728.728,0,0,1,.727-.726h1.938a.726.726,0,1,1,0,1.453H9.2v1.214A.727.727,0,0,1,8.471,11.139Zm36.8-1.94H43.342a.726.726,0,1,1,0-1.453h1.934a.726.726,0,1,1,0,1.453ZM41.4,9.2H39.468a.726.726,0,1,1,0-1.453H41.4a.726.726,0,1,1,0,1.453Zm-7.752,0H31.715a.726.726,0,0,1,0-1.453h1.938a.726.726,0,1,1,0,1.453Zm-3.873,0H27.842a.726.726,0,1,1,0-1.453h1.938a.726.726,0,0,1,0,1.453ZM25.9,9.2H23.971a.726.726,0,0,1,0-1.453H25.9a.726.726,0,1,1,0,1.453Zm-3.87,0H20.1a.726.726,0,1,1,0-1.453h1.938a.726.726,0,1,1,0,1.453Zm-3.875,0h-1.94a.726.726,0,1,1,0-1.453h1.94a.726.726,0,1,1,0,1.453Zm-3.878,0H12.345a.726.726,0,1,1,0-1.453h1.937a.726.726,0,1,1,0,1.453Zm-7.747,0H4.6a.726.726,0,0,1,0-1.453H6.534a.726.726,0,0,1,0,1.453Zm-3.871,0H.727a.726.726,0,1,1,0-1.453H2.663a.726.726,0,1,1,0,1.453ZM37.526,7.263a.727.727,0,0,1-.727-.726V4.6a.729.729,0,0,1,1.457,0V6.536A.729.729,0,0,1,37.526,7.263Zm-29.056,0a.728.728,0,0,1-.727-.726V4.6A.727.727,0,0,1,9.2,4.6V6.536A.727.727,0,0,1,8.471,7.263ZM37.526,3.389a.727.727,0,0,1-.727-.726V.726a.729.729,0,0,1,1.457,0V2.663A.729.729,0,0,1,37.526,3.389Zm-29.056,0a.728.728,0,0,1-.727-.726V.726A.727.727,0,0,1,9.2.726V2.663A.727.727,0,0,1,8.471,3.389Z"/><g class="b" transform="translate(34 34)"><ellipse class="c" cx="3.5" cy="3.499" rx="3.5" ry="3.499"/><ellipse class="d" cx="3.5" cy="3.499" rx="2.75" ry="2.749"/></g></svg>