<svg xmlns="http://www.w3.org/2000/svg" width="46.281" height="46" viewBox="0 0 46.281 46"><defs><style>.a,.b,.c,.d{fill:none;}.b,.c,.d{stroke:#4d3b40;}.b,.d{stroke-linecap:round;}.b{stroke-width:2px;}</style></defs><g transform="translate(0.281)"><rect class="a" width="46" height="46"/><path class="b" d="M14953.133,4133.1c7.148-7.148,17.389-17.418,18.262-18.291a1.859,1.859,0,0,1,2.738,0,2.022,2.022,0,0,1,0,2.647l-21,21" transform="translate(-14952 -4094)"/><path class="c" d="M3.2,1.41a.5.5,0,0,1,.948,0l.332.989a.5.5,0,0,0,.461.341l1.045.028a.5.5,0,0,1,.3.889l-.871.7a.5.5,0,0,0-.167.525l.3,1.074a.5.5,0,0,1-.774.541l-.81-.586a.5.5,0,0,0-.586,0l-.81.586a.5.5,0,0,1-.774-.541l.3-1.074a.5.5,0,0,0-.167-.525l-.871-.7a.5.5,0,0,1,.3-.889L2.4,2.74A.5.5,0,0,0,2.864,2.4Z" transform="matrix(0.966, 0.259, -0.259, 0.966, 14.404, 5.004)"/><path class="c" d="M3.2,1.41a.5.5,0,0,1,.948,0l.332.989a.5.5,0,0,0,.461.341l1.045.028a.5.5,0,0,1,.3.889l-.871.7a.5.5,0,0,0-.167.525l.3,1.074a.5.5,0,0,1-.774.541l-.81-.586a.5.5,0,0,0-.586,0l-.81.586a.5.5,0,0,1-.774-.541l.3-1.074a.5.5,0,0,0-.167-.525l-.871-.7a.5.5,0,0,1,.3-.889L2.4,2.74A.5.5,0,0,0,2.864,2.4Z" transform="matrix(0.966, 0.259, -0.259, 0.966, 4.049, 19.256)"/><path class="c" d="M3.2,1.41a.5.5,0,0,1,.948,0l.332.989a.5.5,0,0,0,.461.341l1.045.028a.5.5,0,0,1,.3.889l-.871.7a.5.5,0,0,0-.167.525l.3,1.074a.5.5,0,0,1-.774.541l-.81-.586a.5.5,0,0,0-.586,0l-.81.586a.5.5,0,0,1-.774-.541l.3-1.074a.5.5,0,0,0-.167-.525l-.871-.7a.5.5,0,0,1,.3-.889L2.4,2.74A.5.5,0,0,0,2.864,2.4Z" transform="matrix(0.966, 0.259, -0.259, 0.966, 36.805, 0.509)"/><path class="c" d="M3.2,1.41a.5.5,0,0,1,.948,0l.332.989a.5.5,0,0,0,.461.341l1.045.028a.5.5,0,0,1,.3.889l-.871.7a.5.5,0,0,0-.167.525l.3,1.074a.5.5,0,0,1-.774.541l-.81-.586a.5.5,0,0,0-.586,0l-.81.586a.5.5,0,0,1-.774-.541l.3-1.074a.5.5,0,0,0-.167-.525l-.871-.7a.5.5,0,0,1,.3-.889L2.4,2.74A.5.5,0,0,0,2.864,2.4Z" transform="matrix(0.966, 0.259, -0.259, 0.966, 38.323, 35.066)"/><path class="c" d="M5.026,1.41a.5.5,0,0,1,.948,0l.79,2.35a.5.5,0,0,0,.461.341l2.417.065a.5.5,0,0,1,.3.889L7.982,6.633a.5.5,0,0,0-.167.525l.694,2.457a.5.5,0,0,1-.774.541l-1.941-1.4a.5.5,0,0,0-.586,0l-1.941,1.4a.5.5,0,0,1-.774-.541l.694-2.457a.5.5,0,0,0-.167-.525L1.058,5.054a.5.5,0,0,1,.3-.889L3.776,4.1a.5.5,0,0,0,.461-.341Z" transform="matrix(0.966, -0.259, 0.259, 0.966, 26.335, 9.169)"/><path class="c" d="M5.026,1.41a.5.5,0,0,1,.948,0l.79,2.35a.5.5,0,0,0,.461.341l2.417.065a.5.5,0,0,1,.3.889L7.982,6.633a.5.5,0,0,0-.167.525l.694,2.457a.5.5,0,0,1-.774.541l-1.941-1.4a.5.5,0,0,0-.586,0l-1.941,1.4a.5.5,0,0,1-.774-.541l.694-2.457a.5.5,0,0,0-.167-.525L1.058,5.054a.5.5,0,0,1,.3-.889L3.776,4.1a.5.5,0,0,0,.461-.341Z" transform="matrix(0.966, -0.259, 0.259, 0.966, 12.862, 33.432)"/><path class="c" d="M4.026,1.41a.5.5,0,0,1,.948,0l.54,1.606a.5.5,0,0,0,.461.341L7.642,3.4a.5.5,0,0,1,.3.889L6.578,5.39a.5.5,0,0,0-.167.525l.48,1.7a.5.5,0,0,1-.774.541L4.793,7.2a.5.5,0,0,0-.586,0l-1.323.957a.5.5,0,0,1-.774-.541l.48-1.7a.5.5,0,0,0-.167-.525L1.058,4.29a.5.5,0,0,1,.3-.889l1.667-.045a.5.5,0,0,0,.461-.341Z" transform="matrix(0.966, -0.259, 0.259, 0.966, 27.527, 25.779)"/><path class="c" d="M4.026,1.41a.5.5,0,0,1,.948,0l.54,1.606a.5.5,0,0,0,.461.341L7.642,3.4a.5.5,0,0,1,.3.889L6.578,5.39a.5.5,0,0,0-.167.525l.48,1.7a.5.5,0,0,1-.774.541L4.793,7.2a.5.5,0,0,0-.586,0l-1.323.957a.5.5,0,0,1-.774-.541l.48-1.7a.5.5,0,0,0-.167-.525L1.058,4.29a.5.5,0,0,1,.3-.889l1.667-.045a.5.5,0,0,0,.461-.341Z" transform="matrix(0.966, -0.259, 0.259, 0.966, 1.133, 3.14)"/><path class="d" d="M14974.627,4122.016a14.215,14.215,0,0,1,5.2,11.035" transform="translate(-14952 -4094)"/><path class="d" d="M14977.465,4117.752c4.609-1.973,8.919-2.6,15.454,0" transform="translate(-14952 -4094)"/><path class="d" d="M14975.618,4111.4c2.2-3.533,1.388-10.836-.223-13.04" transform="translate(-14952 -4094)"/><path class="d" d="M14967.948,4111.9c-4.72-1.879-9.493-1.005-11.666-.524" transform="translate(-14952 -4094)"/></g></svg>