<svg xmlns="http://www.w3.org/2000/svg" xmlns:xlink="http://www.w3.org/1999/xlink" width="46" height="45.994" viewBox="0 0 46 45.994"><defs><style>.a,.b,.e,.h{fill:none;}.a,.e{stroke:#4d3b40;stroke-width:2px;}.b{stroke-linejoin:round;}.c{clip-path:url(#a);}.d{fill:#4d3b40;}.e{stroke-linecap:round;}.f,.g{stroke:none;}.g{fill:#4d3b40;}</style><clipPath id="a"><path class="a" d="M13,0C25.572,0,33.022,5.035,36,10c-2.971,5.027-10.456,10-23,10S-6.992,15.073-10,10C-7,5.007.428,0,13,0Z" transform="translate(17 25)"/></clipPath></defs><g transform="translate(0 1)"><g transform="translate(-7 -12.998)"><g class="b" transform="translate(17 25)"><path class="f" d="M13-1.206C25.572-1.206,32.985,4.986,36,10c-3.013,5.02-10.456,10-23,10S-7.054,14.985-10,10C-6.992,4.994.428-1.206,13-1.206Z"/><path class="g" d="M 13 0.7939434051513672 C 7.662660598754883 0.7939434051513672 2.920949935913086 1.958612442016602 -1.093410491943359 4.255592346191406 C -4.421863555908203 6.160113334655762 -6.459793090820312 8.403315544128418 -7.603302001953125 9.995969772338867 C -6.135921478271484 11.97251129150391 -3.910177230834961 13.74879455566406 -1.215890884399414 15.074782371521 C 2.728139877319336 17.01581192016602 7.51106071472168 18.00000190734863 13 18.00000190734863 C 18.48966026306152 18.00000190734863 23.26424980163574 17.02029228210449 27.19112014770508 15.08807277679443 C 30.45712280273438 13.48104286193848 32.42876052856445 11.56562614440918 33.59992980957031 9.99162769317627 C 32.45439910888672 8.397427558898926 30.41553497314453 6.154366493225098 27.09103012084961 4.252593040466309 C 23.07914924621582 1.957603454589844 18.3382396697998 0.7939434051513672 13 0.7939434051513672 M 13 -1.206056594848633 C 25.57230949401855 -1.206056594848633 32.9853515625 4.985592842102051 36 10.00000286102295 C 32.98730087280273 15.02026271820068 25.54368019104004 20.00000190734863 13 20.00000190734863 C 0.4563198089599609 20.00000190734863 -7.0537109375 14.98462295532227 -10 10.00000286102295 C -6.992191314697266 4.993892669677734 0.4276905059814453 -1.206056594848633 13 -1.206056594848633 Z"/></g><g class="c"><g class="a" transform="translate(21 24)"><circle class="f" cx="9" cy="9" r="9"/><circle class="h" cx="9" cy="9" r="8"/></g><g class="a" transform="translate(22 27)"><circle class="f" cx="3.5" cy="3.5" r="3.5"/><circle class="h" cx="3.5" cy="3.5" r="2.5"/></g><path class="d" d="M-14642-3957a6.007,6.007,0,0,1-6-6c0-.156.007-.319.02-.487a2.479,2.479,0,0,0,1.48.487,2.509,2.509,0,0,0,.5-.05.059.059,0,0,1,0,.013.053.053,0,0,1,0,.012v.025a4,4,0,0,0,4,4,4,4,0,0,0,4-4,4,4,0,0,0-4-4,3.978,3.978,0,0,0-2.154.631,2.5,2.5,0,0,0-1.417-1.453A5.949,5.949,0,0,1-14642-3969a6.007,6.007,0,0,1,6,6A6.007,6.007,0,0,1-14642-3957Z" transform="translate(14672 3996)"/></g><g class="b" transform="translate(17 25)"><path class="f" d="M13,0C25.572,0,31.242,5,33.681,10,29.738,5.031,18,3.121,13,3.121S-3.653,5.01-7.624,10C-5.487,5.052.428,0,13,0Z"/><path class="g" d="M 13 0 C 25.57230949401855 0 31.24219131469727 5.003419876098633 33.68066024780273 10 C 29.73828125 5.031489849090576 18.00418090820312 3.120610237121582 13 3.120610237121582 C 7.995809555053711 3.120610237121582 -3.6533203125 5.009769916534424 -7.624019622802734 10 C -5.487310409545898 5.051760196685791 0.4276905059814453 0 13 0 Z"/></g></g><path class="e" d="M-.5,7.5V.5" transform="translate(23.5 -0.498)"/><path class="e" d="M-.5.5v7" transform="translate(23.5 36.494)"/><path class="e" d="M-.5,7.5V.5" transform="translate(8.103 1.573) rotate(-20)"/><path class="e" d="M0,0V7" transform="translate(10.197 35.202) rotate(20)"/><path class="e" d="M-.5,7.5V.5" transform="translate(38.838 1.915) rotate(20)"/><path class="e" d="M0,0V7" transform="translate(35.803 35.202) rotate(-20)"/></g></svg>