<?xml version="1.0" encoding="UTF-8" standalone="no"?>
<svg xmlns:dc="http://purl.org/dc/elements/1.1/" xmlns:cc="http://creativecommons.org/ns#" xmlns:rdf="http://www.w3.org/1999/02/22-rdf-syntax-ns#" xmlns:svg="http://www.w3.org/2000/svg" xmlns="http://www.w3.org/2000/svg" xmlns:sodipodi="http://sodipodi.sourceforge.net/DTD/sodipodi-0.dtd" xmlns:inkscape="http://www.inkscape.org/namespaces/inkscape" sodipodi:docname="d20-fail.svg" id="svg22" xml:space="preserve" enable-background="new 0 0 100 100" viewBox="0 0 100 100" y="0px" x="0px" version="1.1" fill="#000000" width="100px" height="100px" inkscape:version="0.92.4 (5da689c313, 2019-01-14)">
  <metadata id="metadata28">
    <rdf:RDF>
      <cc:Work rdf:about="">
        <dc:format>image/svg+xml</dc:format>
        <dc:type rdf:resource="http://purl.org/dc/dcmitype/StillImage" />
        <dc:title></dc:title>
      </cc:Work>
    </rdf:RDF>
  </metadata>
  <defs id="defs26" />
  <sodipodi:namedview pagecolor="#ffffff" bordercolor="#666666" borderopacity="1" objecttolerance="10" gridtolerance="10" guidetolerance="10" inkscape:pageopacity="0" inkscape:pageshadow="2" inkscape:window-width="2560" inkscape:window-height="1377" id="namedview24" showgrid="false" inkscape:zoom="8.5559921" inkscape:cx="27.093814" inkscape:cy="39.158492" inkscape:window-x="-8" inkscape:window-y="-8" inkscape:window-maximized="1" inkscape:current-layer="svg22" />

  <g id="g361">
    <path d="M74.33348123384606 77.95176870667733C74.33348123384606 77.95176870667733 74.33348123384606 77.95176870667733 74.33348123384606 77.95176870667733C74.4357801361537 77.8877626287025 74.45552722425008 77.78686758470823 74.45552722425008 77.78686758470823C74.45552722425008 77.78686758470823 74.4752535998986 77.68605918450709 74.4752535998986 77.68605918450709C74.4752535998986 77.68605918450709 74.49496220236597 77.58534161122672 74.49496220236597 77.58534161122672C74.49496220236597 77.58534161122672 74.51465305566144 77.48471474217175 74.51465305566144 77.48471474217175C74.51465305566144 77.48471474217175 74.53432618375106 77.38417845486772 74.55399050188076 77.28373799319345C74.55399050188076 77.28373799319345 74.5736282477634 77.18338249799662 74.5736282477634 77.18338249799662C74.59324834008262 77.0831172184543 74.61285948931523 76.98294525198952 74.61285948931523 76.98294525198952C74.61285948931523 76.98294525198952 82.15009441588765 38.46885019068586 82.15009441588765 38.46885019068586C82.15009441588765 38.46885019068586 82.15009441588765 38.46885019068586 82.16349597173325 38.400362329459526C82.16349597173325 38.400362329459526 82.1768875739116 38.331925335863055 82.1768875739116 38.331925335863055C82.1768875739116 38.331925335863055 82.19026923350782 38.263539153246526 82.19026923350782 38.263539153246526C82.19026923350782 38.263539153246526 82.19026923350782 38.263539153246526 82.20364096159058 38.19520372504407C82.20364096159058 38.19520372504407 82.20364096159058 38.19520372504407 82.21700276921216 38.12691899477379C82.21700276921216 38.12691899477379 82.2303546674084 38.058684906037556 82.2303546674084 38.058684906037556C82.2303546674084 38.058684906037556 82.24369666719883 37.99050140252082 82.24369666719883 37.99050140252082C82.24369666719883 37.99050140252082 82.24369666719883 37.99050140252082 82.24369666719883 37.99050140252082C82.2570287795866 37.92236842799257 82.18818248760412 37.897516984556354 82.20152838739266 37.829453055572145C82.20152838739266 37.829453055572145 82.20152838739266 37.829453055572145 82.20152838739266 37.829453055572145C82.20152838739266 37.829453055572145 82.20152838739266 37.829453055572145 82.20152838739266 37.829453055572145C82.20152838739266 37.829453055572145 82.20152838739266 37.829453055572145 82.21486440557189 37.76143952267703C82.2281905531126 37.69347632992008 82.1594340064843 37.668686637994405 82.1594340064843 37.668686637994405C82.1594340064843 37.668686637994405 82.1594340064843 37.668686637994405 82.1594340064843 37.668686637994405C82.1594340064843 37.668686637994405 82.1594340064843 37.668686637994405 82.17277389621572 37.6007922331666C82.17277389621572 37.6007922331666 82.11741354949618 37.50820285359928 82.11741354949618 37.50820285359928C82.11741354949618 37.50820285359928 82.11741354949618 37.50820285359928 82.11741354949618 37.50820285359928C82.11741354949618 37.50820285359928 82.11741354949618 37.50820285359928 82.11741354949618 37.50820285359928C82.11741354949618 37.50820285359928 82.06210920832793 37.4157066040981 81.99348264236505 37.390992014161235C81.99348264236505 37.390992014161235 81.99348264236505 37.390992014161235 81.92487248119043 37.366286368857104C81.92487248119043 37.366286368857104 81.92487248119043 37.366286368857104 81.92487248119043 37.366286368857104C81.92487248119043 37.366286368857104 60.363663877827456 14.683207158655222 60.363663877827456 14.683207158655222C60.075532870746564 14.414503826152181 59.67458110578727 14.282771922714444 59.33164276649117 14.343762950297082C59.33164276649117 14.343762950297082 31.08921183197117 18.929676368025998 31.08921183197117 18.929676368025998C31.08921183197117 18.929676368025998 31.08921183197117 18.929676368025998 31.08921183197117 18.929676368025998C31.033907790797247 18.909778265702798 31.00499138201981 18.964431092872623 30.949686811597534 18.944524561974273C30.949686811597534 18.944524561974273 30.949686811597534 18.944524561974273 30.894395249180295 18.924622935754442C30.894395249180295 18.924622935754442 30.810136783021363 18.95937528538924 30.810136783021363 18.95937528538924C30.810136783021363 18.95937528538924 30.810136783021363 18.95937528538924 30.72584380837855 18.9941421233563C30.72584380837855 18.9941421233563 30.641515065826614 19.02892345849698 30.641515065826614 19.02892345849698C30.641515065826614 19.02892345849698 30.61244849289069 19.083654681792872 30.55715177108386 19.063719300103337C30.55715177108386 19.063719300103337 30.55715177108386 19.063719300103337 30.472752664180312 19.09852965702845C30.472752664180312 19.09852965702845 30.472752664180312 19.09852965702845 30.472752664180312 19.09852965702845C30.472752664180312 19.09852965702845 30.443617930303976 19.153306829821304 30.443617930303976 19.153306829821304C30.443617930303976 19.153306829821304 30.41446384371467 19.208120388287252 30.359149488683077 19.188154707626914C30.359149488683077 19.188154707626914 30.3299612559375 19.242991285332625 30.3299612559375 19.242991285332625C30.3299612559375 19.242991285332625 30.300753624450724 19.297864307882012 30.300753624450724 19.297864307882012C30.300753624450724 19.297864307882012 30.271526574877466 19.352773811619457 30.271526574877466 19.352773811619457C30.271526574877466 19.352773811619457 30.242280087846726 19.407719832937705 30.242280087846726 19.407719832937705C30.242280087846726 19.407719832937705 30.213014143961725 19.462702408277913 30.213014143961725 19.462702408277913C30.213014143961725 19.462702408277913 30.183728723799863 19.517721574129737 30.183728723799863 19.517721574129737C30.183728723799863 19.517721574129737 30.183728723799863 19.517721574129737 30.154423807912686 19.572777367031428C30.154423807912686 19.572777367031428 14.02626458527904 49.871607892793925 14.02626458527904 49.871607892793925C14.02626458527904 49.871607892793925 14.02626458527904 49.871607892793925 14.02626458527904 49.871607892793925C14.02626458527904 49.871607892793925 14.02626458527904 49.871607892793925 14.02626458527904 49.871607892793925C13.985212006880579 49.948729545747206 13.944126109459598 50.02590952099048 13.903014511746907 50.103155301417C13.903014511746907 50.103155301417 13.86186474238998 50.180459541508704 13.86186474238998 50.180459541508704C13.820682498710587 50.257824788086225 13.842787767401683 50.3635536803121 13.80155811342679 50.44106287887118C13.80155811342679 50.44106287887118 13.80155811342679 50.44106287887118 13.80155811342679 50.44106287887118C13.80155811342679 50.44106287887118 13.80155811342679 50.44106287887118 13.80155811342679 50.44106287887118C13.760297181177814 50.51863415472253 13.782399000162036 50.62464621162066 13.804524971426687 50.730772466785204C13.804524971426687 50.730772466785204 13.804524971426687 50.730772466785204 13.76320409941272 50.80857327499347C13.680463951550294 50.964357260468816 13.702571596627715 51.07085444633248 13.766119469969963 51.09937338865427C13.766119469969963 51.09937338865427 13.766119469969963 51.09937338865427 13.766119469969963 51.09937338865427C13.788289321299134 51.206015945489455 13.788289321299134 51.206015945489455 13.8104835711529 51.312775389860896C13.8104835711529 51.312775389860896 13.8104835711529 51.312775389860896 13.874121055212449 51.34136357165063C13.874121055212449 51.34136357165063 13.874121055212449 51.34136357165063 13.937777305869023 51.3699601840516C13.937777305869023 51.3699601840516 32.82113437665682 86.46594498658854 32.82113437665682 86.46594498658854C32.82113437665682 86.46594498658854 32.82113437665682 86.46594498658854 32.82113437665682 86.46594498658854C32.82113437665682 86.46594498658854 32.8995018601604 86.50577645027742 32.85955246666186 86.61458493948335C32.85955246666186 86.61458493948335 32.937976969534425 86.65446784956013 32.937976969534425 86.65446784956013C32.937976969534425 86.65446784956013 33.01642876851942 86.69436464111988 33.01642876851942 86.69436464111988C33.01642876851942 86.69436464111988 33.0949078778702 86.73427532141108 33.0949078778702 86.73427532141108C33.0949078778702 86.73427532141108 33.173414311850024 86.77419989768737 33.173414311850024 86.77419989768737C33.173414311850024 86.77419989768737 33.173414311850024 86.77419989768737 33.251948084732085 86.81413837720744C33.33050921079954 86.85409076723496 33.33050921079954 86.85409076723496 33.40909315798481 86.8940686864683C33.487709036441785 86.93404892333929 33.487709036441785 86.93404892333929 33.56634777089608 86.9740547120084C33.56634777089608 86.9740547120084 33.56634777089608 86.9740547120084 33.6450184590045 87.01406282484689C33.723716571868366 87.05408488459162 33.723716571868366 87.05408488459162 33.802437593141164 87.09413253007514C33.802437593141164 87.09413253007514 33.881190601696744 87.13418250954751 33.881190601696744 87.13418250954751C33.881190601696744 87.13418250954751 33.959971078069216 87.17424645782592 33.959971078069216 87.17424645782592C33.959971078069216 87.17424645782592 34.038779036631624 87.21432438221981 34.038779036631624 87.21432438221981C34.038779036631624 87.21432438221981 34.11761449176703 87.25441629004375 34.15708561456607 87.14500627558412C34.15708561456607 87.14500627558412 34.15708561456607 87.14500627558412 34.15708561456607 87.14500627558412C34.15708561456607 87.14500627558412 73.5735862233857 78.16110390593279 73.5735862233857 78.16110390593279C73.5735862233857 78.16110390593279 73.5735862233857 78.16110390593279 73.5735862233857 78.16110390593279C73.5735862233857 78.16110390593279 73.5735862233857 78.16110390593279 73.65607031890654 78.19815724553034C73.65607031890654 78.19815724553034 73.65607031890654 78.19815724553034 73.73858210785633 78.23522302551437C73.73858210785633 78.23522302551437 73.8211216041842 78.2723012521511 73.84117870858702 78.17105640863424C73.84117870858702 78.17105640863424 73.94371623940405 78.10692620586424 73.94371623940405 78.10692620586424C73.94371623940405 78.10692620586424 74.0262433069952 78.14396185739452 74.0461964376115 78.04283239033893C74.0461964376115 78.04283239033893 74.14861766542718 77.9787749269805 74.14861766542718 77.9787749269805C74.14861766542718 77.9787749269805 74.16849925310522 77.8777942530976 74.25098081604897 77.91475378692928C74.2311331227859 78.01576807817655 74.25098081604897 77.91475378692928 74.33348919376222 77.9517257120864C74.33348919376222 77.9517257120864 74.33348123384606 77.95176870667733 74.33348123384606 77.95176870667733M29.256808607933902 26.4314777507673C29.256808607933902 26.4314777507673 26.867876320786472 47.85158993343679 26.867876320786472 47.85158993343679C26.82541313209259 48.106125462036616 26.617851348179563 48.38178971247682 26.287883644303726 48.422717696763996C26.287883644303726 48.422717696763996 18.079946408601163 48.83174935295077 18.079946408601163 48.83174935295077C17.747584250468012 48.87285193185775 17.548971235515562 48.50521512430491 17.74546206265919 48.12583242252337C17.74546206265919 48.12583242252337 28.99562296922112 26.404120626973917 28.99562296922112 26.404120626973917C29.057438757858304 26.284762002819374 29.26089978569236 26.290338380567025 29.256808422212984 26.43147902246745C29.256808422212984 26.43147902246745 29.256808607933902 26.4314777507673 29.256808607933902 26.4314777507673M59.26230310565696 61.5306092332409C59.26230310565696 61.5306092332409 31.49232463308313 49.64881558492922 31.49232463308313 49.64881558492922C31.164002337540982 49.50833803166969 31.172575945521658 48.96455964209924 31.439674354058962 48.715041639808376C31.439674354058962 48.715041639808376 53.805712642676895 29.951497352077624 53.805712642676895 29.951497352077624C54.08284733184395 29.770741975067036 54.455320057509795 29.90679123023253 54.48932749687265 30.201603722478705C54.48932749687265 30.201603722478705 59.877060766112024 60.82471584129097 59.877060766112024 60.82471584129097C59.977595898687426 61.35095779288954 59.63302206223963 61.689226490566355 59.262303105656976 61.5306092332409C59.262303105656976 61.5306092332409 59.26230310565696 61.5306092332409 59.26230310565696 61.5306092332409M29.79932513881529 45.69516867484235C29.79932513881529 45.69516867484235 32.07994284672728 22.002941538231372 32.07994284672728 22.002941538231372C32.0833930623571 21.735209373860844 32.39738457471592 21.514634543499234 32.67929548572449 21.617396209828975C32.67929548572449 21.617396209828975 51.981298517846945 27.543141771560347 51.981298517846945 27.543141771560347C52.28631790994877 27.653605474213865 52.415571541882564 28.046129639858567 52.11631899524506 28.284411675282023C52.11631899524506 28.284411675282023 30.47202391439882 46.0665239723756 30.47202391439882 46.0665239723756C30.173301823710723 46.383660428869476 29.722818164728142 46.19363183938749 29.799325138815288 45.69516867484235C29.799325138815288 45.69516867484235 29.79932513881529 45.69516867484235 29.79932513881529 45.69516867484235M57.753829241032726 65.64436342525919C57.753829241032726 65.64436342525919 35.89037588551944 81.5835612428989 35.89037588551944 81.5835612428989C35.54523000835047 81.78185055978031 35.15935930708983 81.59088705140248 35.11937222784475 81.20260722652003C35.11937222784475 81.20260722652003 30.08927043416034 53.530836754886494 30.08927043416034 53.530836754886494C30.03047927832357 53.12373554869295 30.47672000860782 52.6542229453056 30.809829836359683 52.799303715762626C30.809829836359683 52.799303715762626 57.661263404490605 64.49412006305394 57.661263404490605 64.49412006305394C58.036011510609356 64.65733649550947 58.0824664677564 65.3830203362521 57.753826853371436 65.64436342056169C57.753826853371436 65.64436342056169 57.753829241032726 65.64436342525919 57.753829241032726 65.64436342525919M62.61238378930455 59.59272068125764C62.61238378930455 59.59272068125764 56.94236116094065 30.039286693114384 56.94236116094065 30.039286693114384C56.863580061105125 29.6602597732492 57.221061003613414 29.440737191321187 57.53292429859369 29.55368008940551C57.53292429859369 29.55368008940551 78.28147786779557 38.2401175241269 78.28147786779557 38.2401175241269C78.62380074294427 38.36489848838156 78.68741700463788 38.75782142504544 78.55971297546002 39.00795768791192C78.55971297546002 39.00795768791192 63.44955086878163 59.850154681475274 63.44955086878163 59.850154681475274C63.164399983830904 60.300502152710926 62.64515921172195 60.081467254450715 62.612383789304566 59.59272068125764C62.612383789304566 59.59272068125764 62.61238378930455 59.59272068125764 62.61238378930455 59.59272068125764M56.805273615876565 26.278388218583657C56.805273615876565 26.278388218583657 59.76475739604929 17.983195636532095 59.76475739604929 17.983195636532095C59.86106790837316 17.713246891425285 60.269550263932516 17.66931612803402 60.46566446699444 17.8557416059087C60.46566446699444 17.8557416059087 75.75994727691467 34.21983229376142 75.75994727691467 34.21983229376142C75.87775651331258 34.3329783551325 75.76486866446626 34.50563493655801 75.63152050536803 34.45778181753139C75.63152050536803 34.45778181753139 57.045082707327616 26.768488866635384 57.045082707327616 26.768488866635384C56.86108283727594 26.70286593373655 56.74131749048299 26.457652261338264 56.805273615876565 26.278388218583657C56.805273615876565 26.278388218583657 56.805273615876565 26.278388218583657 56.805273615876565 26.278388218583657M54.05752393348976 25.702946895331948C54.05752393348976 25.702946895331948 36.428126862189956 20.39127654668587 36.428126862189956 20.39127654668587C36.31520267173659 20.35075414707716 36.34092336735243 20.163894933984057 36.48104951299327 20.148831869376952C36.48104951299327 20.148831869376952 57.1859373549344 16.815469982355648 57.1859373549344 16.815469982355648C57.4771078221523 16.733226728916478 57.74509638047066 17.063233711125612 57.64570037251551 17.331015643400644C57.64570037251551 17.331015643400644 54.61401465230836 25.49872199791399 54.61401465230836 25.49872199791399C54.548084959643994 25.676351399908267 54.2999964485365 25.789426464729218 54.05752393348976 25.702946895331948C54.05752393348976 25.702946895331948 54.05752393348976 25.702946895331948 54.05752393348976 25.702946895331948M26.88275276066755 51.842648752314204C26.88275276066755 51.842648752314204 30.62155973477792 74.45964590070174 30.62155973477792 74.45964590070174C30.617756056301232 74.69118002951362 30.391777337961642 74.8154296830372 30.28289520842847 74.64571372343237C30.28289520842847 74.64571372343237 18.12206879699 52.76187874735034 18.12206879699 52.76187874735034C17.91875865226925 52.37935001509251 18.262547928914934 51.855997270338754 18.66443627169834 51.84239411124954C18.66443627169834 51.84239411124954 26.495838131346787 51.48466590991183 26.495838131346787 51.48466590991183C26.66342640989303 51.46355981815872 26.82399689258933 51.628008258292034 26.882752760667554 51.842648752314204C26.882752760667554 51.842648752314204 26.88275276066755 51.842648752314204 26.88275276066755 51.842648752314204M62.20640348705772 67.08331978103901C62.20640348705772 67.08331978103901 68.88803445756541 74.21521701059994 68.88803445756541 74.21521701059994C69.24603116389282 74.58984725774903 69.17385796648098 75.31390192404623 68.70460041330924 75.42931086603674C68.70460041330924 75.42931086603674 43.44928379183412 81.02880464010948 43.44928379183412 81.02880464010948C43.25839957192196 81.05656017824319 43.17042865251112 80.77342956341778 43.317040540692595 80.60452305493398C43.317040540692595 80.60452305493398 61.54620635536403 66.99864630927611 61.54620635536403 66.99864630927611C61.82396447549609 66.91627026255719 62.077443905339074 66.92516634355043 62.20640359474986 67.08332270058843C62.20640359474986 67.08332270058843 62.20640348705772 67.08331978103901 62.20640348705772 67.08331978103901M71.66570369224915 72.36420767485384C71.66570369224915 72.36420767485384 64.55882691532493 64.88373617430751 64.55882691532493 64.88373617430751C64.35340836282157 64.69614267579121 64.29290949792755 64.27417746771614 64.45988948431646 63.951221114278205C64.45988948431646 63.951221114278205 77.92225895840836 44.83061663883098 77.92225895840836 44.83061663883098C78.02400229101929 44.71083446435587 78.22107748585232 44.86440455187075 78.19027682580665 45.01122399140015C78.19027682580665 45.01122399140015 72.50776317974959 72.10472963025278 72.50776317974959 72.10472963025278C72.40709374457178 72.5847138368995 71.94521979892895 72.69733224862854 71.66568960728999 72.36423728795435C71.66568960728999 72.36423728795435 71.66570369224915 72.36420767485384 71.66570369224915 72.36420767485384" id="path20" inkscape:connector-curvature="0" style="fill:#000000" />
    <g id="text321" style="font-style:normal;font-weight:normal;font-size:29.33333397px;line-height:1.25;font-family:sans-serif;letter-spacing:0px;word-spacing:0px;fill:#000000;fill-opacity:1;stroke:none" transform="rotate(20)" aria-label="1">
      <path d="M57.27764014875936 31.26585294426902C57.27764014875936 31.26585294426902 60.737892526725645 31.421005074098332 60.737892526725645 31.421005074098332C60.737892526725645 31.421005074098332 60.76602529816202 18.769651603221035 60.76602529816202 18.769651603221035C60.76602529816202 18.769651603221035 57.21479775402367 19.44879637749951 57.21479775402367 19.44879637749951C57.21479775402367 19.44879637749951 57.253300755085505 17.546945014584473 57.253300755085505 17.546945014584473C57.253300755085505 17.546945014584473 60.75060688179091 16.86791975994397 60.75060688179091 16.86791975994397C60.75060688179091 16.86791975994397 62.74269554946571 16.899506375685046 62.74269554946571 16.899506375685046C62.74269554946571 16.899506375685046 62.858483967597536 31.51608897047656 62.858483967597536 31.51608897047656C62.858483967597536 31.51608897047656 66.39689303765849 31.674745520190402 66.39689303765849 31.674745520190402C66.39689303765849 31.674745520190402 66.44792005511854 33.72981946759084 66.44792005511854 33.72981946759084C66.44792005511854 33.72981946759084 57.239783035075234 33.27972138115773 57.239783035075234 33.27972138115773C57.239783035075234 33.27972138115773 57.27764014875936 31.26585294426902 57.27764014875936 31.26585294426902" style="" id="path355" />
    </g>
  </g>
</svg>