<svg xmlns="http://www.w3.org/2000/svg" width="100" height="100" viewBox="0 0 100 100"><defs><style>.a,.c{fill:none;}.b{fill:#4d3b40;}.b,.c{stroke:#4d3b40;stroke-linejoin:round;}.c{stroke-width:3px;}</style></defs><rect class="a" width="100" height="100"/><path class="b" d="M51.509,13.618V24.2l24.729,3.679Z"/><path class="b" d="M71.623,13.217,56.086,32.753,80.763,18.5Z" transform="translate(0 51)"/><path class="b" d="M70.278,9.416,61.1,32.617l9.186,5.3Z" transform="translate(12 29)"/><path class="b" d="M61.114,9.416l9.175,23.2-9.186,5.3Z" transform="translate(-43.404 29)"/><path class="b" d="M65.226,13.217,80.763,32.753,56.086,18.5Z" transform="translate(-36.836 51)"/><path class="b" d="M76.238,13.618V24.2L51.509,27.875Z" transform="translate(-27.759)"/><path class="b" d="M81.9,11.415,63.776,42.827,53.072,15.71Z" transform="translate(-34.759 16)"/><path class="b" d="M53.071,11.41,71.209,42.833,81.918,15.7Z" transform="translate(-0.222 16)"/><path class="b" d="M68.225,3.516,49.586,35.763H86.856Z" transform="translate(-18.222 25)"/><path class="b" d="M68.216,33.365,50.129,10.553h36.2Z" transform="translate(-18.222 53.24)"/><path class="c" d="M63.436,0,84.581,36.8,63.436,73.6H21.145L0,36.8,21.145,0Z" transform="translate(86.804 7.709) rotate(90)"/></svg>