<svg xmlns="http://www.w3.org/2000/svg" xmlns:xlink="http://www.w3.org/1999/xlink" width="70" height="70" viewBox="0 0 70 70"><defs><style>.a{fill:#4d0015;}.b,.c,.d{fill:none;}.c,.d{stroke:#fff;stroke-linecap:round;}.c{stroke-linejoin:round;}.e,.f{stroke:none;}.f{fill:#fff;}.g{filter:url(#a);}</style><filter id="a" x="0" y="0" width="70" height="70" filterUnits="userSpaceOnUse"><feOffset input="SourceAlpha"/><feGaussianBlur stdDeviation="5" result="b"/><feFlood flood-color="#060606" flood-opacity="0.502"/><feComposite operator="in" in2="b"/><feComposite in="SourceGraphic"/></filter></defs><g transform="translate(15 15)"><g class="g" transform="matrix(1, 0, 0, 1, -15, -15)"><circle class="a" cx="20" cy="20" r="20" transform="translate(15 15)"/></g><g class="b" transform="translate(28.484 5.858) rotate(45)"><path class="e" d="M2.667,0H5.333A2.57,2.57,0,0,1,8,2.462V24.615C8,25.5,5.388,32,4,32s-4-6.544-4-7.385V2.462A2.57,2.57,0,0,1,2.667,0Z"/><path class="f" d="M 2.666669845581055 1 C 1.74767017364502 1 1 1.6556396484375 1 2.461540222167969 L 1 24.58807754516602 C 1.045140743255615 24.90996551513672 1.512987613677979 26.32179260253906 2.281189918518066 27.97745895385742 C 3.097841739654541 29.73755073547363 3.698261737823486 30.5657901763916 4.001350879669189 30.88244247436523 C 4.30521297454834 30.5669002532959 4.906756401062012 29.74104881286621 5.72298002243042 27.98533058166504 C 6.495354652404785 26.32394790649414 6.959550857543945 24.90966606140137 7 24.59258270263672 L 7 2.461540222167969 C 7 1.6556396484375 6.25232982635498 1 5.333330154418945 1 L 2.666669845581055 1 M 2.666669845581055 0 L 5.333330154418945 0 C 6.806089878082275 0 8 1.102069854736328 8 2.461540222167969 L 8 24.61537933349609 C 8 25.49901008605957 5.388150215148926 32 4 32 C 2.611849784851074 32 0 25.45585060119629 0 24.61537933349609 L 0 2.461540222167969 C 0 1.102069854736328 1.193910121917725 0 2.666669845581055 0 Z"/></g><path class="c" d="M97.317,64.162V61.787H94.942V59.412H92.567" transform="translate(-80.367 -36.212)"/><path class="d" d="M3,3-1.575-1.556" transform="translate(25.7 12.7)"/></g></svg>