<?xml version="1.0" encoding="UTF-8" standalone="no"?>
<svg
   viewBox="0 0 32.943718 25.846862"
   version="1.1"
   id="svg999"
   sodipodi:docname="eye-solid.svg"
   width="32.943718"
   height="25.846863"
   inkscape:version="1.1.2 (b8e25be833, 2022-02-05)"
   xmlns:inkscape="http://www.inkscape.org/namespaces/inkscape"
   xmlns:sodipodi="http://sodipodi.sourceforge.net/DTD/sodipodi-0.dtd"
   xmlns="http://www.w3.org/2000/svg"
   xmlns:svg="http://www.w3.org/2000/svg">
  <defs
     id="defs1003" />
  <sodipodi:namedview
     id="namedview1001"
     pagecolor="#ffffff"
     bordercolor="#666666"
     borderopacity="1.0"
     inkscape:pageshadow="2"
     inkscape:pageopacity="0.0"
     inkscape:pagecheckerboard="0"
     showgrid="false"
     fit-margin-top="0"
     fit-margin-left="0"
     fit-margin-right="0"
     fit-margin-bottom="0"
     inkscape:zoom="13.640625"
     inkscape:cx="3.9954181"
     inkscape:cy="19.280641"
     inkscape:window-width="1920"
     inkscape:window-height="1017"
     inkscape:window-x="2552"
     inkscape:window-y="352"
     inkscape:window-maximized="1"
     inkscape:current-layer="svg999" />
  <!--! Font Awesome Pro 6.1.1 by @fontawesome - https://fontawesome.com License - https://fontawesome.com/license (Commercial License) Copyright 2022 Fonticons, Inc. -->
  <path
     d="m 16.006706,7.621288 c 0.155293,-0.01664 0.310586,-0.02219 0.465879,-0.02219 2.939473,0 5.324328,2.3349401 5.324328,5.324328 0,2.939473 -2.384855,5.324328 -5.324328,5.324328 -2.98939,0 -5.324329,-2.384855 -5.324329,-5.324328 0,-0.155293 0.0055,-0.310586 0.02218,-0.465879 0.515795,0.249578 1.114781,0.465879 1.752591,0.465879 1.957801,0 3.549553,-1.591752 3.549553,-3.5495519 0,-0.63781 -0.216301,-1.2367971 -0.465879,-1.7525911 z M 27.154513,4.970217 c 2.59561,2.407039 4.33157,5.241135 5.1524,7.271035 0.18302,0.438147 0.18302,0.926211 0,1.364358 -0.82083,1.979985 -2.55679,4.81408 -5.1524,7.271035 -2.61224,2.429225 -6.200619,4.470217 -10.681928,4.470217 -4.481311,0 -8.0696867,-2.040992 -10.6808257,-4.470217 -2.595609,-2.456955 -4.3304529,-5.29105 -5.15566795,-7.271035 -0.181998,-0.438147 -0.181998,-0.926211 0,-1.364358 C 1.4613064,10.211352 3.1961503,7.377256 5.7917593,4.970217 8.4028983,2.5432111 11.991274,0.5 16.472585,0.5 c 4.481309,0 8.069688,2.0432111 10.681928,4.470217 z M 16.472585,4.936937 c -4.40921,0 -7.9864937,3.5772821 -7.9864937,7.986491 0,4.409209 3.5772837,7.986491 7.9864937,7.986491 4.409209,0 7.986488,-3.577282 7.986488,-7.986491 0,-4.4092089 -3.577279,-7.986491 -7.986488,-7.986491 z"
     id="path997"
     style="stroke:#ffffff;stroke-width:1;stroke-miterlimit:4;stroke-dasharray:none;stroke-opacity:1" />
</svg>
