<?xml version="1.0" encoding="UTF-8" standalone="no"?>
<svg
   viewBox="0 0 32.994374 26.594418"
   version="1.1"
   id="svg2467"
   sodipodi:docname="eye-slash-solid.svg"
   width="32.994373"
   height="26.594418"
   inkscape:version="1.1.2 (b8e25be833, 2022-02-05)"
   xmlns:inkscape="http://www.inkscape.org/namespaces/inkscape"
   xmlns:sodipodi="http://sodipodi.sourceforge.net/DTD/sodipodi-0.dtd"
   xmlns="http://www.w3.org/2000/svg"
   xmlns:svg="http://www.w3.org/2000/svg">
  <defs
     id="defs2471" />
  <sodipodi:namedview
     id="namedview2469"
     pagecolor="#ffffff"
     bordercolor="#666666"
     borderopacity="1.0"
     inkscape:pageshadow="2"
     inkscape:pageopacity="0.0"
     inkscape:pagecheckerboard="0"
     showgrid="false"
     fit-margin-top="0"
     fit-margin-left="0"
     fit-margin-right="0"
     fit-margin-bottom="0"
     inkscape:zoom="9.3514872"
     inkscape:cx="6.4695592"
     inkscape:cy="26.092107"
     inkscape:window-width="1920"
     inkscape:window-height="1017"
     inkscape:window-x="2552"
     inkscape:window-y="352"
     inkscape:window-maximized="1"
     inkscape:current-layer="svg2467" />
  <!--! Font Awesome Pro 6.1.1 by @fontawesome - https://fontawesome.com License - https://fontawesome.com/license (Commercial License) Copyright 2022 Fonticons, Inc. -->
  <path
     d="m 8.0319127,5.1354151 c 2.2149803,-1.72498 5.0549503,-3.03847 8.4649303,-3.03847 4.03996,0 7.27493,1.84198 9.62991,4.02997 2.33998,2.16998 3.90497,4.7249599 4.64496,6.5549399 0.165,0.395 0.165,0.83499 0,1.22999 -0.66999,1.61499 -2.01498,3.88997 -3.99496,5.91995 l 5.25995,4.11996 c 0.52,0.41 0.615,1.16499 0.205,1.68499 -0.41,0.52 -1.16499,0.615 -1.68498,0.205 L 0.95677268,2.6414451 c -0.5216,-0.409 -0.61305,-1.16299 -0.2042,-1.68469002 0.40890002,-0.5216 1.16289002,-0.61304 1.68488002,-0.2042 z m 3.6199703,2.83648 4.51496,3.5399699 c 0.21,-0.425 0.33,-0.90499 0.33,-1.45999 0,-0.5299899 -0.195,-1.0699899 -0.42,-1.5349799 0.14,-0.015 0.28,-0.065 0.42,-0.065 2.64997,0 4.79995,2.1499799 4.79995,4.7999599 0,0.72999 -0.14499,1.37998 -0.44499,1.96998 l 1.97498,1.50999 c 0.555,-1.02 0.86999,-2.18999 0.86999,-3.47997 0,-3.9299699 -3.22497,-7.1999399 -7.19993,-7.1999399 -1.86499,0 -3.56997,0.75499 -4.84496,1.91998 z m 4.84496,16.5248599 c -4.03997,0 -7.2749403,-1.83998 -9.6299203,-4.02997 -2.33898,-2.21498 -3.90297,-4.76996 -4.64696,-6.55494 -0.164,-0.395 -0.164,-0.83499 0,-1.22999 0.47699,-1.14499 1.29149,-2.62498 2.43148,-4.1099599 l 4.71546,3.7149599 c -0.045,0.33 -0.07,0.665 -0.07,0.965 0,4.01996 3.2249703,7.24493 7.1999403,7.24493 0.93499,0 1.82998,-0.17999 2.64997,-0.50499 l 3.65997,2.87997 c -1.81498,0.98 -3.91997,1.62499 -6.30994,1.62499 z"
     id="path2465"
     style="stroke:#ffffff;stroke-width:1;stroke-miterlimit:4;stroke-dasharray:none;stroke-opacity:1" />
</svg>
