<?xml version="1.0" encoding="UTF-8" standalone="no"?>
<svg
   xmlns:dc="http://purl.org/dc/elements/1.1/"
   xmlns:cc="http://creativecommons.org/ns#"
   xmlns:rdf="http://www.w3.org/1999/02/22-rdf-syntax-ns#"
   xmlns:svg="http://www.w3.org/2000/svg"
   xmlns="http://www.w3.org/2000/svg"
   xmlns:sodipodi="http://sodipodi.sourceforge.net/DTD/sodipodi-0.dtd"
   xmlns:inkscape="http://www.inkscape.org/namespaces/inkscape"
   aria-hidden="true"
   focusable="false"
   data-prefix="fas"
   data-icon="lock"
   class="svg-inline--fa fa-lock fa-w-14"
   role="img"
   viewBox="0 0 32 32"
   version="1.1"
   id="svg3765"
   sodipodi:docname="lock-solid.svg"
   width="32"
   height="32"
   inkscape:version="0.92.4 (5da689c313, 2019-01-14)">
  <metadata
     id="metadata3771">
    <rdf:RDF>
      <cc:Work
         rdf:about="">
        <dc:format>image/svg+xml</dc:format>
        <dc:type
           rdf:resource="http://purl.org/dc/dcmitype/StillImage" />
        <dc:title></dc:title>
      </cc:Work>
    </rdf:RDF>
  </metadata>
  <defs
     id="defs3769" />
  <sodipodi:namedview
     pagecolor="#ffffff"
     bordercolor="#666666"
     borderopacity="1"
     objecttolerance="10"
     gridtolerance="10"
     guidetolerance="10"
     inkscape:pageopacity="0"
     inkscape:pageshadow="2"
     inkscape:window-width="2560"
     inkscape:window-height="1377"
     id="namedview3767"
     showgrid="false"
     inkscape:zoom="0.4609375"
     inkscape:cx="224"
     inkscape:cy="256"
     inkscape:window-x="-8"
     inkscape:window-y="-8"
     inkscape:window-maximized="1"
     inkscape:current-layer="svg3765" />
  <path
     d="M 28.571429,14 H 26.857143 V 9.5 C 26.857143,4.2625 21.985714,0 16,0 10.014286,0 5.1428571,4.2625 5.1428571,9.5 V 14 H 3.4285714 C 1.5357143,14 0,15.34375 0,17 v 12 c 0,1.65625 1.5357143,3 3.4285714,3 H 28.571429 C 30.464285,32 32,30.65625 32,29 V 17 c 0,-1.65625 -1.535715,-3 -3.428571,-3 z m -7.428572,0 H 10.857143 V 9.5 C 10.857143,7.01875 13.164286,5 16,5 c 2.835714,0 5.142857,2.01875 5.142857,4.5 z"
     id="path3763"
     inkscape:connector-curvature="0"
     style="fill:currentColor;stroke-width:0.06681531" />
</svg>
