<svg xmlns="http://www.w3.org/2000/svg" width="45.998" height="45.998" viewBox="0 0 45.998 45.998"><defs><style>.a{fill:#4d3b40;}</style></defs><path class="a" d="M-14178.261-3997a2.614,2.614,0,0,1-.332-.021l-.66-.075-.4.072a.841.841,0,0,1-.136.01h-.871a.274.274,0,0,1-.053,0l-.636-.043-.846-.043h-.532a.743.743,0,0,1-.449-.146c-.018-.01-.392-.28-.675-.51-.035-.031-.065-.062-.089-.086a1.781,1.781,0,0,1-.433-1.139c0-.025,0-.047-.007-.069l0-.039c0-.021,0-.042-.007-.06a.928.928,0,0,1,0-.161l.082-1.028-.167-1.071a.555.555,0,0,1-.011-.111v-.635l-.09-.989-.043-.439a.647.647,0,0,1,0-.075,1.535,1.535,0,0,1,.032-.279l0-.018,0-.023,0-.018,0-.006v-.039l.09-.853v-1.449l-.043-.5a.72.72,0,0,1,0-.146l.136-1.093.04-.6-.043-.618v-.05a3.4,3.4,0,0,1,.064-.778l.024-.125-.039-.974-.082-.439a.289.289,0,0,1-.011-.078l-.047-.6a2.16,2.16,0,0,1,.122-1.071l-.064-.767-.043.036-.9.867a.241.241,0,0,0-.029.025l0,0-.375.321a3.291,3.291,0,0,1-.653.678l-.688.792a.422.422,0,0,1-.032.035l-.011.011-.468.453-.6.789a2.816,2.816,0,0,1-.34.389l-.007.008-.011.01-.01.007,0,0,0,0-.687.625a.8.8,0,0,1-.064.05l-.346.25-.653.557-.09.118a2.569,2.569,0,0,1-.539.494l-.014.009-.058.039-.531.4a1.8,1.8,0,0,1-1.343.6,2.624,2.624,0,0,1-1.613-.814l-.268-.221-.1-.064a.263.263,0,0,0-.03-.024l-.01-.006c-.033-.024-.07-.05-.106-.073l-.022-.016,0,0a2.448,2.448,0,0,1-.547-.477l-.45-.521-.016-.019-.017-.021-.768-1.031-.378-.3a.733.733,0,0,1-.125-.121l-.617-.771-1.11-1.117-.9-.822.461-.227.232-.089a2.206,2.206,0,0,0,.46-.228l.263-.16.526.485a.075.075,0,0,0,.025.025l1.146,1.156a.242.242,0,0,1,.03.031c.009.01.016.018.023.026l.589.735.389.3a.8.8,0,0,1,.14.143l.813,1.092.442.514a.091.091,0,0,0,.025.029,1.145,1.145,0,0,0,.209.168l.006,0,.038.027c.04.027.086.057.129.089l.121.078a.317.317,0,0,1,.071.054l.325.264a.171.171,0,0,0,.023.025l.016.015a1.55,1.55,0,0,0,.593.41.307.307,0,0,0,.231-.139.885.885,0,0,1,.118-.111l.6-.446.007,0,0,0,.06-.046a.953.953,0,0,0,.247-.211l.139-.179a1.03,1.03,0,0,1,.107-.11l.735-.621a.352.352,0,0,1,.043-.036l.335-.243.649-.589a1.382,1.382,0,0,0,.175-.189.071.071,0,0,1,.019-.029l.643-.846c.026-.031.051-.058.074-.082l.482-.468.714-.824a.693.693,0,0,1,.106-.1,1.8,1.8,0,0,0,.422-.432.85.85,0,0,1,.114-.139l.046-.043.016-.016.017-.016.4-.339.9-.878.016-.012.01-.009a.291.291,0,0,1,.025-.021l.827-.667a.767.767,0,0,1,.478-.167.716.716,0,0,1,.1.007.751.751,0,0,1,.518.3l.32.443a.769.769,0,0,1,.114.243l.136.532a.613.613,0,0,1,.021.118l.09,1.067a.69.69,0,0,1-.058.346.762.762,0,0,0-.082.514.126.126,0,0,0,0,.02.123.123,0,0,1,0,.02l.043.582.085.45a.424.424,0,0,1,.011.1l.047,1.11a.724.724,0,0,1-.015.175l-.046.221a.089.089,0,0,1-.008.032,2.434,2.434,0,0,0-.024.425l.046.642v.1l-.046.667a.126.126,0,0,1,0,.02.126.126,0,0,0,0,.02l-.128,1.039.039.46a.085.085,0,0,0,0,.016v.015a.3.3,0,0,1,0,.03v1.529a.1.1,0,0,0,0,.017c0,.012,0,.025,0,.039l-.093.864a1.386,1.386,0,0,1-.036.253h0v.006a.044.044,0,0,0,0,.012l.039.368v.007l.093,1.024a.089.089,0,0,0,0,.016v.016c0,.01,0,.021,0,.032v.61l.175,1.1a.655.655,0,0,1,0,.168l-.086,1.039c0,.018,0,.035.006.052l0,.029c0,.03.006.059.01.087a.656.656,0,0,0,.05.275c.086.071.182.142.266.2l.043.033.045.033h.335l.875.046h.014l.618.043h.777l.436-.078a.9.9,0,0,1,.136-.011.8.8,0,0,1,.09,0l.777.089a.046.046,0,0,0,.021,0,.77.77,0,0,0,.129.007.825.825,0,0,0,.4-.1.163.163,0,0,1,.034-.018.37.37,0,0,0,.14-.146c.046-.093.046-.115.046-.139v-.053l.086-1.164-.078-.5a.8.8,0,0,1-.008-.157l.094-1.417.042-1.106-.039-.5-.179-1.035a.014.014,0,0,1,0-.01l-.093-.578a.87.87,0,0,1-.008-.143l.047-.978a.05.05,0,0,1,0-.025l.042-.564.043-.964-.039-.443a.68.68,0,0,1,.021-.253l.179-.642a3.179,3.179,0,0,0,.024-.5v-.546l-.132-1.406-.179-1a.721.721,0,0,1,0-.225l.046-.311a.626.626,0,0,1,.015-.075.6.6,0,0,0,.024-.225v-1.067a.633.633,0,0,1,0-.086l.14-1.114v-.018l.039-.257v-.364l-.09-.992v-1.51l-.082-.425a.824.824,0,0,1-.011-.132v-1.11a.692.692,0,0,1,.047-.257,1.4,1.4,0,0,0,.05-.732.02.02,0,0,0,0-.006.037.037,0,0,1,0-.008l-.042-.489a.02.02,0,0,1,0-.014l-.047-.625v-.025l-.046-1.181-.043-.468a.708.708,0,0,1,0-.129l.089-1.039v-.3l-.089-1.082a.673.673,0,0,1,0-.15l.043-.357.011-.05a.578.578,0,0,0,0-.157c-.006-.044-.011-.1-.014-.177V-4028l-.039-.4-.475.335a1.376,1.376,0,0,1-.172.136.65.65,0,0,1-.057.043.553.553,0,0,1-.043.039l-.268.225-.718.857-.164.239a1.269,1.269,0,0,1-.09.108l-.831.8-.025.025-.478.417-.757.817a.688.688,0,0,1-.275.189,1.1,1.1,0,0,0-.235.236.137.137,0,0,0-.011.017l0,0a.12.12,0,0,1-.015.018l-.414.578a.7.7,0,0,1-.243.218l-.249.139a1.566,1.566,0,0,1-.133.1l-.017.013-.008.006a.158.158,0,0,0-.032.027.1.1,0,0,0-.021.018l-.6.535-.027.022-.017.012c-.017.013-.032.025-.049.037l-.511.328-.739.635-.328.4a.433.433,0,0,1-.071.075l-.828.757a.617.617,0,0,1-.1.075l-.078.05a2.139,2.139,0,0,0-.339.389s0,.005,0,.007l-.367.578a.768.768,0,0,1-.3.268l-.015.007a3.735,3.735,0,0,0-.352.375l-.01.012-.053.062-.446.607a.053.053,0,0,0-.008.011.039.039,0,0,1-.01.014l-.321.4a.835.835,0,0,1-.1.1l-.75.639-.386.414a.176.176,0,0,1-.039.039l-.921.846a.9.9,0,0,1-.128.1l-.461.268a.782.782,0,0,1-.264.093l-.825.132a.761.761,0,0,1-.13.011.756.756,0,0,1-.576-.265l-.354-.421-.3-.214c-.018-.013-.034-.028-.05-.042l-.01-.009-.019-.016-.828-.8-.006-.006,0,0-.006-.006a.1.1,0,0,1-.019-.02l-.3-.335-.076-.074.568-.961.186-.318.018-.029.383.371.035.036.3.335.771.75.325.236a.722.722,0,0,1,.132.121l.14.164.257-.043.268-.153.835-.771.4-.425a.447.447,0,0,1,.04-.041l.021-.019.729-.622.268-.335.453-.61a.154.154,0,0,1,.025-.032,4.394,4.394,0,0,1,.714-.735l.01-.009,0,0,.006-.006.265-.417a3.746,3.746,0,0,1,.617-.714l0,0a.644.644,0,0,1,.111-.085l.085-.057.742-.678.336-.407a.782.782,0,0,1,.085-.089l.828-.71a.793.793,0,0,1,.082-.061l.5-.325.542-.489a2.324,2.324,0,0,1,.2-.157l.009-.007.023-.018.012-.009a.143.143,0,0,0,.022-.02.754.754,0,0,1,.158-.114l.174-.1.3-.428a2.841,2.841,0,0,1,.732-.718l.018-.012.014-.009.032-.021.653-.707.054-.053.492-.432.765-.739.143-.207a.519.519,0,0,1,.039-.053l.781-.935a.885.885,0,0,1,.1-.093l.3-.253c.06-.054.114-.1.159-.131l.033-.026a.309.309,0,0,0,.058-.043c.024-.021.055-.048.085-.071l.832-.593a1.7,1.7,0,0,1,1.152-.478,1.511,1.511,0,0,1,.489.079.72.72,0,0,1,.5.849l-.11.464.078.771a.436.436,0,0,1,0,.071c0,.016,0,.033,0,.053v.01l0,.04v.011a1.855,1.855,0,0,1-.015.531l-.036.26.086,1.039a.282.282,0,0,1,0,.057v.357a.318.318,0,0,1,0,.061l-.086,1,.039.428a.122.122,0,0,1,0,.039l.047,1.189.042.6.047.475a2.811,2.811,0,0,1-.089,1.263v.925l.078.425,0,.013,0,.011a.752.752,0,0,1,.011.107v1.481l.089.992a.255.255,0,0,0,0,.026c0,.013,0,.024,0,.035v.446a.478.478,0,0,1-.011.1l-.043.3-.132,1.06v1.024a1.82,1.82,0,0,1-.062.539l-.021.161.165.91,0,.026c0,.011,0,.022,0,.035l.139,1.467v.646a3.886,3.886,0,0,1-.061.81.1.1,0,0,1-.011.043l-.146.543.032.364a.8.8,0,0,1,0,.1l-.046,1.024a.042.042,0,0,1,0,.021l-.043.568-.043.9.079.5.186,1.063,0,.014v.014c0,.012,0,.025,0,.037l.046.578v.082l-.046,1.156v.018l-.086,1.346.079.5a.558.558,0,0,1,.007.161l-.089,1.224a1.7,1.7,0,0,1-.218.785.171.171,0,0,1-.02.034l-.01.016a1.832,1.832,0,0,1-.746.71A2.4,2.4,0,0,1-14178.261-3997Zm-29.436-.114a2.274,2.274,0,0,1-.45-.046l-.25-.043a.739.739,0,0,1-.475-.279,1.855,1.855,0,0,1-.481-1.46l-.125-1.078a.53.53,0,0,1,0-.079v-.61l.047-1.067a.358.358,0,0,1,.011-.089l.078-.46-.043-1.128v-.453l-.046-.875v-.764l.093-1.067v-.007l.043-.439-.043-.882v-.528l-.086-.689a1.977,1.977,0,0,1-.015-.571v-.014c0-.047.007-.081.007-.1v-.243l-.012-.171.169-.011.417-.093.7.046.214-.015.011.176a.172.172,0,0,1,0,.046v.264a2.06,2.06,0,0,1-.015.236.739.739,0,0,0,0,.2l0,.008v.006a.243.243,0,0,1,0,.046l.093.757v.01a.577.577,0,0,1,.006.072v.517l.043.917a.568.568,0,0,1,0,.1l-.047.489-.089,1.035v.617l.046.871v.468l.043,1.189a.691.691,0,0,1-.007.146l-.086.489-.043,1.01v.521l.133,1.164a.717.717,0,0,1-.021.271.885.885,0,0,0,.053.125,0,0,0,0,0,0,0,.686.686,0,0,0,.123.01.586.586,0,0,0,.091-.007l.1-.032a.779.779,0,0,1,.244-.04h.027l.875.043.036-.006h.008l.023,0,.048-.007c.064-.009.131-.019.2-.022l1.071-.132a.717.717,0,0,1,.093-.006l.064,0,.535.046.985.043c.053,0,.1,0,.141.008l.041,0a2.836,2.836,0,0,0,.449-.439l-.067-.789a.759.759,0,0,1,0-.164l.089-.585.039-.964-.157-.564a.743.743,0,0,1-.021-.218l.042-1.014-.042-.4c0-.012,0-.023,0-.035s0-.024,0-.037v-1.067a.758.758,0,0,1,.018-.154l.129-.582.043-.407a.046.046,0,0,1,0-.018,1.435,1.435,0,0,0-.085-.693.71.71,0,0,1-.058-.346l.093-1.024v-.011l0-.015a.6.6,0,0,1,.012-.074l.121-.5v-1.353l-.086-.946-.082-.353a.693.693,0,0,1-.014-.089l-.021-.214.421-.182.093-.043a1.75,1.75,0,0,0,.2-.088,1.5,1.5,0,0,1,.218-.094l.508-.265.07.7.082.357a.435.435,0,0,1,.014.1l.093,1.021a.354.354,0,0,1,0,.064v1.467a.859.859,0,0,1-.018.164l-.129.528-.071.81a2.867,2.867,0,0,1,.121,1.249l-.046.436-.006.042,0,.04-.121.546v.957l.042.407c0,.012,0,.024,0,.036a.387.387,0,0,1,0,.068l-.039.957.153.56a.648.648,0,0,1,.025.218l-.047,1.114a.457.457,0,0,1-.007.072l-.078.542.085.985a.721.721,0,0,1-.135.482,3.694,3.694,0,0,1-1.346,1.189.2.2,0,0,1-.043.014,1.153,1.153,0,0,1-.375.057,1.815,1.815,0,0,1-.222-.014h0l-.034,0h-.022a.076.076,0,0,1-.028,0l-1.014-.043a.081.081,0,0,1-.028,0l-.472-.036-1.028.125h-.033l-.034,0-.026,0-.06.01-.049.007a1.665,1.665,0,0,1-.244.023h-.05l-.777-.036a.373.373,0,0,1-.062.014A1.894,1.894,0,0,1-14207.7-3997.116Zm-1.528-18.986h0l-.063-.448,0-.009a.163.163,0,0,1-.006-.038l-.085-1.053-.032-.118,0-.009a.1.1,0,0,1,0-.027,2.756,2.756,0,0,1-.061-.675v-.046l.039-.617-.024-.128a.134.134,0,0,1-.007-.039,2.622,2.622,0,0,1,.022-.864l0-.014.006-.031.007-.04.009-.053.089-.667a.1.1,0,0,0,0-.016.094.094,0,0,1,0-.016l.078-.425v-.932l-.043-.6v-.01a.051.051,0,0,1,0-.012.253.253,0,0,1,0-.028v-1.067c0-.011,0-.022,0-.033a.072.072,0,0,1,0-.015v-.013l.04-.475-.086-1.053v-.61l.093-1.067v-.011l.043-.389-.047-.7v-.4a.885.885,0,0,1,.011-.116l0-.012,0-.014.089-.435a1.317,1.317,0,0,1,.925-1.106.776.776,0,0,1,.182-.022.764.764,0,0,1,.386.1l.436.253.157.075a.614.614,0,0,1,.082.046,3.193,3.193,0,0,1,.473.395l.009.009.368.353a2.647,2.647,0,0,1,.478.578l.2.271.557.75.328.314a.412.412,0,0,1,.032.036l.671.739.454.436.507.371.017.011.016.011a3.242,3.242,0,0,1,.756.81l.682.585a.133.133,0,0,1,.036.029l.768.746.281.246-.164.614-.139.364-.244.565-.28-.312-.475-.414a.2.2,0,0,0-.029-.025l-.764-.742-.76-.65a.716.716,0,0,1-.175-.221,1.776,1.776,0,0,0-.439-.468l-.535-.389-.01-.008a.6.6,0,0,1-.072-.06l-.5-.489a.16.16,0,0,1-.032-.032l-.674-.739-.354-.343a.536.536,0,0,1-.075-.086l-.832-1.117a.988.988,0,0,1-.061-.1,1.1,1.1,0,0,0-.2-.228l-.029-.029-.367-.357-.016-.015-.04-.037c-.038-.037-.083-.08-.127-.116l-.011.039v.26l.047.735a.711.711,0,0,1,0,.118l-.043.439-.089,1.031v.428l.089,1.085a.592.592,0,0,1,0,.118l-.043.5v1.014l.043.6v1.074a.8.8,0,0,1-.011.132l-.089.471-.089.649v.007l-.009.053a.708.708,0,0,0-.013.093l0,.012,0,.011a1.27,1.27,0,0,0-.025.409l.043.2a.664.664,0,0,1,.011.189l-.043.689a1.247,1.247,0,0,0,.029.353l.042.161a1.087,1.087,0,0,1,.019.118l.093,1.089.042.3-.639.072-.557.229-.271.034Z" transform="translate(14222 4043)"/><path class="a" d="M-1.514,9.556h-.4l-.955-.044-.047,0-.351-.038-.941.041h-.5l-.417.04a.774.774,0,0,1-.114,0l-.844-.043a2.009,2.009,0,0,1-.594-.071l-.433-.1H-8.06a1.965,1.965,0,0,1-.816-.2,2.052,2.052,0,0,1-1.037-.951,2.208,2.208,0,0,1-.216-1.117V6.5q0-.03,0-.06l.044-.512.04-1-.093-.271a.706.706,0,0,1-.033-.145l-.089-.733a2.243,2.243,0,0,1,.032-.831l.015-.085.037-.248V1.7a.7.7,0,0,1,.008-.1l.081-.551-.088-2.178a.7.7,0,0,1,0-.089l.04-.468-.04-.468a.7.7,0,0,1,0-.136l.084-.773-.039-.527-.133-.9a.7.7,0,0,1-.005-.158l.044-.56.043-.957-.087-1.1q0-.028,0-.056A3.432,3.432,0,0,1-10.2-8.1l.025-.121-.042-1.014a.7.7,0,0,1,.012-.159l.088-.466.132-.98.042-.452.043-1.037-.041-.474-.09-.782a.7.7,0,0,1,0-.08,2.821,2.821,0,0,1,.058-.664l.028-.188-.082-.793a.7.7,0,0,1,0-.072v-.352a.7.7,0,0,1,.008-.1l.03-.2-.074-.466v-.008a3.266,3.266,0,0,1,0-1.059.707.707,0,0,1,.026-.1l-.035-.786-.044-.514q0-.03,0-.06v-.792a2.332,2.332,0,0,1,.055-.564l.04-.352q0-.022.007-.044l.171-.951v-.289A.712.712,0,0,1-9.7-22.47a6.32,6.32,0,0,1,.926-.947,1.777,1.777,0,0,1,1.214-.348.774.774,0,0,1,.093.006l.607.073L-6.3-23.8a.773.773,0,0,1,.177-.014L-5-23.766h.471l1.2-.043.528-.043a.775.775,0,0,1,.1,0l.937.043h.508l.844-.043h.039a2.438,2.438,0,0,1,.613.059l.265.037.017,0,.338.055.032-.013a.77.77,0,0,1,.131-.038l.05-.01a2.746,2.746,0,0,1,.559-.067,2.13,2.13,0,0,1,.343.028L2-23.8l.2.038,1.107.129a.771.771,0,0,1,.108.02l.418.11,1.036.04h.485q.037,0,.075,0l.455.044.031,0A3,3,0,0,1,7-23.018h.256a.771.771,0,0,1,.3.062l1.117.476,1.071.389.047.019.469.206,1.013.341a.763.763,0,0,1,.089.036l.455.22a.75.75,0,0,1,.195.136l.076.074.655.4q.027.016.053.035l.087.062a1.9,1.9,0,0,1,.472.436l.024.033.013.02.659.45.048.035.545.44.024.021.5.44.026.024c.02.019.065.052.1.082a1.632,1.632,0,0,1,.389.369l.178.241.581.522.02.019a1.97,1.97,0,0,1,.327.381l.233.3.4.472.02.024a4.722,4.722,0,0,1,.434.683l.084.163.493.868a.719.719,0,0,1,.039.08l.151.367a.955.955,0,0,1,.127.443l.241.738a.708.708,0,0,1,.025.1l.085.492.251.893.166.4a.71.71,0,0,1,.034.1l.181.744a2.3,2.3,0,0,1,.066.611v.259l.129.92a.7.7,0,0,1,.007.1v.44a.7.7,0,0,1-.01.119L19.93-7.6l.064.31a.7.7,0,0,1,.013.194l-.037.507.111.466a.7.7,0,0,1,.019.195l-.045,1v.248a2.265,2.265,0,0,1-.1.636l-.018.068q-.007.027-.016.054l-.128.372a2.361,2.361,0,0,1-.381.787l-.34.913L19-1.428a.709.709,0,0,1-.044.145l-.393.931-.08.27a.712.712,0,0,1-.043.111l-.409.836q-.014.028-.03.055l-.316.525-.18.306,0,.006-.636,1.056q-.013.022-.028.043l-.682.968a.729.729,0,0,1-.05.064l-.23.26a1,1,0,0,1-.251.256l-.014.01-.015.014-.727.66-.044.037-.455.352a.751.751,0,0,1-.071.049l-.719.435a2.939,2.939,0,0,1-.6.29l-.181.07-.869.421L11.436,7l-.008,0-.773.4a.764.764,0,0,1-.114.047c-.019.006-.069.031-.106.049a2.619,2.619,0,0,1-.244.107l-.051.025-.033.015L8.969,8.13l-.014.006-.545.22q-.032.013-.065.023l-.727.22-.042.011c-.032.008-.074.02-.12.033a2.489,2.489,0,0,1-.7.121H6.523L6.189,8.8l-.583.188a3.837,3.837,0,0,1-.816.21q-.035.006-.07.008l-.636.044a.774.774,0,0,1-.1,0L3.407,9.21l-.3.065a.773.773,0,0,1-.113.016l-.654.042-.29.04a1.532,1.532,0,0,1-.417-.022l-.116-.015a.774.774,0,0,1-.089-.007L1.16,9.292H.782a3.41,3.41,0,0,1-.933.132H-.8l-.329.071-.016,0-.227.044A.774.774,0,0,1-1.514,9.556ZM-1.86,8.1h.272l.147-.028.4-.086a.774.774,0,0,1,.163-.017h.727A1.892,1.892,0,0,0,.43,7.877.772.772,0,0,1,.667,7.84h.545a.774.774,0,0,1,.106.007l.28.039c.078,0,.158.016.242.027l.077.01.234-.032.056-.006.625-.04.353-.076A.774.774,0,0,1,3.4,7.753l.63.041.549-.038a2.24,2.24,0,0,0,.493-.128l.041-.015.682-.22a.771.771,0,0,1,.163-.034l.455-.044q.037,0,.075,0h.273a1.376,1.376,0,0,0,.273-.061c.051-.015.1-.03.158-.043L7.865,7l.507-.2,1.113-.474.074-.036a.764.764,0,0,1,.1-.039c.019-.006.069-.031.106-.049.066-.032.145-.07.235-.1l.723-.371.5-.262.024-.012.909-.44.057-.025.227-.088.041-.015a1.428,1.428,0,0,0,.276-.135l.019-.012.69-.418.4-.308.7-.634c.038-.036.073-.066.1-.088l.031-.038.246-.278.644-.914L16.2,1.028l.18-.305,0-.006.3-.5.369-.754.074-.251a.71.71,0,0,1,.027-.075l.379-.9.077-.409a.708.708,0,0,1,.032-.116l.409-1.1a.724.724,0,0,1,.175-.267.984.984,0,0,0,.121-.279q.007-.027.016-.054l.128-.371.014-.053a.916.916,0,0,0,.047-.271v-.264q0-.016,0-.032l.041-.914-.113-.476a.7.7,0,0,1-.017-.215L18.5-7.1l-.071-.344a.7.7,0,0,1,0-.262l.035-.2v-.331l-.129-.92a.7.7,0,0,1-.007-.1V-9.57a.938.938,0,0,0-.023-.264l0-.01-.169-.7-.161-.39a.711.711,0,0,1-.027-.079l-.273-.968a.706.706,0,0,1-.016-.072l-.082-.478-.257-.788a.706.706,0,0,1-.034-.187l-.157-.381-.478-.841-.014-.025-.091-.176a3.308,3.308,0,0,0-.284-.45l-.4-.471-.02-.024-.273-.352a.725.725,0,0,1-.056-.085c-.019-.022-.06-.062-.091-.092l-.626-.563a.734.734,0,0,1-.1-.11l-.22-.3c-.018-.015-.052-.039-.077-.058a2.476,2.476,0,0,1-.244-.2l-.477-.42-.51-.411-.748-.511a.738.738,0,0,1-.192-.191l-.078-.114a.529.529,0,0,0-.14-.116l-.081-.058-.7-.424a.747.747,0,0,1-.133-.1l-.05-.049-.3-.146-1-.337q-.033-.011-.064-.025L9.2-20.74l-1.067-.388-.039-.015L7.1-21.565H6.758a.763.763,0,0,1-.518-.2,1.508,1.508,0,0,0-.529-.2l-.4-.039H4.819L3.683-22.05a.772.772,0,0,1-.167-.025l-.447-.118-1.082-.126-.058-.009-.213-.041a.877.877,0,0,0-.333.028l-.164.064a.773.773,0,0,1-.4.042L.28-22.322l-.309-.043a.771.771,0,0,1-.124-.028A1.519,1.519,0,0,0-.359-22.4l-.844.043h-.621l-.905-.042-.5.04-.035,0-1.227.044h-.558l-1.047-.041-.594.115a.774.774,0,0,1-.24.008l-.68-.082a1.55,1.55,0,0,0-.2.011l-.027.02a3.846,3.846,0,0,0-.518.512v.1a.7.7,0,0,1-.011.124l-.178.99-.043.374a.706.706,0,0,1-.018.1.938.938,0,0,0-.023.264v.762l.043.5q0,.014,0,.029l.045,1.012a.707.707,0,0,1-.074.347,2.039,2.039,0,0,0,.021.458l.09.568a.7.7,0,0,1,0,.213l-.038.257v.264l.087.844a.7.7,0,0,1,0,.175l-.045.308a.7.7,0,0,1-.015.073,1.363,1.363,0,0,0-.023.312l.086.752,0,.02.045.528a.7.7,0,0,1,0,.089l-.045,1.1q0,.018,0,.037l-.045.484q0,.014,0,.028l-.136,1.012q0,.018-.006.036l-.076.405.042,1.02a.7.7,0,0,1-.014.171l-.045.22q0,.017-.008.034a2.478,2.478,0,0,0-.023.412l.089,1.117a.7.7,0,0,1,0,.087L-8.72-5.136q0,.012,0,.024l-.039.493.125.845q0,.025.006.051l.045.616a.7.7,0,0,1,0,.128l-.084.768.04.46a.7.7,0,0,1,0,.121l-.042.484.089,2.2a.7.7,0,0,1-.007.131l-.083.565v.917a.7.7,0,0,1-.008.1l-.045.308,0,.017c-.006.036-.012.07-.018.1a.937.937,0,0,0-.027.362q0,.017.005.035l.082.674.112.325a.7.7,0,0,1,.038.258L-8.583,6q0,.016,0,.032l-.043.5v.542a.927.927,0,0,0,.057.468.584.584,0,0,0,.306.274l.04.018a.558.558,0,0,0,.169.055h1.041a.773.773,0,0,1,.182.022l.545.132.055.016a1.175,1.175,0,0,0,.172.007h.039l.806.041.4-.039q.037,0,.075,0h.483l.983-.043a.775.775,0,0,1,.117,0l.386.041Zm2.937-4.27a.773.773,0,0,1-.182-.022,1.519,1.519,0,0,0-.727,0,.774.774,0,0,1-.248.019L-1.626,3.7a.767.767,0,0,1-.327-.1l-.591-.352A.722.722,0,0,1-2.9,2.623V2.051a.7.7,0,0,1,.006-.09l.04-.307V.177l-.1-.338a.7.7,0,0,1-.015-.361l.12-.541V-1.17A1.52,1.52,0,0,1-2.9-1.453l-.13-.883a.7.7,0,0,1-.008-.1v-.514l-.042-1.011-.072-.28a.7.7,0,0,1-.022-.151l-.045-1.273-.045-1.009a.7.7,0,0,1,.017-.189l.091-.4,0-.01c0-.014,0-.044-.006-.067-.006-.051-.012-.113-.014-.185l-.045-.866a.7.7,0,0,1,0-.092l.045-.572.091-1.061a.7.7,0,0,1,.02-.116l.045-.176q.007-.027.016-.054a.853.853,0,0,0,.052-.255v-.747L-3.06-11.9a.7.7,0,0,1,0-.352l.038-.146a3.679,3.679,0,0,0,.031-.6v-.067l-.079-.42a.7.7,0,0,1-.011-.1l-.045-.914-.045-.562q0-.028,0-.056v-.968a.705.705,0,0,1,.038-.23l.182-.528a.72.72,0,0,1,.129-.228l.591-.7a.76.76,0,0,1,.582-.268h.273c.08,0,.152.007.215.013l.07.006.029-.006.955-.176a.773.773,0,0,1,.176-.012l.955.044.027,0,.489.039.626-.04a.775.775,0,0,1,.139,0l1.136.132a.771.771,0,0,1,.131.027l1.182.352.049.016.554.207,1.144.3a.763.763,0,0,1,.191.079l.441.256.975.515.352.17A.751.751,0,0,1,8.636-16l.773.7a.737.737,0,0,1,.055.056l.247.279.789.722q.022.02.043.042l.409.44.007.008.636.7a.725.725,0,0,1,.106.153l.227.44.019.039.409.924a.708.708,0,0,1,.054.19l.088.64.223,1.124a.7.7,0,0,1,.013.164L12.69-8.178q0,.017,0,.033l-.034.4.1.361a.7.7,0,0,1,.019.294l-.087.591-.04.547.043.836a.7.7,0,0,1-.021.212l-.136.528,0,.007-.273,1.012a.711.711,0,0,1-.023.072l-.136.352-.012.028-.5,1.144-.009.02-.5,1.056a.735.735,0,0,1-.3.32l-.192.112a2.479,2.479,0,0,0-.277.242L9.831.54a.741.741,0,0,1-.123.112l-.52.377-.8.7L8.146,2a.748.748,0,0,1-.247.183L6.977,2.6l-.424.246a.763.763,0,0,1-.191.079l-1.182.308a.772.772,0,0,1-.109.02l-1.077.12-.448.181a.77.77,0,0,1-.191.05L2.31,3.74a.775.775,0,0,1-.165,0l-.386-.034-.525.109A.773.773,0,0,1,1.076,3.834ZM-1.318,2.267l1.252.107a3.056,3.056,0,0,1,1.142-.009l.479-.1a.774.774,0,0,1,.225-.013l.417.037.864-.109L3.515,2a.77.77,0,0,1,.2-.051L4.844,1.82l1.027-.268.365-.212q.031-.018.063-.033L7.11.933,7.28.742A.738.738,0,0,1,7.349.674l.864-.748q.024-.021.05-.04L8.74-.461l.445-.51q.02-.023.042-.044a4.009,4.009,0,0,1,.489-.42.75.75,0,0,1,.064-.042l.028-.016.4-.842.49-1.121.117-.3.262-.973.108-.42-.04-.773a.7.7,0,0,1,0-.088l.045-.616q0-.026.006-.051l.069-.467-.1-.339a.7.7,0,0,1-.024-.251l.044-.511.042-1.089L11.022-10.4q0-.02-.007-.041L10.937-11l-.36-.813-.174-.338-.569-.63L9.448-13.2l-.8-.728a.739.739,0,0,1-.054-.055l-.247-.279-.663-.6-.265-.128L7.4-15.007l-1-.528-.027-.015-.365-.212-1.081-.282a.767.767,0,0,1-.074-.023l-.567-.211L3.193-16.6l-1-.116-.612.04a.775.775,0,0,1-.112,0l-.532-.043-.852-.039-.832.153a1.18,1.18,0,0,1-.324.039c-.086,0-.164-.007-.228-.013l-.274.327-.1.291v.823l.043.544q0,.011,0,.021l.043.876.082.437a.7.7,0,0,1,.012.13V-13a4.778,4.778,0,0,1-.056.868q0,.029-.012.057l.091.352a.7.7,0,0,1,.022.176v.836a2.184,2.184,0,0,1-.12.685l-.024.094-.086,1-.041.522.043.834q0,.018,0,.036c0,.006,0,.032.005.052a1.494,1.494,0,0,1-.025.554l-.068.3.041.917v.007l.043,1.2.072.278a.7.7,0,0,1,.022.147L-1.538-3q0,.014,0,.029v.477l.129.873a.7.7,0,0,1,.007.093c0,.009.005.024.008.036a1.2,1.2,0,0,1,.038.282v.22a.7.7,0,0,1-.017.152l-.1.434.081.262A.705.705,0,0,1-1.355.07V1.7a.7.7,0,0,1-.006.09L-1.4,2.1v.121Z" transform="translate(10.283 23.854)"/></svg>