<svg xmlns="http://www.w3.org/2000/svg" xmlns:xlink="http://www.w3.org/1999/xlink" width="53.755" height="48.315" viewBox="0 0 53.755 48.315">
  <defs>
    <clipPath id="clip-path">
      <path id="Path_10116" data-name="Path 10116" d="M14.9,23.713l-2.539-1.674L2.855,29.652,29.9,48.487,56.61,29.652l-10.288-6.81L29.9,34.132l-10-7.057L36.98,15.647l-5.293-3.428Z" fill="none" stroke="#707070" stroke-width="1"/>
    </clipPath>
    <clipPath id="clip-path-2">
      <path id="Path_10079" data-name="Path 10079" d="M14058,4057l-2,1,5,4,10,3,12,8-27,18.513L14028.9,4073l27.1-18Z" transform="translate(-14026 -4043)" fill="none" stroke="#707070" stroke-width="1.5"/>
    </clipPath>
  </defs>
  <g id="Floors" transform="translate(-2.855 -0.172)">
    <g id="Mask_Group_19" data-name="Mask Group 19" clip-path="url(#clip-path)">
      <g id="Mask_Group_15" data-name="Mask Group 15" clip-path="url(#clip-path-2)">
        <path id="Path_10058" data-name="Path 10058" d="M26.381,0a1.134,1.134,0,0,1,.14.009,1.118,1.118,0,0,1,.136.026.923.923,0,0,1,.128.044A.741.741,0,0,1,26.9.14l25,16.333a.581.581,0,0,1,.171.166.379.379,0,0,1,.062.189.357.357,0,0,1-.048.189.516.516,0,0,1-.159.166l-25,17.143a.841.841,0,0,1-.255.115,1.089,1.089,0,0,1-.576,0,.863.863,0,0,1-.255-.115l-25-17.143a.526.526,0,0,1-.159-.166.359.359,0,0,1-.048-.189.376.376,0,0,1,.061-.189.569.569,0,0,1,.171-.166L25.863.14a.714.714,0,0,1,.114-.061.911.911,0,0,1,.128-.044,1.1,1.1,0,0,1,.136-.026A1.117,1.117,0,0,1,26.381,0ZM50.32,16.827,26.381,1.157,2.441,16.827,26.381,33.21Z" transform="translate(3.619 13.172)" fill="#060606"/>
      </g>
      <g id="Group_8122" data-name="Group 8122" transform="translate(17.299 11.008)">
        <path id="Path_10132" data-name="Path 10132" d="M5.551,25.434l-.038,0-.037-.005-.037-.007L5.4,25.41a.518.518,0,0,1-.051-.017l-.048-.02-.044-.024a.347.347,0,0,1-.037-.027L.206,21.883a.356.356,0,0,1-.036-.025.291.291,0,0,1-.03-.028A.291.291,0,0,1,.114,21.8a.278.278,0,0,1-.021-.031l-.015-.031a.32.32,0,0,1-.011-.032l-.006-.033c0-.011,0-.022,0-.034a.112.112,0,0,0,0-.018l0-.018,0-.018.006-.018.019-1.222a.148.148,0,0,1-.007-.019.134.134,0,0,0,0-.019.125.125,0,0,1,0-.019.123.123,0,0,0,0-.019.193.193,0,0,1,0-.034.189.189,0,0,1,.008-.032A.191.191,0,0,1,.1,20.173c0-.01.012-.021.018-.031s.013-.02.02-.03.018-.02.027-.029a.317.317,0,0,1,.03-.027A.235.235,0,0,1,.23,20.03l.023-.014L.274,20,.3,19.991l.024-.011,1.809-1.211.015-1.178a.037.037,0,0,0,0-.01V17.56s0-.007,0-.01l0-.034a.184.184,0,0,1,.007-.032c0-.011.007-.021.011-.032a.22.22,0,0,1,.017-.031l.023-.031c.008-.01.017-.02.025-.029a.3.3,0,0,1,.03-.027.408.408,0,0,1,.035-.026l.013-.008.013-.008.014-.008.014-.007,1.828-1.222.011-1.175a.03.03,0,0,0,0-.009.031.031,0,0,0,0-.009.028.028,0,0,1,0-.009v-.009a.12.12,0,0,1,0-.032c0-.011,0-.022.008-.032a.134.134,0,0,1,.013-.032c0-.011.011-.021.016-.031s.013-.02.019-.029l.026-.028a.31.31,0,0,1,.029-.027.359.359,0,0,1,.035-.026l.013-.008.013-.008.013-.008.014-.007L6.2,13.364l.009-1.152,0-.013,0-.013a.064.064,0,0,0,0-.013.065.065,0,0,0,0-.014.17.17,0,0,1,0-.032.186.186,0,0,1,.009-.031.19.19,0,0,1,.011-.031.221.221,0,0,1,.017-.03c.006-.01.013-.021.019-.031a.258.258,0,0,1,.026-.029.311.311,0,0,1,.029-.027.277.277,0,0,1,.034-.025l.017-.011.017-.01.017-.009.019-.009,1.791-1.195,0-1.129a.113.113,0,0,0-.005-.016.093.093,0,0,0,0-.016l0-.016V9.495a.169.169,0,0,1,0-.031c0-.011,0-.021.007-.032A.209.209,0,0,1,8.233,9.4c0-.01.01-.021.016-.031s.013-.02.02-.029l.025-.028a.23.23,0,0,1,.03-.027.252.252,0,0,1,.034-.025l.016-.011.017-.01L8.41,9.23l.019-.009,1.785-1.186,0-1.183h0c0-.01,0-.021,0-.031s0-.021.007-.032a.184.184,0,0,1,.009-.031l.016-.03a.216.216,0,0,1,.02-.029L10.3,6.67c.01-.009.019-.018.03-.026a.366.366,0,0,1,.035-.025l.01-.006.009-.006.01-.006.011-.005L12.2,5.4V4.282l0-.014s0-.009,0-.014a.068.068,0,0,1,0-.014s0-.009,0-.014l0-.032a.122.122,0,0,1,.007-.031.174.174,0,0,1,.009-.03.207.207,0,0,1,.016-.03.256.256,0,0,1,.02-.029.274.274,0,0,1,.026-.028l.03-.026A.276.276,0,0,1,12.337,4l.013-.009.015-.008.013-.008.014-.007L14.17,2.789l0-1.113s0-.009,0-.014a.071.071,0,0,0,0-.014.075.075,0,0,1,0-.015V1.619a.168.168,0,0,1,0-.031c0-.01,0-.02.006-.03a.171.171,0,0,1,.011-.03c0-.01.009-.02.015-.029a.157.157,0,0,1,.021-.03c.007-.01.016-.019.024-.028a.282.282,0,0,1,.029-.026L14.3,1.39l.017-.011.019-.01.019-.01.02-.009,1.8-1.19.017-.017.019-.017.02-.016.022-.015.038-.022.039-.02.041-.017.043-.014.046-.01.045-.007.047,0h.1l.048,0,.047.007.043.01.014,0,.014,0,.014,0,.013,0,.033.012L16.9.066l.029.016L16.962.1l.015.009.014.01L17,.128l.012.011,4.885,3.2.026.016.023.017.021.018.02.019h0l0,0,0,0,0,0,0,0,0,0,0,0,0,0,0,0h0l0,0,0,0,0,0,0,0h0c.006.01.011.019.016.03a.187.187,0,0,1,.012.03.175.175,0,0,1,.008.031c0,.011,0,.021,0,.032l.162,10.6a.25.25,0,0,1-.009.066.3.3,0,0,1-.027.062.357.357,0,0,1-.046.058.426.426,0,0,1-.062.051L5.959,25.334l-.018.012-.02.011-.02.01-.02.01h0l-.008,0-.007,0-.007,0-.008,0-.011,0-.01,0-.01,0-.011,0-.007,0-.008,0-.008,0-.008,0-.012,0-.012,0-.012,0-.012,0-.009,0-.01,0H5.692l-.022,0-.023,0h-.1Zm.568-1.585,0,.406,15.1-10.223-.135-9.672-.98.655.013,1.121s0,.009,0,.014,0,.009,0,.014a.07.07,0,0,1,0,.014v.014l0,.031c0,.011,0,.021-.006.032l-.011.031a.313.313,0,0,1-.015.03l-.02.029a.314.314,0,0,1-.024.028l-.029.026a.246.246,0,0,1-.033.025l-.014.01-.017.009-.016.009-.017.009-1.77,1.187.012,1.143a.037.037,0,0,0,0,.01v.02s0,.007,0,.01a.264.264,0,0,1-.008.064.124.124,0,0,1-.01.031.22.22,0,0,1-.016.03.258.258,0,0,1-.022.029c-.008.01-.016.019-.025.029a.277.277,0,0,1-.028.028l-.035.026-.007,0-.008,0-.008,0-.008,0L16.184,10.3l.008,1.192v.017a.017.017,0,0,1,0,.007v.007h0v0a0,0,0,0,1,0,0,0,0,0,0,0,0,0v.009l0,0h0a.127.127,0,0,1,0,.019.14.14,0,0,1-.006.019l-.007.018-.011.018a.022.022,0,0,0,0,.008l-.006.007-.006.007-.006.007a.157.157,0,0,1-.019.022l-.022.021-.023.02-.025.019L14.2,12.968l0,1.162a.038.038,0,0,1,0,.01.044.044,0,0,1,0,.01v.02l0,.032c0,.011,0,.021-.006.032l-.011.032c0,.01-.009.021-.015.031s-.013.02-.021.029l-.025.028a.334.334,0,0,1-.031.027l-.035.026-.01.006-.01.006-.01.006-.011.006L12.2,15.657l0,1.213a.255.255,0,0,1-.009.067.268.268,0,0,1-.028.063.343.343,0,0,1-.045.058.355.355,0,0,1-.061.051l-1.869,1.26,0,1.153a.114.114,0,0,1,.005.016l0,.017a.136.136,0,0,1,0,.033.178.178,0,0,1,0,.032.128.128,0,0,1-.007.033.193.193,0,0,1-.011.032.155.155,0,0,1-.018.031.229.229,0,0,1-.018.03.294.294,0,0,1-.025.029l-.031.027-.034.026-.014.009-.015.008-.015.008-.014.008L8.162,21.1l0,1.175a.06.06,0,0,1,0,.013s0,.009,0,.014a.06.06,0,0,1,0,.013s0,.009,0,.013a.189.189,0,0,1,0,.034.18.18,0,0,1-.007.033.205.205,0,0,1-.013.032c0,.01-.011.021-.016.031s-.014.02-.02.03-.017.02-.025.03a.241.241,0,0,1-.03.029.259.259,0,0,1-.034.026L8,22.58l-.012.007-.012.007-.013.006ZM5.1,24.255l0-.408L1.091,21.106l-.005.4Zm.518-1.036,1.318-.89L2.627,19.393l-1.319.884Zm1.53-1.724,0-.4L3.144,18.371l0,.4Zm.515-1.024,1.31-.886-4.3-2.912-1.309.877ZM9.18,18.759l0-.4-4-2.7,0,.395Zm.511-1.016,1.3-.872L6.7,13.979l-1.3.866ZM11.2,16.052v-.4L7.206,12.972l0,.4ZM11.7,15.04l1.3-.87L8.71,11.3l-1.292.862Zm1.5-1.681v-.391L9.214,10.3v.386Zm.5-1,1.287-.864L10.712,8.643,9.422,9.5Zm1.489-1.668,0-.4-3.98-2.645v.392Zm.5-1,1.278-.855L12.694,6l-1.278.849Zm1.477-1.656,0-.388L13.19,5.02v.385Zm.489-.989,1.277-.853L14.666,3.384,13.39,4.23Zm1.468-1.649,0-.381L15.154,2.407l0,.382Zm.486-.977,1.266-.844L16.617.787l-1.264.836Z" transform="translate(0 0)" fill="#060606"/>
      </g>
    </g>
    <path id="Path_10058-2" data-name="Path 10058" d="M26.381,0a1.134,1.134,0,0,1,.14.009,1.118,1.118,0,0,1,.136.026.923.923,0,0,1,.128.044A.742.742,0,0,1,26.9.14l25,16.333a.581.581,0,0,1,.171.166.379.379,0,0,1,.062.189.357.357,0,0,1-.048.189.516.516,0,0,1-.159.166l-25,17.143a.841.841,0,0,1-.255.115,1.089,1.089,0,0,1-.576,0,.864.864,0,0,1-.255-.115L15.7,27.372a.54.54,0,0,1-.164-.171.37.37,0,0,1-.053-.194.374.374,0,0,1,.058-.194.564.564,0,0,1,.17-.171l16.6-11.15L28.37,12.875l-16.6,11.068a.866.866,0,0,1-.254.112,1.089,1.089,0,0,1-.285.037,1.062,1.062,0,0,1-.283-.037.827.827,0,0,1-.249-.112L.838,17.183a.526.526,0,0,1-.159-.166.359.359,0,0,1-.048-.189.376.376,0,0,1,.061-.189.569.569,0,0,1,.171-.166L25.863.14a.715.715,0,0,1,.114-.062.911.911,0,0,1,.128-.044,1.1,1.1,0,0,1,.136-.026A1.117,1.117,0,0,1,26.381,0ZM50.32,16.828,26.381,1.158,2.441,16.828l8.814,6.032L27.84,11.824a.838.838,0,0,1,.247-.109,1.094,1.094,0,0,1,.559,0,.843.843,0,0,1,.248.109l5,3.314a.543.543,0,0,1,.166.165.352.352,0,0,1,0,.376.531.531,0,0,1-.163.165L17.315,27.006l9.065,6.2Z" transform="translate(3.619 0.172)" fill="#060606"/>
  </g>
</svg>
