<svg xmlns="http://www.w3.org/2000/svg" xmlns:xlink="http://www.w3.org/1999/xlink" width="46" height="46" viewBox="0 0 46 46"><defs><style>.a{fill:#4d3b40;}.b,.d,.e,.h{fill:none;}.b,.e{stroke:#4d3b40;stroke-width:1.5px;}.c{clip-path:url(#a);}.d,.e{stroke-linejoin:round;}.f,.g{stroke:none;}.g{fill:#4d3b40;}</style><clipPath id="a"><rect class="a" width="46" height="46" rx="5"/></clipPath></defs><path class="b" d="M-14182.709-3998.918h-34.5a4.8,4.8,0,0,1-4.792-4.789v-34.5a4.8,4.8,0,0,1,4.792-4.789h2.877l4.164,31.664a4.8,4.8,0,0,0-4.164,4.751,4.8,4.8,0,0,0,4.792,4.789,4.8,4.8,0,0,0,4.792-4.789,4.758,4.758,0,0,0-.906-2.8c8.116-5.844,22.514-16.192,27.737-19.854v25.534A4.8,4.8,0,0,1-14182.709-3998.918Z" transform="translate(14222.957 4043.96)"/><g class="c"><g class="d" transform="translate(20.066 8.861) rotate(-60)"><path class="f" d="M.017,2.433,9.126,0,20.29,19.337,0,12.938Z"/><path class="g" d="M 8.401724815368652 1.745965957641602 L 1.515535354614258 3.585225105285645 L 1.501825332641602 11.83896541595459 L 17.06232833862305 16.74658012390137 L 8.401724815368652 1.745965957641602 M 9.125744819641113 1.9073486328125e-06 L 20.29022407531738 19.33746147155762 L -5.7220458984375e-06 12.93814182281494 L 0.01744461059570312 2.432771682739258 L 9.125744819641113 1.9073486328125e-06 Z"/></g><path class="e" d="M0,0H1.917V10.542H0Z" transform="translate(20.125 12.938) rotate(-60)"/></g><g class="b" transform="translate(11 35)"><circle class="f" cx="2.5" cy="2.5" r="2.5"/><circle class="h" cx="2.5" cy="2.5" r="1.75"/></g></svg>