<svg xmlns="http://www.w3.org/2000/svg" xmlns:xlink="http://www.w3.org/1999/xlink" width="46" height="46" viewBox="0 0 46 46"><defs><style>.a,.c,.d,.f{fill:none;}.a,.c{stroke:#4d3b40;stroke-width:1.5px;}.b{clip-path:url(#a);}.c{stroke-linejoin:round;}.e,.g{stroke:none;}.g{fill:#4d3b40;}</style><clipPath id="a"><circle class="a" cx="23" cy="23" r="23" transform="translate(7 7)"/></clipPath></defs><g class="b" transform="translate(-7 -7)"><g class="a" transform="translate(7 7)"><circle class="e" cx="23" cy="23" r="23"/><circle class="f" cx="23" cy="23" r="22.25"/></g><path class="c" d="M-14210.787-4016.795h0l-.817-.032-.339.032h-1.3l-.781-.068a1.639,1.639,0,0,1-.917-.367l-.036-.032-.032-.4-.035-.436a1.634,1.634,0,0,1,.067-.735v-.767l-.032-.168a1.375,1.375,0,0,1-.067-.632l.067-.435-.067-.3.032-.667-.136-.4-.032-.667a1.158,1.158,0,0,1,.032-.332l.067-.268.068-.635.067-.432.067-.7-.031-.432-.136-.735-.071-.3v-.8a1.154,1.154,0,0,1,.058-.35l.014-.05.032-.1.1-.8-.068-.432.032-.8-.067-.268.035-.7-.035-.335-.068-.8-.035-.2v-.3l.071-.635.1-.3.036-.871-.1-.432.035-.8-.035-.432-.511-.468-.407.032-.682.032a.842.842,0,0,0-.1.008h-.006a.868.868,0,0,1-.1.008.31.31,0,0,1-.1-.016l-.239-.032-.371-.032h-.071a1.676,1.676,0,0,1-.441.069.983.983,0,0,1-.272-.037l-.1.032a1.952,1.952,0,0,1-.326.027,1.916,1.916,0,0,1-.323-.027l-.406-.1h-1.328l-.339.036c-.069-.044-.656-.423-.75-.7-.035-.032-.035-.063-.035-.132v-.236l-.032-.568a1.129,1.129,0,0,0-.009-.127.636.636,0,0,1,.009-.241l.067-.232.068-.9-.1-.3a1.7,1.7,0,0,1,.374-.735l.443-.1.749-.032a.79.79,0,0,1,.271.032l.171.036.886.032.307-.068.813-.032h.343l.782.032.41-.064.678.032a1.5,1.5,0,0,1,.375.032l.14.036h1.089l.781.064.407-.132.853.032.543-.064h.51a1.56,1.56,0,0,1,.578.1l.072.032h1.088l.817.068.3-.036.749-.032.511-.132.682-.068h.308l.816.1.375.032.814.068a2.928,2.928,0,0,1,.649.436.749.749,0,0,1,.168.6v.032l.1.8.031.432.008.091a9.24,9.24,0,0,0-1.035,1.844l-.843-.028h-1.292l-.41-.068h-1.188l-.308-.032-.817.064-.41.036-.475.368-.035.468.035.732a1.081,1.081,0,0,1-.035.335l-.068.232.036.735-.068.4-.035.7.067.468v.767l.036.368-.036.835.036.4v.735l.032.332.035.835-.035.7a1.238,1.238,0,0,1-.06.367l-.009.033-.1.3-.071.767.071.368.032.967.067.935.1.336v.935l-.035.368-.068.867-.067.9.1.364v1.171l-.1.7,0,0a5.456,5.456,0,0,1-.607.93A.375.375,0,0,1-14210.787-4016.795Z" transform="translate(14230.449 4058.002)"/><g class="d" transform="translate(14240 4058)"><path class="e" d="M-14222-4005a17,17,0,0,1,17-17,17,17,0,0,1,17,17,17,17,0,0,1-17,17A17,17,0,0,1-14222-4005Zm7-28a10,10,0,0,1,10-10,10,10,0,0,1,10,10,10,10,0,0,1-10,10A10,10,0,0,1-14215-4033Z"/><path class="g" d="M -14205 -3989.499755859375 C -14200.859375 -3989.499755859375 -14196.966796875 -3991.11181640625 -14194.0390625 -3994.0390625 C -14191.1123046875 -3996.96630859375 -14189.5 -4000.859130859375 -14189.5 -4005.000244140625 C -14189.5 -4009.139892578125 -14191.1123046875 -4013.0322265625 -14194.0390625 -4015.9599609375 C -14196.966796875 -4018.887939453125 -14200.859375 -4020.50048828125 -14205 -4020.50048828125 C -14209.1396484375 -4020.50048828125 -14213.0322265625 -4018.887939453125 -14215.9599609375 -4015.959716796875 C -14218.888671875 -4013.03173828125 -14220.5009765625 -4009.1396484375 -14220.5009765625 -4005.000244140625 C -14220.5009765625 -4000.859375 -14218.888671875 -3996.966796875 -14215.9599609375 -3994.0390625 C -14213.0322265625 -3991.11181640625 -14209.1396484375 -3989.499755859375 -14205 -3989.499755859375 M -14205 -4024.5 C -14200.3125 -4024.5 -14196.4990234375 -4028.3134765625 -14196.4990234375 -4033.0009765625 C -14196.4990234375 -4037.6865234375 -14200.3125 -4041.498291015625 -14205 -4041.498291015625 C -14209.6884765625 -4041.498291015625 -14213.501953125 -4037.6865234375 -14213.501953125 -4033.0009765625 C -14213.501953125 -4028.3134765625 -14209.6884765625 -4024.5 -14205 -4024.5 M -14205 -3987.999755859375 C -14214.3876953125 -3987.999755859375 -14222.0009765625 -3995.609375 -14222.0009765625 -4005.000244140625 C -14222.0009765625 -4014.38720703125 -14214.3876953125 -4022.00048828125 -14205 -4022.00048828125 C -14195.609375 -4022.00048828125 -14188 -4014.38720703125 -14188 -4005.000244140625 C -14188 -3995.609375 -14195.609375 -3987.999755859375 -14205 -3987.999755859375 Z M -14205 -4023 C -14210.5224609375 -4023 -14215.001953125 -4027.475830078125 -14215.001953125 -4033.0009765625 C -14215.001953125 -4038.5224609375 -14210.5224609375 -4042.998291015625 -14205 -4042.998291015625 C -14199.478515625 -4042.998291015625 -14194.9990234375 -4038.5224609375 -14194.9990234375 -4033.0009765625 C -14194.9990234375 -4027.475830078125 -14199.478515625 -4023 -14205 -4023 Z"/></g></g></svg>