<?xml version="1.0" encoding="UTF-8" standalone="no"?>
<svg
   width="60"
   height="60"
   viewBox="0 0 60 60"
   version="1.1"
   id="svg16"
   sodipodi:docname="create_folder.svg"
   inkscape:version="1.1.2 (b8e25be833, 2022-02-05)"
   xmlns:inkscape="http://www.inkscape.org/namespaces/inkscape"
   xmlns:sodipodi="http://sodipodi.sourceforge.net/DTD/sodipodi-0.dtd"
   xmlns="http://www.w3.org/2000/svg"
   xmlns:svg="http://www.w3.org/2000/svg">
  <sodipodi:namedview
     id="namedview18"
     pagecolor="#ffffff"
     bordercolor="#666666"
     borderopacity="1.0"
     inkscape:pageshadow="2"
     inkscape:pageopacity="0.0"
     inkscape:pagecheckerboard="0"
     showgrid="false"
     inkscape:zoom="14.55"
     inkscape:cx="30"
     inkscape:cy="30.034364"
     inkscape:window-width="1920"
     inkscape:window-height="1017"
     inkscape:window-x="2552"
     inkscape:window-y="352"
     inkscape:window-maximized="1"
     inkscape:current-layer="svg16" />
  <defs
     id="defs4">
    <style
       id="style2">.a,.b{fill:none;}.c{fill:#db003b;}.d,.e{stroke:none;}.e{fill:#db003b;}</style>
  </defs>
  <g
     class="a"
     transform="translate(11579 3557)"
     id="g10">
    <path
       class="d"
       d="M-11544.956-3511H-11567a2,2,0,0,1-2-2v-28a2,2,0,0,1,2-2h14c1.421,0,2,.58,2,2s.579,2,2,2h18a2,2,0,0,1,2,2v15.2a10.881,10.881,0,0,0-5-1.2,11.013,11.013,0,0,0-11,11c0,.333.015.669.045,1Z"
       id="path6" />
    <path
       class="e"
       d="M -11546.962890625 -3513.000732421875 C -11546.4501953125 -3519.70361328125 -11540.83203125 -3525.000732421875 -11534 -3525.000732421875 C -11532.9755859375 -3525.000732421875 -11531.9736328125 -3524.885009765625 -11531 -3524.655029296875 L -11531 -3536.998046875 C -11531 -3536.998291015625 -11531 -3536.99853515625 -11531 -3536.99853515625 L -11548.9990234375 -3536.99853515625 C -11551.541015625 -3536.99853515625 -11552.9990234375 -3538.45654296875 -11552.9990234375 -3540.9990234375 C -11552.9990234375 -3540.999267578125 -11552.9990234375 -3540.999267578125 -11552.9990234375 -3540.99951171875 C -11552.9990234375 -3540.99951171875 -11553 -3540.99951171875 -11553 -3540.99951171875 L -11566.998046875 -3541.000732421875 C -11566.9990234375 -3541 -11567 -3540.99853515625 -11567.0009765625 -3540.99853515625 C -11567.0009765625 -3540.99853515625 -11567.0009765625 -3540.99853515625 -11567.0009765625 -3540.9990234375 L -11567.001953125 -3513.004150390625 C -11567.001953125 -3513.0029296875 -11567 -3513.0009765625 -11567 -3513.000732421875 L -11546.962890625 -3513.000732421875 M -11544.9560546875 -3511.000732421875 L -11567 -3511.000732421875 C -11568.103515625 -3511.000732421875 -11569.0009765625 -3511.898193359375 -11569.0009765625 -3513.001220703125 L -11569.0009765625 -3540.9990234375 C -11569.0009765625 -3542.10205078125 -11568.103515625 -3542.99951171875 -11567 -3542.99951171875 L -11553 -3542.99951171875 C -11551.5791015625 -3542.99951171875 -11550.9990234375 -3542.419921875 -11550.9990234375 -3540.9990234375 C -11550.9990234375 -3539.578125 -11550.419921875 -3538.99853515625 -11548.9990234375 -3538.99853515625 L -11531 -3538.99853515625 C -11529.8974609375 -3538.99853515625 -11529 -3538.1025390625 -11529 -3537.0009765625 L -11529 -3521.80126953125 C -11530.556640625 -3522.596923828125 -11532.23828125 -3523.000732421875 -11534 -3523.000732421875 C -11540.06640625 -3523.000732421875 -11545.0009765625 -3518.065673828125 -11545.0009765625 -3511.99951171875 C -11545.0009765625 -3511.66650390625 -11544.986328125 -3511.330810546875 -11544.9560546875 -3511.001708984375 L -11544.9560546875 -3511.000732421875 Z"
       id="path8"
       style="fill:#ffa8bf;fill-opacity:1" />
  </g>
  <rect
     class="b"
     width="60"
     height="60"
     id="rect12" />
  <path
     class="c"
     d="M-11567-3532.626v-3h-3a1.5,1.5,0,0,1-1.5-1.5,1.5,1.5,0,0,1,1.5-1.5h3v-3a1.5,1.5,0,0,1,1.5-1.5,1.5,1.5,0,0,1,1.5,1.5v3h3a1.5,1.5,0,0,1,1.5,1.5,1.5,1.5,0,0,1-1.5,1.5h-3v3a1.5,1.5,0,0,1-1.5,1.5A1.5,1.5,0,0,1-11567-3532.626Z"
     transform="translate(11610.502 3582.124)"
     id="path14"
     style="fill:#ffa8bf;fill-opacity:1" />
</svg>
